{
.appVersion = "99";
DisplayStrings = (
"/f_f",
k,
"/n_n.liga",
"/s.001",
A,
Netz,
"/ellipsis",
"Rohsto/f_f -Rau",
"geilm-dte",
"/A_l.liga tern\012Alter"
);
copyright = "Im Original ca. 6,5 pt. Künstlich verschlank";
date = "2019-04-27 11:12:03 +0000";
familyName = Mimikro;
featurePrefixes = (
{
automatic = 1;
code = "languagesystem DFLT dflt;\012";
name = Languagesystems;
}
);
features = (
{
automatic = 1;
code = "sub P h i p i by P_h_i_p_i.liga;\012sub A l by A_l.liga;\012sub f f by f_f;\012sub n n by n_n.liga;\012sub s s by s_s.liga;\012";
name = liga;
}
);
fontMaster = (
{
ascender = 630;
capHeight = 800;
descender = -550;
horizontalStems = (
150
);
id = "E3FE0EAA-297C-4773-BA15-BC72883F874E";
italicAngle = 8;
userData = {
GSOffsetHorizontal = -15;
GSOffsetVertical = -10;
};
verticalStems = (
150
);
xHeight = 450;
}
);
glyphs = (
{
glyphname = A;
lastChange = "2019-05-07 14:15:45 +0000";
layers = (
{
layerId = "E3FE0EAA-297C-4773-BA15-BC72883F874E";
paths = (
{
closed = 1;
nodes = (
"64.142 7.17 OFFCURVE",
"86.472 27.346 OFFCURVE",
"89.396 55.996 CURVE SMOOTH",
"92.256 85.039 OFFCURVE",
"125.192 144.363 OFFCURVE",
"157.614 202.567 CURVE SMOOTH",
"176.104 236.163 OFFCURVE",
"197.641 274.969 OFFCURVE",
"220.703 320.099 CURVE SMOOTH",
"247.034 371.615 OFFCURVE",
"272.926 424.374 OFFCURVE",
"296.667 473.251 CURVE SMOOTH",
"303.336 486.982 OFFCURVE",
"306.902 494.19 OFFCURVE",
"311.406 502.958 CURVE SMOOTH",
"361.206 604.974 LINE",
"330.394 584.733 LINE",
"331.674 584.733 LINE",
"350.882 498.998 OFFCURVE",
"374.767 341.878 OFFCURVE",
"389.114 248.205 CURVE SMOOTH",
"401.289 169.259 OFFCURVE",
"411.571 102.331 OFFCURVE",
"418.383 69.782 CURVE SMOOTH",
"424.754 39.555 OFFCURVE",
"450.402 22.832 OFFCURVE",
"479.425 27.898 CURVE",
"506.396 33.727 OFFCURVE",
"524.781 62.787 OFFCURVE",
"518.669 92.067 CURVE SMOOTH",
"512.987 119.47 OFFCURVE",
"505.359 166.35 OFFCURVE",
"490.512 264.651 CURVE SMOOTH",
"425.272 689.979 OFFCURVE",
"412.142 731.427 OFFCURVE",
"351.145 731.427 CURVE SMOOTH",
"311.113 731.427 OFFCURVE",
"300.278 716.975 OFFCURVE",
"204.631 520.788 CURVE SMOOTH",
"181.797 473.747 OFFCURVE",
"156.824 422.463 OFFCURVE",
"129.615 369.444 CURVE SMOOTH",
"108.155 327.677 OFFCURVE",
"86.484 288.589 OFFCURVE",
"67.929 255.191 CURVE SMOOTH",
"23.632 175.064 OFFCURVE",
"-7.165 119.741 OFFCURVE",
"-12.495 66.806 CURVE SMOOTH",
"-15.448 37.408 OFFCURVE",
"4.896 10.317 OFFCURVE",
"33.327 7.46 CURVE SMOOTH",
"35.32 7.306 OFFCURVE",
"37.103 7.17 OFFCURVE",
"38.449 7.17 CURVE SMOOTH"
);
},
{
closed = 1;
nodes = (
"193.563 256.584 OFFCURVE",
"199.688 258.216 OFFCURVE",
"206.335 261.14 CURVE SMOOTH",
"274.495 291.414 OFFCURVE",
"524.098 291.511 OFFCURVE",
"581.602 267.275 CURVE SMOOTH",
"605.489 257.207 OFFCURVE",
"628.285 261.268 OFFCURVE",
"644.694 280.727 CURVE SMOOTH",
"659.806 298.762 OFFCURVE",
"661.002 329.403 OFFCURVE",
"646.433 348.784 CURVE SMOOTH",
"612.464 394.205 OFFCURVE",
"259.548 401.967 OFFCURVE",
"165.084 360.461 CURVE SMOOTH",
"139.687 349.214 OFFCURVE",
"126.979 315.997 OFFCURVE",
"138.818 288.936 CURVE SMOOTH",
"148.168 267.847 OFFCURVE",
"165.764 256.584 OFFCURVE",
"185.715 256.584 CURVE SMOOTH"
);
}
);
width = 570;
}
);
unicode = 0041;
},
{
glyphname = B;
lastChange = "2019-04-30 11:56:39 +0000";
layers = (
{
layerId = "E3FE0EAA-297C-4773-BA15-BC72883F874E";
paths = (
{
closed = 1;
nodes = (
"251.673 1.758 OFFCURVE",
"442.468 23.68 OFFCURVE",
"523.611 86.694 CURVE SMOOTH",
"555.781 111.648 OFFCURVE",
"574.04 143.594 OFFCURVE",
"576.583 179.161 CURVE SMOOTH",
"579.803 223.539 OFFCURVE",
"565.609 262.312 OFFCURVE",
"534.371 294.46 CURVE SMOOTH",
"495.708 334.212 OFFCURVE",
"428.249 362.921 OFFCURVE",
"335.708 378.265 CURVE",
"450.94 441.107 OFFCURVE",
"509.378 509.953 OFFCURVE",
"510.656 583.161 CURVE SMOOTH",
"511.586 636.488 OFFCURVE",
"492.008 678.784 OFFCURVE",
"452.919 708.248 CURVE SMOOTH",
"336.529 795.886 OFFCURVE",
"85.702 727.063 OFFCURVE",
"35.073 711.896 CURVE SMOOTH",
"10.796 704.644 OFFCURVE",
"-3.309 679.282 OFFCURVE",
"3.505 655.263 CURVE SMOOTH",
"10.331 631.151 OFFCURVE",
"35.106 617.684 OFFCURVE",
"58.86 625.138 CURVE SMOOTH",
"202.449 667.769 OFFCURVE",
"346.873 673.621 OFFCURVE",
"397.353 635.49 CURVE SMOOTH",
"413.414 623.335 OFFCURVE",
"420.597 606.29 OFFCURVE",
"420.181 582.463 CURVE SMOOTH",
"419.098 520.42 OFFCURVE",
"285.238 436.031 OFFCURVE",
"123.807 389.19 CURVE SMOOTH",
"101.591 382.662 OFFCURVE",
"87.22 360.478 OFFCURVE",
"90.547 337.873 CURVE SMOOTH",
"93.83 315.723 OFFCURVE",
"113.04 300.053 OFFCURVE",
"136.745 300.466 CURVE SMOOTH",
"217.504 303.813 OFFCURVE",
"408.393 292.555 OFFCURVE",
"468.679 230.543 CURVE SMOOTH",
"486.534 212.183 OFFCURVE",
"487.502 191.699 OFFCURVE",
"473.395 161.067 CURVE",
"419.274 112.909 OFFCURVE",
"241.212 96.085 OFFCURVE",
"93.833 123.501 CURVE SMOOTH",
"69.512 128.367 OFFCURVE",
"45.087 111.751 OFFCURVE",
"40.112 87.065 CURVE SMOOTH",
"35.17 62.665 OFFCURVE",
"50.916 39.11 OFFCURVE",
"75.015 34.714 CURVE SMOOTH"
);
},
{
closed = 1;
nodes = (
"70.857 51.836 OFFCURVE",
"89.961 67.609 OFFCURVE",
"94.243 89.403 CURVE SMOOTH",
"103.243 135.632 OFFCURVE",
"180.867 540.096 OFFCURVE",
"141.772 676.521 CURVE SMOOTH",
"135.195 699.707 OFFCURVE",
"110.602 712.922 OFFCURVE",
"85.952 706.366 CURVE",
"61.755 698.84 OFFCURVE",
"47.842 673.552 OFFCURVE",
"54.744 649.7 CURVE SMOOTH",
"79.966 561.74 OFFCURVE",
"37.511 267.728 OFFCURVE",
"5.376 104.726 CURVE SMOOTH",
"0.612 80.418 OFFCURVE",
"16.322 57.108 OFFCURVE",
"40.464 52.541 CURVE",
"43.36 52.117 OFFCURVE",
"46.236 51.836 OFFCURVE",
"48.77 51.836 CURVE SMOOTH"
);
}
);
width = 570;
}
);
unicode = 0042;
},
{
glyphname = C;
lastChange = "2019-04-30 11:56:39 +0000";
layers = (
{
layerId = "E3FE0EAA-297C-4773-BA15-BC72883F874E";
paths = (
{
closed = 1;
nodes = (
"375.946 20 OFFCURVE",
"528.55 98.278 OFFCURVE",
"579.742 136.529 CURVE SMOOTH",
"600.803 152.257 OFFCURVE",
"605.15 182.484 OFFCURVE",
"589.379 203.535 CURVE SMOOTH",
"573.863 224.495 OFFCURVE",
"543.468 228.879 OFFCURVE",
"522.379 213.234 CURVE SMOOTH",
"478.663 180.446 OFFCURVE",
"342.111 115.742 OFFCURVE",
"227.065 115.742 CURVE SMOOTH",
"188.673 115.742 OFFCURVE",
"153.034 131.651 OFFCURVE",
"129.413 159.399 CURVE SMOOTH",
"100.761 192.976 OFFCURVE",
"90.09 241.981 OFFCURVE",
"98.909 298.124 CURVE SMOOTH",
"111.211 375.648 OFFCURVE",
"202.551 486.895 OFFCURVE",
"292.52 534.477 CURVE SMOOTH",
"321.134 549.533 OFFCURVE",
"353.511 558.594 OFFCURVE",
"368.917 551.614 CURVE SMOOTH",
"393.768 540.057 OFFCURVE",
"423.533 548.47 OFFCURVE",
"435.043 569.837 CURVE SMOOTH",
"447.9 593.434 OFFCURVE",
"442.303 618.844 OFFCURVE",
"421.934 631.575 CURVE SMOOTH",
"381.12 657.084 OFFCURVE",
"327.292 655.95 OFFCURVE",
"266.032 627.996 CURVE SMOOTH",
"143.557 572.279 OFFCURVE",
"22.532 426.953 OFFCURVE",
"4.434 313.167 CURVE SMOOTH",
"-8.997 228.261 OFFCURVE",
"9.341 152.527 OFFCURVE",
"56.543 97.155 CURVE SMOOTH",
"98.689 47.804 OFFCURVE",
"160.102 20 OFFCURVE",
"227.065 20 CURVE SMOOTH"
);
}
);
width = 480;
}
);
unicode = 0043;
},
{
glyphname = D;
lastChange = "2019-04-30 11:56:39 +0000";
layers = (
{
layerId = "E3FE0EAA-297C-4773-BA15-BC72883F874E";
paths = (
{
closed = 1;
nodes = (
"272.26 -2.479 OFFCURVE",
"360.372 30.369 OFFCURVE",
"427.125 92.725 CURVE SMOOTH",
"500.14 160.929 OFFCURVE",
"537.737 257.772 OFFCURVE",
"533.965 368.245 CURVE SMOOTH",
"530.772 461.772 OFFCURVE",
"484.043 545.731 OFFCURVE",
"400.507 607.771 CURVE SMOOTH",
"304.112 679.358 OFFCURVE",
"171.564 712.575 OFFCURVE",
"77.374 688.971 CURVE SMOOTH",
"48.345 681.696 OFFCURVE",
"29.376 652.939 OFFCURVE",
"34.87 624.822 CURVE SMOOTH",
"40.208 597.504 OFFCURVE",
"66.983 580.969 OFFCURVE",
"94.282 588.204 CURVE SMOOTH",
"156.23 604.625 OFFCURVE",
"263.767 575.098 OFFCURVE",
"334.29 522.726 CURVE SMOOTH",
"393.483 478.768 OFFCURVE",
"427.791 419.467 OFFCURVE",
"429.96 356.567 CURVE SMOOTH",
"432.653 278.469 OFFCURVE",
"407.803 211.409 OFFCURVE",
"359.116 165.933 CURVE SMOOTH",
"307.365 117.595 OFFCURVE",
"229.624 95.307 OFFCURVE",
"141.633 103.316 CURVE SMOOTH",
"112.455 105.972 OFFCURVE",
"85.092 84.72 OFFCURVE",
"80.457 55.804 CURVE SMOOTH",
"75.967 27.793 OFFCURVE",
"94.714 3.006 OFFCURVE",
"122.429 0.183 CURVE SMOOTH",
"140.727 -1.681 OFFCURVE",
"156.688 -2.479 OFFCURVE",
"171.554 -2.479 CURVE SMOOTH"
);
},
{
closed = 1;
nodes = (
"107.311 -3.037 OFFCURVE",
"132.271 19.946 OFFCURVE",
"134.79 48.386 CURVE SMOOTH",
"187.586 644.555 LINE SMOOTH",
"190.108 673.035 OFFCURVE",
"169.288 696.459 OFFCURVE",
"140.812 697.001 CURVE",
"116.625 700.451 OFFCURVE",
"86.294 673.302 OFFCURVE",
"83.851 645.719 CURVE SMOOTH",
"31.056 49.557 LINE SMOOTH",
"28.552 21.281 OFFCURVE",
"49.015 -1.957 OFFCURVE",
"77.838 -2.973 CURVE",
"78.553 -3.052 OFFCURVE",
"78.682 -3.037 OFFCURVE",
"78.984 -3.037 CURVE SMOOTH"
);
}
);
width = 520;
}
);
unicode = 0044;
},
{
glyphname = E;
lastChange = "2019-04-30 11:56:39 +0000";
layers = (
{
layerId = "E3FE0EAA-297C-4773-BA15-BC72883F874E";
paths = (
{
closed = 1;
nodes = (
"198.094 18.78 OFFCURVE",
"202.659 18.856 OFFCURVE",
"207.5 19.013 CURVE SMOOTH",
"264.541 20.856 OFFCURVE",
"340.194 33.848 OFFCURVE",
"445.516 60.178 CURVE SMOOTH",
"469.984 66.295 OFFCURVE",
"487.195 88.31 OFFCURVE",
"487.195 113.479 CURVE",
"487.195 117.717 OFFCURVE",
"486.739 122.06 OFFCURVE",
"485.535 126.877 CURVE SMOOTH",
"479.418 151.344 OFFCURVE",
"457.404 168.554 OFFCURVE",
"432.234 168.554 CURVE SMOOTH",
"427.993 168.554 OFFCURVE",
"423.651 168.098 OFFCURVE",
"418.837 166.894 CURVE SMOOTH",
"328.91 144.412 OFFCURVE",
"261.712 132.076 OFFCURVE",
"212.949 129.354 CURVE SMOOTH",
"174.016 127.179 OFFCURVE",
"138.679 132.233 OFFCURVE",
"133.355 144.047 CURVE",
"129.603 146.815 OFFCURVE",
"126.636 163.157 OFFCURVE",
"126.636 176.587 CURVE SMOOTH",
"126.636 196.134 OFFCURVE",
"130.23 221.894 OFFCURVE",
"137.174 252.874 CURVE SMOOTH",
"151.889 318.531 OFFCURVE",
"180.279 404.097 OFFCURVE",
"215.824 511.227 CURVE SMOOTH",
"232.961 562.878 OFFCURVE",
"252.346 621.304 OFFCURVE",
"272.258 683.887 CURVE SMOOTH",
"273.948 689.198 OFFCURVE",
"274.868 695.093 OFFCURVE",
"274.868 700.582 CURVE SMOOTH",
"274.868 724.701 OFFCURVE",
"259.537 745.652 OFFCURVE",
"236.524 752.973 CURVE SMOOTH",
"231.213 754.664 OFFCURVE",
"225.319 755.584 OFFCURVE",
"219.829 755.584 CURVE SMOOTH",
"195.711 755.584 OFFCURVE",
"174.759 740.252 OFFCURVE",
"167.438 717.239 CURVE SMOOTH",
"147.729 655.302 OFFCURVE",
"128.421 597.108 OFFCURVE",
"111.42 545.867 CURVE SMOOTH",
"72.28 427.904 OFFCURVE",
"41.741 335.856 OFFCURVE",
"26.734 262.468 CURVE SMOOTH",
"21.143 235.133 OFFCURVE",
"16.612 206.403 OFFCURVE",
"16.612 177.295 CURVE SMOOTH",
"16.612 129.795 OFFCURVE",
"28.73 94.242 OFFCURVE",
"54.032 66.956 CURVE SMOOTH",
"71.586 48.026 OFFCURVE",
"94.13 34.907 OFFCURVE",
"122.669 27.1 CURVE SMOOTH",
"142.831 21.584 OFFCURVE",
"165.85 18.78 OFFCURVE",
"193.482 18.78 CURVE SMOOTH"
);
},
{
closed = 1;
nodes = (
"515.127 402.656 OFFCURVE",
"539.337 426.036 OFFCURVE",
"540.397 455.694 CURVE SMOOTH",
"541.476 485.887 OFFCURVE",
"518.249 511.519 OFFCURVE",
"487.395 512.622 CURVE SMOOTH",
"133.649 525.256 LINE SMOOTH",
"103.463 526.339 OFFCURVE",
"77.823 503.104 OFFCURVE",
"76.721 472.253 CURVE SMOOTH",
"75.642 442.06 OFFCURVE",
"98.869 416.428 OFFCURVE",
"129.723 415.325 CURVE SMOOTH",
"483.469 402.692 LINE SMOOTH",
"484.206 402.666 OFFCURVE",
"484.751 402.656 OFFCURVE",
"485.481 402.656 CURVE SMOOTH"
);
},
{
closed = 1;
nodes = (
"846.382 610.643 OFFCURVE",
"870.456 633.486 OFFCURVE",
"872.024 662.7 CURVE SMOOTH",
"873.642 692.868 OFFCURVE",
"850.876 718.912 OFFCURVE",
"820.048 720.566 CURVE SMOOTH",
"163.653 755.772 LINE SMOOTH",
"132.821 757.43 OFFCURVE",
"107.404 733.973 OFFCURVE",
"105.786 703.797 CURVE SMOOTH",
"104.132 672.968 OFFCURVE",
"127.591 647.548 OFFCURVE",
"157.761 645.93 CURVE SMOOTH",
"814.157 610.724 LINE SMOOTH",
"815.259 610.665 OFFCURVE",
"816.078 610.643 OFFCURVE",
"817.168 610.643 CURVE SMOOTH"
);
}
);
width = 528.56;
}
);
unicode = 0045;
},
{
glyphname = F;
lastChange = "2019-04-30 11:56:39 +0000";
layers = (
{
layerId = "E3FE0EAA-297C-4773-BA15-BC72883F874E";
paths = (
{
closed = 1;
nodes = (
"143.505 -1.907 OFFCURVE",
"146.635 -1.577 OFFCURVE",
"149.528 -1.1 CURVE SMOOTH",
"176.093 3.705 OFFCURVE",
"195.131 29.148 OFFCURVE",
"191.765 55.543 CURVE SMOOTH",
"185.223 106.002 OFFCURVE",
"226.28 384.732 OFFCURVE",
"269.122 624.001 CURVE SMOOTH",
"273.808 649.849 OFFCURVE",
"256.988 673.18 OFFCURVE",
"231.472 676.416 CURVE SMOOTH",
"205.575 680.141 OFFCURVE",
"179.483 660.558 OFFCURVE",
"174.827 634.013 CURVE SMOOTH",
"159.649 549.4 OFFCURVE",
"85.096 125.576 OFFCURVE",
"96.578 36.409 CURVE SMOOTH",
"99.434 14.245 OFFCURVE",
"117.933 -1.907 OFFCURVE",
"140.521 -1.907 CURVE SMOOTH"
);
},
{
closed = 1;
nodes = (
"483.615 336.57 OFFCURVE",
"506.209 356.732 OFFCURVE",
"509.276 382.149 CURVE SMOOTH",
"512.475 408.18 OFFCURVE",
"494.334 430.407 OFFCURVE",
"468.575 432.162 CURVE SMOOTH",
"426.377 435.147 OFFCURVE",
"353.981 435.437 OFFCURVE",
"283.591 435.827 CURVE SMOOTH",
"213.322 436.12 OFFCURVE",
"144.615 436.021 OFFCURVE",
"116.316 439.492 CURVE SMOOTH",
"89.819 442.507 OFFCURVE",
"64.402 423.32 OFFCURVE",
"59.874 396.711 CURVE SMOOTH",
"55.383 370.765 OFFCURVE",
"72.346 347.536 OFFCURVE",
"97.894 344.431 CURVE SMOOTH",
"126.466 340.954 OFFCURVE",
"199.146 340.378 OFFCURVE",
"276.084 340.085 CURVE SMOOTH",
"343.17 339.792 OFFCURVE",
"413.408 339.496 OFFCURVE",
"454.809 336.72 CURVE SMOOTH",
"456.308 336.632 OFFCURVE",
"457.305 336.57 OFFCURVE",
"458.246 336.57 CURVE SMOOTH"
);
},
{
closed = 1;
nodes = (
"661.155 581.101 OFFCURVE",
"683.164 600.168 OFFCURVE",
"687 625.257 CURVE SMOOTH",
"690.941 651.206 OFFCURVE",
"673.467 674.086 OFFCURVE",
"647.833 676.649 CURVE SMOOTH",
"576.365 683.61 OFFCURVE",
"138.941 696.627 OFFCURVE",
"74.284 687.864 CURVE SMOOTH",
"47.48 684.083 OFFCURVE",
"27.508 659.355 OFFCURVE",
"29.89 632.915 CURVE SMOOTH",
"32.128 607.231 OFFCURVE",
"54.742 589.516 OFFCURVE",
"80.763 593.119 CURVE SMOOTH",
"130.774 600.081 OFFCURVE",
"551.065 589.376 OFFCURVE",
"631.274 581.293 CURVE SMOOTH",
"632.873 581.162 OFFCURVE",
"634.277 581.101 OFFCURVE",
"636.09 581.101 CURVE SMOOTH"
);
}
);
width = 400;
}
);
unicode = 0046;
},
{
glyphname = G;
lastChange = "2019-04-30 11:56:39 +0000";
layers = (
{
layerId = "E3FE0EAA-297C-4773-BA15-BC72883F874E";
paths = (
{
closed = 1;
nodes = (
"688.213 23 OFFCURVE",
"695.51 23.543 OFFCURVE",
"702.325 24.811 CURVE SMOOTH",
"732.354 30.284 OFFCURVE",
"752.828 58.69 OFFCURVE",
"747.34 88.875 CURVE SMOOTH",
"739.93 130.174 OFFCURVE",
"688.799 152.021 OFFCURVE",
"649.5 115.543 CURVE",
"671.806 137.309 LINE",
"672.426 135.587 OFFCURVE",
"672.854 134.512 OFFCURVE",
"672.959 134.484 CURVE",
"666.141 136.297 OFFCURVE",
"641.008 142.98 OFFCURVE",
"618.379 164.476 CURVE SMOOTH",
"600.252 181.411 OFFCURVE",
"585.302 203.726 OFFCURVE",
"573.389 231.504 CURVE",
"654.963 297.211 OFFCURVE",
"707.173 358.846 OFFCURVE",
"714.26 396.36 CURVE SMOOTH",
"718.138 417.045 OFFCURVE",
"705.821 448.348 OFFCURVE",
"688.687 461.236 CURVE SMOOTH",
"652.132 488.523 OFFCURVE",
"562.838 483.098 OFFCURVE",
"498.957 450.954 CURVE SMOOTH",
"459.094 430.625 OFFCURVE",
"437.341 400.776 OFFCURVE",
"437.894 365.619 CURVE SMOOTH",
"438.413 333.689 OFFCURVE",
"441.383 302.61 OFFCURVE",
"446.931 273.416 CURVE",
"370.788 219.541 OFFCURVE",
"308.182 187.192 OFFCURVE",
"278.115 186.694 CURVE",
"219.019 190.244 OFFCURVE",
"180.02 204.438 OFFCURVE",
"157.708 231.212 CURVE SMOOTH",
"133.598 259.997 OFFCURVE",
"125.159 309.952 OFFCURVE",
"132.704 373.333 CURVE SMOOTH",
"148.838 510.734 OFFCURVE",
"250.478 625.386 OFFCURVE",
"396.024 672.422 CURVE SMOOTH",
"467.864 695.606 OFFCURVE",
"548.131 696.463 OFFCURVE",
"568.225 669.233 CURVE",
"578.737 639.836 OFFCURVE",
"611.605 625.235 OFFCURVE",
"640.649 636.492 CURVE SMOOTH",
"669.135 647.917 OFFCURVE",
"682.362 679.999 OFFCURVE",
"671.111 708.056 CURVE SMOOTH",
"643.067 778.163 OFFCURVE",
"560.27 811.261 OFFCURVE",
"446.387 796.257 CURVE SMOOTH",
"226.786 767.282 OFFCURVE",
"47.994 595.021 OFFCURVE",
"23.404 386.208 CURVE SMOOTH",
"11.94 288.539 OFFCURVE",
"28.471 214.296 OFFCURVE",
"73.38 160.55 CURVE SMOOTH",
"136.606 84.896 OFFCURVE",
"235.865 79.175 OFFCURVE",
"271.014 77.043 CURVE",
"310.796 73.142 OFFCURVE",
"390.577 106.143 OFFCURVE",
"482.957 165.828 CURVE",
"501.744 128.991 OFFCURVE",
"527.711 95.826 OFFCURVE",
"556.283 72.628 CURVE SMOOTH",
"595.188 40.537 OFFCURVE",
"639.142 23 OFFCURVE",
"680.201 23 CURVE SMOOTH"
);
}
);
width = 710;
}
);
unicode = 0047;
},
{
glyphname = H;
lastChange = "2019-04-30 11:56:39 +0000";
layers = (
{
layerId = "E3FE0EAA-297C-4773-BA15-BC72883F874E";
paths = (
{
closed = 1;
nodes = (
"91.99 13.325 OFFCURVE",
"116.333 35.231 OFFCURVE",
"119.461 63.675 CURVE SMOOTH",
"131.415 172.27 OFFCURVE",
"166.705 492.68 OFFCURVE",
"179.059 595.706 CURVE SMOOTH",
"182.622 625.553 OFFCURVE",
"161.369 652.342 OFFCURVE",
"131.6 655.625 CURVE",
"100.667 657.688 OFFCURVE",
"73.355 635.778 OFFCURVE",
"69.824 606.189 CURVE SMOOTH",
"57.483 502.954 OFFCURVE",
"22.007 181.955 OFFCURVE",
"10.047 72.979 CURVE SMOOTH",
"6.753 43.001 OFFCURVE",
"28.464 16.326 OFFCURVE",
"58.314 13.634 CURVE SMOOTH",
"60.518 13.451 OFFCURVE",
"62.03 13.325 OFFCURVE",
"63.542 13.325 CURVE SMOOTH"
);
},
{
closed = 1;
nodes = (
"515.884 281.293 OFFCURVE",
"539.548 301.826 OFFCURVE",
"543.616 329.619 CURVE SMOOTH",
"547.971 359.574 OFFCURVE",
"527.237 387.032 OFFCURVE",
"497.379 390.87 CURVE SMOOTH",
"420.634 400.628 OFFCURVE",
"147.732 413.706 OFFCURVE",
"130.752 414.538 CURVE",
"101.813 414.436 OFFCURVE",
"73.347 388.974 OFFCURVE",
"71.595 361.766 CURVE SMOOTH",
"69.639 331.508 OFFCURVE",
"92.713 305.741 OFFCURVE",
"122.932 304.495 CURVE SMOOTH",
"143.877 303.636 OFFCURVE",
"410.134 290.872 OFFCURVE",
"480.951 281.714 CURVE SMOOTH",
"482.748 281.497 OFFCURVE",
"485.418 281.293 OFFCURVE",
"487.946 281.293 CURVE SMOOTH"
);
},
{
closed = 1;
nodes = (
"406.577 17.036 OFFCURVE",
"430.98 38.934 OFFCURVE",
"434.177 67.248 CURVE SMOOTH",
"439.148 111.564 OFFCURVE",
"482.685 501.643 OFFCURVE",
"483.94 573.556 CURVE SMOOTH",
"484.466 603.654 OFFCURVE",
"460.342 628.207 OFFCURVE",
"430.247 628.207 CURVE SMOOTH",
"399.633 628.207 OFFCURVE",
"374.469 603.474 OFFCURVE",
"373.934 572.858 CURVE SMOOTH",
"373.05 522.174 OFFCURVE",
"344.062 248.184 OFFCURVE",
"324.756 76.828 CURVE SMOOTH",
"321.393 46.861 OFFCURVE",
"343.042 20.176 OFFCURVE",
"373.019 17.337 CURVE SMOOTH",
"375.134 17.162 OFFCURVE",
"376.711 17.036 OFFCURVE",
"378.255 17.036 CURVE SMOOTH"
);
}
);
width = 520;
}
);
unicode = 0048;
},
{
glyphname = I;
lastChange = "2019-04-30 11:56:39 +0000";
layers = (
{
layerId = "E3FE0EAA-297C-4773-BA15-BC72883F874E";
paths = (
{
closed = 1;
nodes = (
"60.743 -17.979 LINE SMOOTH",
"87.617 -17.979 OFFCURVE",
"109.44 3.15 OFFCURVE",
"110.296 29.999 CURVE SMOOTH",
"117.69 261.688 OFFCURVE",
"206.226 688.238 OFFCURVE",
"207.171 692.585 CURVE SMOOTH",
"212.907 718.971 OFFCURVE",
"195.488 745.521 OFFCURVE",
"168.746 751.069 CURVE SMOOTH",
"141.626 756.694 OFFCURVE",
"115.674 739.678 OFFCURVE",
"110.026 712.567 CURVE SMOOTH",
"106.307 694.719 OFFCURVE",
"19.144 273.554 OFFCURVE",
"11.188 33.303 CURVE SMOOTH",
"10.273 5.648 OFFCURVE",
"32.202 -17.979 OFFCURVE",
"58.511 -17.979 CURVE SMOOTH"
);
}
);
width = 173.63;
}
);
unicode = 0049;
},
{
glyphname = J;
lastChange = "2019-04-30 11:56:39 +0000";
layers = (
{
layerId = "E3FE0EAA-297C-4773-BA15-BC72883F874E";
paths = (
{
closed = 1;
nodes = (
"243.373 -78.14 OFFCURVE",
"244.008 -78.125 OFFCURVE",
"244.984 -78.1 CURVE SMOOTH",
"245.996 -78.075 OFFCURVE",
"247.259 -78.044 OFFCURVE",
"248.556 -78.042 CURVE SMOOTH",
"299.042 -76.768 OFFCURVE",
"341.932 -56.982 OFFCURVE",
"376.731 -18.895 CURVE SMOOTH",
"492.888 108.22 OFFCURVE",
"481.712 412.403 OFFCURVE",
"459.497 723.006 CURVE SMOOTH",
"457.607 749.349 OFFCURVE",
"433.833 768.961 OFFCURVE",
"406.4 766.583 CURVE SMOOTH",
"378.801 763.646 OFFCURVE",
"357.599 738.522 OFFCURVE",
"359.597 710.764 CURVE SMOOTH",
"386.432 338.259 OFFCURVE",
"374.236 122.757 OFFCURVE",
"304.404 46.307 CURVE SMOOTH",
"289.988 30.654 OFFCURVE",
"272.246 22.5 OFFCURVE",
"251.495 21.974 CURVE",
"170.871 16.843 OFFCURVE",
"86.903 95.44 OFFCURVE",
"81.84 180.63 CURVE SMOOTH",
"80.272 206.821 OFFCURVE",
"57.934 226.309 OFFCURVE",
"29.218 224.851 CURVE",
"1.425 222.03 OFFCURVE",
"-19.813 197.262 OFFCURVE",
"-18.153 169.546 CURVE SMOOTH",
"-10.08 34.75 OFFCURVE",
"108.85 -78.14 OFFCURVE",
"242.737 -78.14 CURVE SMOOTH"
);
}
);
width = 470;
}
);
unicode = 004A;
},
{
glyphname = K;
lastChange = "2019-04-30 11:56:39 +0000";
layers = (
{
layerId = "E3FE0EAA-297C-4773-BA15-BC72883F874E";
paths = (
{
closed = 1;
nodes = (
"592.476 41.734 LINE",
"594.82 41.734 LINE SMOOTH",
"621.033 41.734 OFFCURVE",
"643.888 62.772 OFFCURVE",
"646.096 88.944 CURVE SMOOTH",
"648.416 115.07 OFFCURVE",
"629.499 136.61 OFFCURVE",
"603.594 137.489 CURVE SMOOTH",
"387.55 144.803 OFFCURVE",
"183.213 200.273 OFFCURVE",
"184.756 260.618 CURVE SMOOTH",
"185.819 281.942 OFFCURVE",
"219.367 320.415 OFFCURVE",
"258.463 352.195 CURVE SMOOTH",
"352.134 428.585 OFFCURVE",
"496.075 492.588 OFFCURVE",
"558.065 484.639 CURVE SMOOTH",
"583.115 481.4 OFFCURVE",
"609.302 501.802 OFFCURVE",
"613.753 528.274 CURVE SMOOTH",
"617.807 554.09 OFFCURVE",
"600.505 577.113 OFFCURVE",
"574.896 579.877 CURVE SMOOTH",
"478.353 589.869 OFFCURVE",
"288.093 505.577 OFFCURVE",
"175.316 402.389 CURVE SMOOTH",
"116.377 348.218 OFFCURVE",
"87.89 298.037 OFFCURVE",
"88.723 251.093 CURVE SMOOTH",
"90.974 128.913 OFFCURVE",
"291.036 52.136 OFFCURVE",
"593.165 41.722 CURVE"
);
},
{
closed = 1;
nodes = (
"93.875 14 OFFCURVE",
"116.706 34.86 OFFCURVE",
"119.041 60.83 CURVE SMOOTH",
"120.355 74.676 OFFCURVE",
"150.315 397.984 OFFCURVE",
"143.916 538.009 CURVE SMOOTH",
"142.723 563.188 OFFCURVE",
"121.295 581.495 OFFCURVE",
"94.502 579.922 CURVE",
"67.637 577.083 OFFCURVE",
"46.77 553.135 OFFCURVE",
"48.021 526.582 CURVE SMOOTH",
"54.274 392.608 OFFCURVE",
"23.595 63.656 OFFCURVE",
"23.674 63.448 CURVE",
"20.884 36.123 OFFCURVE",
"41.087 13.664 OFFCURVE",
"68.101 14.025 CURVE",
"67.782 14 LINE"
);
}
);
width = 580;
}
);
unicode = 004B;
},
{
glyphname = L;
lastChange = "2019-04-30 11:56:39 +0000";
layers = (
{
layerId = "E3FE0EAA-297C-4773-BA15-BC72883F874E";
paths = (
{
closed = 1;
nodes = (
"171.97 -24.095 OFFCURVE",
"239.268 -13.546 OFFCURVE",
"335.809 1.521 CURVE SMOOTH",
"410.814 13.06 OFFCURVE",
"491.249 25.84 OFFCURVE",
"555.422 29.992 CURVE SMOOTH",
"586.643 32.046 OFFCURVE",
"610.652 58.703 OFFCURVE",
"608.556 90.566 CURVE SMOOTH",
"606.471 120.279 OFFCURVE",
"581.309 142.244 OFFCURVE",
"546.982 143.656 CURVE",
"480.677 139.187 OFFCURVE",
"397.573 126.373 OFFCURVE",
"318.362 113.973 CURVE SMOOTH",
"258.108 104.495 OFFCURVE",
"178.918 92.419 OFFCURVE",
"136.812 89.94 CURVE",
"141.943 131.499 OFFCURVE",
"156.188 204.986 OFFCURVE",
"167.294 261.649 CURVE SMOOTH",
"188.314 368.795 OFFCURVE",
"211.87 488.779 OFFCURVE",
"217.368 577.858 CURVE SMOOTH",
"219.283 609.045 OFFCURVE",
"196.075 636.197 OFFCURVE",
"164.422 638.304 CURVE",
"128.695 639.259 OFFCURVE",
"105.743 619.056 OFFCURVE",
"103.646 585.067 CURVE SMOOTH",
"98.541 503.389 OFFCURVE",
"75.597 386.029 OFFCURVE",
"55.506 283.531 CURVE SMOOTH",
"14.783 75.1 OFFCURVE",
"12.889 42.419 OFFCURVE",
"34.116 10.509 CURVE SMOOTH",
"50.882 -14.345 OFFCURVE",
"75.245 -24.095 OFFCURVE",
"123.491 -24.095 CURVE SMOOTH"
);
}
);
width = 550;
}
);
unicode = 004C;
},
{
glyphname = M;
lastChange = "2019-04-30 11:56:39 +0000";
layers = (
{
layerId = "E3FE0EAA-297C-4773-BA15-BC72883F874E";
paths = (
{
closed = 1;
nodes = (
"79.172 20 OFFCURVE",
"84.05 20.813 OFFCURVE",
"88.795 22.258 CURVE SMOOTH",
"114.414 29.654 OFFCURVE",
"129.104 58.383 OFFCURVE",
"121.379 86.26 CURVE SMOOTH",
"114.095 112.295 OFFCURVE",
"129.147 172.457 OFFCURVE",
"167.867 288.368 CURVE SMOOTH",
"175.962 312.169 OFFCURVE",
"183.003 333.776 OFFCURVE",
"189.253 353.69 CURVE SMOOTH",
"192.736 364.786 LINE",
"254.925 307.978 OFFCURVE",
"324.676 278.789 OFFCURVE",
"397.414 278.789 CURVE SMOOTH",
"489.389 278.789 OFFCURVE",
"575.261 308.756 OFFCURVE",
"652.283 367.918 CURVE",
"616.686 168.621 OFFCURVE",
"620.534 75.333 OFFCURVE",
"668.046 39.154 CURVE SMOOTH",
"691.233 21.301 OFFCURVE",
"723.611 25.153 OFFCURVE",
"740.108 47.445 CURVE SMOOTH",
"754.467 66.818 OFFCURVE",
"752.829 94.693 OFFCURVE",
"735.578 113.439 CURVE",
"720.36 161.7 OFFCURVE",
"756.319 376.071 OFFCURVE",
"798.365 544.873 CURVE SMOOTH",
"804.744 570.39 OFFCURVE",
"790.675 597.24 OFFCURVE",
"765.474 607.436 CURVE SMOOTH",
"740.587 617.337 OFFCURVE",
"713.365 607.643 OFFCURVE",
"701.91 584.937 CURVE SMOOTH",
"700.8 582.78 OFFCURVE",
"595.929 382.148 OFFCURVE",
"392.41 382.148 CURVE SMOOTH",
"327.191 382.148 OFFCURVE",
"263.735 421.578 OFFCURVE",
"216.258 490.734 CURVE",
"215.387 517.916 OFFCURVE",
"208.607 538.004 OFFCURVE",
"194.469 555.32 CURVE SMOOTH",
"176.852 576.746 OFFCURVE",
"137.526 589.276 OFFCURVE",
"118.495 580.192 CURVE SMOOTH",
"98.738 570.763 OFFCURVE",
"85.921 538.063 OFFCURVE",
"92.551 512.669 CURVE SMOOTH",
"95.528 501.055 OFFCURVE",
"101.78 485.84 OFFCURVE",
"111.224 468.211 CURVE",
"104.943 430.598 OFFCURVE",
"83.324 366.417 OFFCURVE",
"69.699 325.515 CURVE SMOOTH",
"31.39 211.222 OFFCURVE",
"0.635 119.449 OFFCURVE",
"24.86 53.584 CURVE SMOOTH",
"32.425 33.039 OFFCURVE",
"51.229 20 OFFCURVE",
"73.343 20 CURVE SMOOTH"
);
}
);
width = 790;
}
);
unicode = 004D;
},
{
glyphname = N;
lastChange = "2019-04-30 13:18:14 +0000";
layers = (
{
layerId = "E3FE0EAA-297C-4773-BA15-BC72883F874E";
paths = (
{
closed = 1;
nodes = (
"87.535 19.712 OFFCURVE",
"91.779 19.993 OFFCURVE",
"97.083 21.074 CURVE SMOOTH",
"125.508 27.853 OFFCURVE",
"142.209 55.618 OFFCURVE",
"135.761 83.466 CURVE SMOOTH",
"126.044 125.431 OFFCURVE",
"127.548 199.053 OFFCURVE",
"140.568 309.165 CURVE SMOOTH",
"149.606 383.249 LINE",
"130.281 386.171 LINE",
"186.631 149.987 OFFCURVE",
"266.16 29.877 OFFCURVE",
"365.444 28.144 CURVE SMOOTH",
"389.987 27.716 OFFCURVE",
"412.562 38.193 OFFCURVE",
"431.748 58.126 CURVE SMOOTH",
"503.863 132.722 OFFCURVE",
"549.536 396.154 OFFCURVE",
"535.445 663.162 CURVE SMOOTH",
"533.83 693.306 OFFCURVE",
"508.92 714.734 OFFCURVE",
"481.398 712.36 CURVE SMOOTH",
"452.448 709.863 OFFCURVE",
"430.042 687.115 OFFCURVE",
"431.61 657.662 CURVE SMOOTH",
"443.654 427.72 OFFCURVE",
"404.483 143.022 OFFCURVE",
"359.488 135.219 CURVE SMOOTH",
"298.285 124.606 OFFCURVE",
"220.997 398.348 OFFCURVE",
"194.826 636.752 CURVE SMOOTH",
"191.958 662.511 OFFCURVE",
"171.188 681.584 OFFCURVE",
"146 682.966 CURVE SMOOTH",
"118.167 684.125 OFFCURVE",
"98.213 668.468 OFFCURVE",
"92.408 642.324 CURVE SMOOTH",
"82.564 598.379 OFFCURVE",
"-1.076 213.316 OFFCURVE",
"34.454 60.065 CURVE SMOOTH",
"39.889 36.446 OFFCURVE",
"60.576 20.183 OFFCURVE",
"84.102 19.772 CURVE SMOOTH"
);
}
);
width = 540;
}
);
unicode = 004E;
},
{
glyphname = O;
lastChange = "2019-04-30 11:56:39 +0000";
layers = (
{
layerId = "E3FE0EAA-297C-4773-BA15-BC72883F874E";
paths = (
{
closed = 1;
nodes = (
"243.281 3.327 OFFCURVE",
"245.508 3.327 OFFCURVE",
"247.681 3.5 CURVE",
"476.061 11.611 OFFCURVE",
"628.564 125.992 OFFCURVE",
"680.714 327.894 CURVE SMOOTH",
"711.045 445.36 OFFCURVE",
"701.911 556.026 OFFCURVE",
"655.602 634.53 CURVE SMOOTH",
"629.995 677.89 OFFCURVE",
"597.052 704.829 OFFCURVE",
"557.464 714.976 CURVE SMOOTH",
"537.003 720.091 OFFCURVE",
"516.698 713.124 OFFCURVE",
"502.387 695.113 CURVE",
"477.225 730.708 OFFCURVE",
"435.461 746.662 OFFCURVE",
"383.991 740.532 CURVE SMOOTH",
"229.517 721.282 OFFCURVE",
"38.461 522.494 OFFCURVE",
"10.277 348.981 CURVE SMOOTH",
"-7.095 242.002 OFFCURVE",
"15.524 147.994 OFFCURVE",
"74.442 81.297 CURVE SMOOTH",
"118.691 31.195 OFFCURVE",
"178.056 3.327 OFFCURVE",
"240.35 3.327 CURVE SMOOTH"
);
},
{
closed = 1;
nodes = (
"213.939 101.77 OFFCURVE",
"179.313 117.836 OFFCURVE",
"151.584 149.333 CURVE SMOOTH",
"113.914 191.973 OFFCURVE",
"99.679 258.041 OFFCURVE",
"111.792 332.52 CURVE SMOOTH",
"127.013 425.896 OFFCURVE",
"203.967 532.296 OFFCURVE",
"303.092 597.678 CURVE SMOOTH",
"347.982 627.249 OFFCURVE",
"397.162 645.218 OFFCURVE",
"417.725 637.094 CURVE",
"427.978 608.782 OFFCURVE",
"459.991 595.87 OFFCURVE",
"486.447 607.407 CURVE SMOOTH",
"493.227 610.351 OFFCURVE",
"499.989 615.173 OFFCURVE",
"504.191 620.248 CURVE",
"518.008 620.987 LINE",
"522.496 618.566 OFFCURVE",
"526.955 616.559 OFFCURVE",
"531.752 615.36 CURVE SMOOTH",
"544.098 612.113 OFFCURVE",
"557.422 598.43 OFFCURVE",
"566.998 582.232 CURVE SMOOTH",
"598.526 528.908 OFFCURVE",
"603.687 440.953 OFFCURVE",
"581.046 353.589 CURVE SMOOTH",
"540.241 195.373 OFFCURVE",
"428.508 113.273 OFFCURVE",
"245.233 106.334 CURVE"
);
}
);
width = 620;
}
);
unicode = 004F;
},
{
glyphname = P;
lastChange = "2019-04-30 11:56:39 +0000";
layers = (
{
layerId = "E3FE0EAA-297C-4773-BA15-BC72883F874E";
paths = (
{
closed = 1;
nodes = (
"240.384 365.548 OFFCURVE",
"242.189 365.667 OFFCURVE",
"244.588 365.828 CURVE",
"462.072 390.245 OFFCURVE",
"596.645 491.714 OFFCURVE",
"586.351 626.39 CURVE SMOOTH",
"581.67 687.82 OFFCURVE",
"553.731 736.045 OFFCURVE",
"503.557 769.363 CURVE SMOOTH",
"384.73 848.543 OFFCURVE",
"182.969 815.804 OFFCURVE",
"90.391 786.839 CURVE SMOOTH",
"62.648 778.146 OFFCURVE",
"46.445 748.953 OFFCURVE",
"54.13 721.697 CURVE SMOOTH",
"61.53 695.3 OFFCURVE",
"89.547 680.662 OFFCURVE",
"117.293 688.934 CURVE SMOOTH",
"202.194 715.661 OFFCURVE",
"367.379 733.78 OFFCURVE",
"443.776 682.876 CURVE SMOOTH",
"468.064 666.771 OFFCURVE",
"481.48 643.592 OFFCURVE",
"483.762 613.817 CURVE SMOOTH",
"489.127 542.57 OFFCURVE",
"381.66 483.918 OFFCURVE",
"237.89 468.152 CURVE SMOOTH",
"209.162 464.897 OFFCURVE",
"187.647 439.096 OFFCURVE",
"189.834 410.503 CURVE SMOOTH",
"191.819 384.842 OFFCURVE",
"212.712 365.548 OFFCURVE",
"238.548 365.548 CURVE SMOOTH"
);
},
{
closed = 1;
nodes = (
"182.42 13.613 OFFCURVE",
"204.938 32.329 OFFCURVE",
"209.847 57.683 CURVE SMOOTH",
"232.676 176.135 OFFCURVE",
"293.467 636.055 OFFCURVE",
"282.073 751.129 CURVE SMOOTH",
"279.36 778.697 OFFCURVE",
"255.073 797.728 OFFCURVE",
"226.331 794.636 CURVE SMOOTH",
"197.726 790.571 OFFCURVE",
"176.876 764.401 OFFCURVE",
"179.663 736.086 CURVE SMOOTH",
"188.741 644.037 OFFCURVE",
"134.95 208.121 OFFCURVE",
"108.715 72.407 CURVE SMOOTH",
"103.345 44.443 OFFCURVE",
"121.442 18.413 OFFCURVE",
"149.173 14.237 CURVE",
"151.461 13.752 OFFCURVE",
"153.874 13.613 OFFCURVE",
"156.88 13.613 CURVE SMOOTH"
);
}
);
width = 570;
}
);
rightKerningGroup = T;
unicode = 0050;
},
{
glyphname = Q;
lastChange = "2019-04-30 11:56:39 +0000";
layers = (
{
layerId = "E3FE0EAA-297C-4773-BA15-BC72883F874E";
paths = (
{
closed = 1;
nodes = (
"280.032 3.31 OFFCURVE",
"282.388 3.397 OFFCURVE",
"285.025 3.495 CURVE SMOOTH",
"518.818 11.845 OFFCURVE",
"667.713 118.146 OFFCURVE",
"718.235 312.111 CURVE SMOOTH",
"746.493 420.021 OFFCURVE",
"730.947 534.412 OFFCURVE",
"675.202 628.932 CURVE SMOOTH",
"640.043 688.59 OFFCURVE",
"595.004 728.076 OFFCURVE",
"549.273 739.689 CURVE SMOOTH",
"528.52 745.043 OFFCURVE",
"508.893 737.553 OFFCURVE",
"494.235 718.036 CURVE",
"463.683 756.571 OFFCURVE",
"407 764.638 OFFCURVE",
"336.328 739.968 CURVE SMOOTH",
"180.136 685.861 OFFCURVE",
"45.448 528.64 OFFCURVE",
"19.236 367.446 CURVE SMOOTH",
"1.977 261.724 OFFCURVE",
"26.973 165.571 OFFCURVE",
"90.189 93.939 CURVE SMOOTH",
"140.656 36.606 OFFCURVE",
"209.651 3.31 OFFCURVE",
"277.673 3.31 CURVE SMOOTH"
);
},
{
closed = 1;
nodes = (
"618.197 -58.701 OFFCURVE",
"626.831 -56.131 OFFCURVE",
"635.382 -50.634 CURVE SMOOTH",
"658.016 -35.866 OFFCURVE",
"664.57 -4.839 OFFCURVE",
"649.766 17.925 CURVE SMOOTH",
"579.105 126.313 OFFCURVE",
"497.023 258.089 OFFCURVE",
"482.88 288.899 CURVE",
"481.13 299.835 OFFCURVE",
"476.632 308.665 OFFCURVE",
"468.727 316.57 CURVE SMOOTH",
"449.461 335.613 OFFCURVE",
"417.777 335.453 OFFCURVE",
"398.692 316.145 CURVE SMOOTH",
"363.922 280.961 OFFCURVE",
"365.317 273.305 OFFCURVE",
"566.711 -36.224 CURVE SMOOTH",
"576.043 -50.479 OFFCURVE",
"591.249 -58.701 OFFCURVE",
"608.337 -58.701 CURVE SMOOTH"
);
},
{
closed = 1;
nodes = (
"241.689 101.843 OFFCURVE",
"195.157 124.692 OFFCURVE",
"164.476 159.437 CURVE SMOOTH",
"121.872 207.782 OFFCURVE",
"104.823 277.033 OFFCURVE",
"116.969 351.563 CURVE SMOOTH",
"132.941 449.223 OFFCURVE",
"200.083 545.904 OFFCURVE",
"295.573 609.026 CURVE SMOOTH",
"336.746 636.266 OFFCURVE",
"383.053 655.068 OFFCURVE",
"410.095 655.068 CURVE",
"440.937 637.73 OFFCURVE",
"474.556 636.089 OFFCURVE",
"493.571 665.736 CURVE",
"500.424 658.35 LINE SMOOTH",
"507.242 650.997 OFFCURVE",
"515.139 646.233 OFFCURVE",
"524.833 643.764 CURVE SMOOTH",
"544.607 638.623 OFFCURVE",
"571.194 610.304 OFFCURVE",
"589.822 578.63 CURVE SMOOTH",
"631.07 508.658 OFFCURVE",
"643.405 417.382 OFFCURVE",
"622.459 337.158 CURVE SMOOTH",
"582.693 184.921 OFFCURVE",
"472.534 109.38 OFFCURVE",
"281.441 102.422 CURVE SMOOTH"
);
}
);
width = 670;
}
);
unicode = 0051;
},
{
glyphname = R;
lastChange = "2019-04-30 11:56:39 +0000";
layers = (
{
layerId = "E3FE0EAA-297C-4773-BA15-BC72883F874E";
paths = (
{
closed = 1;
nodes = (
"618.35 54.925 OFFCURVE",
"640.551 72.739 OFFCURVE",
"646.081 97.187 CURVE SMOOTH",
"652.367 124.968 OFFCURVE",
"635.399 151.571 OFFCURVE",
"608.161 156.845 CURVE SMOOTH",
"404.769 196.329 OFFCURVE",
"291.184 269.794 OFFCURVE",
"264.03 299.455 CURVE",
"275.685 305.91 LINE",
"289.252 314.328 OFFCURVE",
"305.786 324.118 OFFCURVE",
"319.079 331.93 CURVE SMOOTH",
"422.93 393.29 OFFCURVE",
"554.682 471.26 OFFCURVE",
"549.662 588.572 CURVE SMOOTH",
"546.329 665.79 OFFCURVE",
"493.255 726.143 OFFCURVE",
"402.017 755.467 CURVE SMOOTH",
"277.562 795.824 OFFCURVE",
"121.237 768.369 OFFCURVE",
"58.07 694.879 CURVE SMOOTH",
"38.962 672.897 OFFCURVE",
"40.699 640.465 OFFCURVE",
"61.628 622.727 CURVE SMOOTH",
"82.287 604.633 OFFCURVE",
"115.327 607.85 OFFCURVE",
"134.335 629.847 CURVE SMOOTH",
"169.202 669.848 OFFCURVE",
"284.959 683.421 OFFCURVE",
"366.114 657.592 CURVE SMOOTH",
"416.709 641.065 OFFCURVE",
"445.365 613.945 OFFCURVE",
"446.754 579.062 CURVE SMOOTH",
"448.459 538.128 OFFCURVE",
"389.47 490.358 OFFCURVE",
"269.791 419.851 CURVE SMOOTH",
"196.143 376.168 OFFCURVE",
"156.06 352.492 OFFCURVE",
"151.786 308.119 CURVE SMOOTH",
"143.16 216.538 OFFCURVE",
"332.803 104.48 OFFCURVE",
"583.713 55.862 CURVE SMOOTH",
"586.566 55.288 OFFCURVE",
"589.666 54.925 OFFCURVE",
"593.442 54.925 CURVE SMOOTH"
);
},
{
closed = 1;
nodes = (
"115.267 18.467 OFFCURVE",
"137.567 36.769 OFFCURVE",
"142.732 61.841 CURVE SMOOTH",
"184.458 262.423 OFFCURVE",
"199.663 534.295 OFFCURVE",
"195.953 617.554 CURVE SMOOTH",
"194.574 647.749 OFFCURVE",
"173.625 666.033 OFFCURVE",
"142.537 663.965 CURVE SMOOTH",
"114.116 661.679 OFFCURVE",
"91.719 636.4 OFFCURVE",
"93.024 607.824 CURVE SMOOTH",
"96.247 538.036 OFFCURVE",
"82.703 273.814 OFFCURVE",
"42.124 77.929 CURVE SMOOTH",
"36.255 50.239 OFFCURVE",
"53.81 24.053 OFFCURVE",
"81.3 19.289 CURVE SMOOTH",
"83.975 18.799 OFFCURVE",
"86.908 18.467 OFFCURVE",
"89.937 18.467 CURVE SMOOTH"
);
}
);
width = 550;
}
);
unicode = 0052;
},
{
glyphname = S;
lastChange = "2019-04-30 12:03:53 +0000";
layers = (
{
layerId = "E3FE0EAA-297C-4773-BA15-BC72883F874E";
paths = (
{
closed = 1;
nodes = (
"216.083 16.729 OFFCURVE",
"224.645 16.878 OFFCURVE",
"232.914 17.127 CURVE SMOOTH",
"336.147 20.232 OFFCURVE",
"403.662 38.511 OFFCURVE",
"449.702 75.315 CURVE SMOOTH",
"480.709 100.1 OFFCURVE",
"497.512 140.496 OFFCURVE",
"493.322 182.402 CURVE SMOOTH",
"489.397 221.652 OFFCURVE",
"472.146 257.098 OFFCURVE",
"439.729 289.438 CURVE SMOOTH",
"417.698 311.416 OFFCURVE",
"398.816 326.603 OFFCURVE",
"352.263 359.557 CURVE SMOOTH",
"266.914 419.973 OFFCURVE",
"209.406 466.042 OFFCURVE",
"211.347 535.636 CURVE SMOOTH",
"212.596 559.435 OFFCURVE",
"220.182 581.514 OFFCURVE",
"233.711 603.77 CURVE SMOOTH",
"244.465 621.457 OFFCURVE",
"262.467 637.667 OFFCURVE",
"285.086 648.131 CURVE SMOOTH",
"324.197 666.222 OFFCURVE",
"381.083 653.984 OFFCURVE",
"432.169 614.688 CURVE SMOOTH",
"456.496 595.976 OFFCURVE",
"477.831 600.248 OFFCURVE",
"496.678 624.748 CURVE SMOOTH",
"512.381 645.162 OFFCURVE",
"507.815 686.837 OFFCURVE",
"488.263 701.877 CURVE SMOOTH",
"442.287 737.242 OFFCURVE",
"401.513 756.31 OFFCURVE",
"361.418 763.162 CURVE SMOOTH",
"319.421 770.336 OFFCURVE",
"283.781 765.23 OFFCURVE",
"246.459 747.966 CURVE SMOOTH",
"211.653 731.864 OFFCURVE",
"180.523 702.732 OFFCURVE",
"155.1 660.913 CURVE SMOOTH",
"134.799 627.52 OFFCURVE",
"121.548 583.915 OFFCURVE",
"119.439 540.481 CURVE SMOOTH",
"116.563 481.171 OFFCURVE",
"139.592 417.625 OFFCURVE",
"180.309 370.653 CURVE SMOOTH",
"217.962 327.216 OFFCURVE",
"258.206 298.728 OFFCURVE",
"299.108 269.775 CURVE SMOOTH",
"326.976 250.048 OFFCURVE",
"358.654 227.623 OFFCURVE",
"374.753 211.563 CURVE SMOOTH",
"392.781 193.577 OFFCURVE",
"400.813 181.243 OFFCURVE",
"401.419 172.703 CURVE",
"398.426 172.703 LINE",
"400.565 172.703 LINE",
"395.656 162.409 LINE",
"391.851 158.049 OFFCURVE",
"344.196 132.181 OFFCURVE",
"241.524 127.501 CURVE SMOOTH",
"160.087 123.793 OFFCURVE",
"87.651 134.358 OFFCURVE",
"69.414 140.436 CURVE SMOOTH",
"43.972 148.916 OFFCURVE",
"21.541 136.591 OFFCURVE",
"11.228 105.651 CURVE SMOOTH",
"2.192 78.544 OFFCURVE",
"17.276 43.763 OFFCURVE",
"40.321 36.082 CURVE SMOOTH",
"77.089 23.826 OFFCURVE",
"139.835 16.729 OFFCURVE",
"206.456 16.729 CURVE SMOOTH"
);
}
);
width = 486;
}
);
unicode = 0053;
},
{
glyphname = T;
lastChange = "2019-04-30 11:56:39 +0000";
layers = (
{
layerId = "E3FE0EAA-297C-4773-BA15-BC72883F874E";
paths = (
{
closed = 1;
nodes = (
"288.86 2.739 OFFCURVE",
"309.044 22.887 OFFCURVE",
"309.044 47.378 CURVE SMOOTH",
"309.044 197.007 OFFCURVE",
"384.777 709.227 OFFCURVE",
"385.517 714.319 CURVE SMOOTH",
"389.122 738.781 OFFCURVE",
"371.944 759.706 OFFCURVE",
"347.452 763.067 CURVE",
"324.378 767.783 OFFCURVE",
"300.77 752.271 OFFCURVE",
"297.119 727.498 CURVE SMOOTH",
"293.956 706.098 OFFCURVE",
"219.58 203.551 OFFCURVE",
"219.58 47.378 CURVE SMOOTH",
"219.58 22.887 OFFCURVE",
"239.764 2.739 OFFCURVE",
"264.312 2.739 CURVE SMOOTH"
);
},
{
closed = 1;
nodes = (
"353.196 674.242 OFFCURVE",
"463.669 678.69 OFFCURVE",
"550.536 682.131 CURVE SMOOTH",
"600.549 684.176 OFFCURVE",
"641.315 685.868 OFFCURVE",
"663.866 685.868 CURVE SMOOTH",
"688.415 685.868 OFFCURVE",
"708.598 706.015 OFFCURVE",
"708.598 730.507 CURVE SMOOTH",
"708.598 754.998 OFFCURVE",
"688.414 775.146 OFFCURVE",
"663.866 775.146 CURVE SMOOTH",
"641.012 775.146 OFFCURVE",
"599.39 773.489 OFFCURVE",
"546.935 771.35 CURVE SMOOTH",
"402 765.674 OFFCURVE",
"158.034 755.635 OFFCURVE",
"53.013 774.436 CURVE SMOOTH",
"28.557 779.036 OFFCURVE",
"5.723 763.067 OFFCURVE",
"1.256 738.303 CURVE SMOOTH",
"-3.079 714.204 OFFCURVE",
"13.199 690.862 OFFCURVE",
"37.333 686.584 CURVE SMOOTH",
"89.213 677.242 OFFCURVE",
"166.671 674.242 OFFCURVE",
"251.663 674.242 CURVE SMOOTH"
);
}
);
width = 560;
}
);
rightKerningGroup = T;
unicode = 0054;
},
{
glyphname = U;
lastChange = "2019-04-30 11:56:39 +0000";
layers = (
{
layerId = "E3FE0EAA-297C-4773-BA15-BC72883F874E";
paths = (
{
closed = 1;
nodes = (
"335.615 9.045 OFFCURVE",
"497.966 297.544 OFFCURVE",
"518.007 334.514 CURVE SMOOTH",
"590.303 467.516 OFFCURVE",
"599.374 541.364 OFFCURVE",
"553.747 577.93 CURVE SMOOTH",
"530.618 596.576 OFFCURVE",
"496.198 592.693 OFFCURVE",
"477.597 569.354 CURVE SMOOTH",
"463.659 552.082 OFFCURVE",
"461.587 528.614 OFFCURVE",
"472.615 508.874 CURVE",
"468.54 452.126 OFFCURVE",
"346.833 227.316 OFFCURVE",
"227.188 143.009 CURVE SMOOTH",
"214.401 133.989 OFFCURVE",
"203.662 128.145 OFFCURVE",
"196.744 124.381 CURVE SMOOTH",
"184.382 117.654 OFFCURVE",
"181.994 113.249 OFFCURVE",
"183.573 113 CURVE",
"174.442 112.13 LINE SMOOTH",
"123.864 107.537 OFFCURVE",
"156.17 351.742 OFFCURVE",
"226.783 574.007 CURVE SMOOTH",
"235.788 602.369 OFFCURVE",
"220.563 632.769 OFFCURVE",
"191.506 642.068 CURVE SMOOTH",
"163.155 651.258 OFFCURVE",
"132.491 635.365 OFFCURVE",
"123.514 606.864 CURVE SMOOTH",
"14.045 262.857 OFFCURVE",
"13.858 53.224 OFFCURVE",
"124.734 16.219 CURVE SMOOTH",
"138.719 11.448 OFFCURVE",
"153.316 9.045 OFFCURVE",
"168.207 9.045 CURVE SMOOTH"
);
}
);
width = 490;
}
);
unicode = 0055;
},
{
glyphname = V;
lastChange = "2019-04-30 11:56:39 +0000";
layers = (
{
layerId = "E3FE0EAA-297C-4773-BA15-BC72883F874E";
paths = (
{
closed = 1;
nodes = (
"267.995 -11.408 OFFCURVE",
"305.779 42.627 OFFCURVE",
"501.177 419.785 CURVE SMOOTH",
"542.779 500.061 OFFCURVE",
"584.477 580.715 OFFCURVE",
"621.5 648.493 CURVE SMOOTH",
"634.879 673.021 OFFCURVE",
"625.694 704.251 OFFCURVE",
"601.154 717.636 CURVE SMOOTH",
"576.531 730.927 OFFCURVE",
"545.741 721.846 OFFCURVE",
"532.15 697.212 CURVE SMOOTH",
"494.993 628.93 OFFCURVE",
"452.912 547.886 OFFCURVE",
"410.92 466.636 CURVE SMOOTH",
"352.768 354.536 OFFCURVE",
"277.899 209.856 OFFCURVE",
"231.954 135.269 CURVE",
"217.764 186.919 OFFCURVE",
"200.379 264.238 OFFCURVE",
"187.505 321.637 CURVE SMOOTH",
"165.238 421.057 OFFCURVE",
"142.46 522.787 OFFCURVE",
"121.098 582.564 CURVE SMOOTH",
"111.685 608.977 OFFCURVE",
"82.676 622.724 OFFCURVE",
"56.012 613.388 CURVE SMOOTH",
"29.823 603.939 OFFCURVE",
"15.749 575.296 OFFCURVE",
"25.367 548.365 CURVE SMOOTH",
"44.628 494.475 OFFCURVE",
"66.969 394.632 OFFCURVE",
"88.258 299.32 CURVE SMOOTH",
"146.122 41.018 OFFCURVE",
"159.172 8.782 OFFCURVE",
"199.204 -6.006 CURVE SMOOTH",
"209.453 -9.716 OFFCURVE",
"217.474 -11.408 OFFCURVE",
"224.11 -11.408 CURVE SMOOTH"
);
}
);
width = 440;
}
);
unicode = 0056;
},
{
glyphname = W;
lastChange = "2019-04-30 11:56:39 +0000";
layers = (
{
layerId = "E3FE0EAA-297C-4773-BA15-BC72883F874E";
paths = (
{
closed = 1;
nodes = (
"507.826 -0.056 OFFCURVE",
"547.424 18.713 OFFCURVE",
"583.595 56.409 CURVE SMOOTH",
"680.813 157.726 OFFCURVE",
"734.82 382.827 OFFCURVE",
"723.555 642.328 CURVE SMOOTH",
"722.153 674.636 OFFCURVE",
"698.698 695.987 OFFCURVE",
"669.943 691.633 CURVE",
"639.699 690.147 OFFCURVE",
"616.565 664.971 OFFCURVE",
"617.894 635.269 CURVE SMOOTH",
"627.743 415.162 OFFCURVE",
"583.235 207.29 OFFCURVE",
"507.873 128.708 CURVE SMOOTH",
"501.981 122.564 OFFCURVE",
"494.797 116.533 OFFCURVE",
"487.837 112.083 CURVE",
"440.04 71.979 OFFCURVE",
"395.916 201.642 OFFCURVE",
"392.847 331.306 CURVE SMOOTH",
"392.238 357.029 OFFCURVE",
"373.119 378.077 OFFCURVE",
"347.571 381.066 CURVE",
"322.2 385.719 OFFCURVE",
"298.283 370.524 OFFCURVE",
"289.563 343.953 CURVE SMOOTH",
"262.283 260.831 OFFCURVE",
"215.946 163.085 OFFCURVE",
"187.009 134.538 CURVE",
"158.283 184.379 OFFCURVE",
"154.211 436.358 OFFCURVE",
"188.902 624.769 CURVE SMOOTH",
"194.159 653.321 OFFCURVE",
"175.2 680.446 OFFCURVE",
"146.6 685.296 CURVE SMOOTH",
"116.729 690.361 OFFCURVE",
"90.208 671.56 OFFCURVE",
"84.722 641.368 CURVE SMOOTH",
"83.653 635.485 OFFCURVE",
"-15.424 66.413 OFFCURVE",
"156.673 23.611 CURVE SMOOTH",
"212.55 9.713 OFFCURVE",
"263.321 45.839 OFFCURVE",
"316.955 139.505 CURVE",
"348.7 45.259 OFFCURVE",
"397.017 -0.056 OFFCURVE",
"464.811 -0.056 CURVE SMOOTH"
);
}
);
width = 710;
}
);
unicode = 0057;
},
{
glyphname = X;
lastChange = "2019-04-30 11:56:39 +0000";
layers = (
{
layerId = "E3FE0EAA-297C-4773-BA15-BC72883F874E";
paths = (
{
closed = 1;
nodes = (
"91.988 28.789 OFFCURVE",
"106.556 35.604 OFFCURVE",
"117.379 48.563 CURVE SMOOTH",
"130.272 63.995 OFFCURVE",
"432.019 427.684 OFFCURVE",
"557.47 705.496 CURVE SMOOTH",
"569.946 733.014 OFFCURVE",
"557.53 765.864 OFFCURVE",
"529.997 778.243 CURVE SMOOTH",
"502.045 790.698 OFFCURVE",
"469.723 778.502 OFFCURVE",
"457.21 750.761 CURVE SMOOTH",
"337.931 486.769 OFFCURVE",
"35.799 122.443 OFFCURVE",
"32.652 118.787 CURVE SMOOTH",
"13.369 95.587 OFFCURVE",
"16.494 61.099 OFFCURVE",
"39.901 41.509 CURVE SMOOTH",
"50.214 32.915 OFFCURVE",
"61.62 28.789 OFFCURVE",
"75.112 28.789 CURVE SMOOTH"
);
},
{
closed = 1;
nodes = (
"462.461 20 OFFCURVE",
"470.412 21.808 OFFCURVE",
"477.959 25.442 CURVE SMOOTH",
"505.694 38.947 OFFCURVE",
"516.595 71.849 OFFCURVE",
"503.401 99.095 CURVE SMOOTH",
"221.471 680.532 LINE SMOOTH",
"208.171 707.855 OFFCURVE",
"175.506 719.173 OFFCURVE",
"147.896 705.978 CURVE SMOOTH",
"120.213 692.498 OFFCURVE",
"109.312 659.596 OFFCURVE",
"122.506 632.35 CURVE SMOOTH",
"404.436 50.914 LINE SMOOTH",
"413.797 31.769 OFFCURVE",
"432.649 20 OFFCURVE",
"454.018 20 CURVE SMOOTH"
);
}
);
width = 510;
}
);
unicode = 0058;
},
{
glyphname = Y;
lastChange = "2019-04-30 11:56:39 +0000";
layers = (
{
layerId = "E3FE0EAA-297C-4773-BA15-BC72883F874E";
paths = (
{
closed = 1;
nodes = (
"210.436 18.973 OFFCURVE",
"234.75 42.474 OFFCURVE",
"235.826 72.158 CURVE SMOOTH",
"235.923 75.643 OFFCURVE",
"250.809 434.309 OFFCURVE",
"478.624 776.082 CURVE SMOOTH",
"495.375 801.173 OFFCURVE",
"488.488 835.605 OFFCURVE",
"463.415 852.225 CURVE SMOOTH",
"438.266 869.228 OFFCURVE",
"403.881 862.373 OFFCURVE",
"387.123 837.13 CURVE SMOOTH",
"140.817 467.766 OFFCURVE",
"126.385 91.585 OFFCURVE",
"125.8 75.586 CURVE SMOOTH",
"124.881 45.586 OFFCURVE",
"148.606 20.221 OFFCURVE",
"179.517 19.035 CURVE",
"187.46 18.109 OFFCURVE",
"178.796 18.973 OFFCURVE",
"180.813 18.973 CURVE SMOOTH"
);
},
{
closed = 1;
nodes = (
"262.317 403.348 OFFCURVE",
"274.376 408 OFFCURVE",
"285.029 417.565 CURVE SMOOTH",
"307.472 437.657 OFFCURVE",
"309.301 472.678 OFFCURVE",
"289.083 495.175 CURVE SMOOTH",
"52.077 758.644 LINE SMOOTH",
"31.302 781.598 OFFCURVE",
"-3.125 782.915 OFFCURVE",
"-25.619 762.635 CURVE SMOOTH",
"-48.092 742.516 OFFCURVE",
"-49.921 707.495 OFFCURVE",
"-29.702 685 CURVE SMOOTH",
"207.303 421.529 LINE SMOOTH",
"218.086 409.612 OFFCURVE",
"232.16 403.348 OFFCURVE",
"248.196 403.348 CURVE SMOOTH"
);
}
);
width = 360;
}
);
unicode = 0059;
},
{
glyphname = Z;
lastChange = "2019-04-30 11:56:39 +0000";
layers = (
{
layerId = "E3FE0EAA-297C-4773-BA15-BC72883F874E";
paths = (
{
closed = 1;
nodes = (
"348.935 1.973 OFFCURVE",
"408.162 12.191 OFFCURVE",
"429.428 16.348 CURVE SMOOTH",
"459.645 22.232 OFFCURVE",
"478.519 51.119 OFFCURVE",
"472.805 80.833 CURVE SMOOTH",
"467.011 110.226 OFFCURVE",
"437.925 129.857 OFFCURVE",
"408.217 124.323 CURVE SMOOTH",
"290.092 101.637 OFFCURVE",
"167.567 110.779 OFFCURVE",
"132.167 148.454 CURVE SMOOTH",
"118.36 163.466 OFFCURVE",
"117.399 187.439 OFFCURVE",
"124.863 215.778 CURVE SMOOTH",
"169.545 385.469 OFFCURVE",
"439.984 481.487 OFFCURVE",
"537.613 503.721 CURVE SMOOTH",
"565.647 510.085 OFFCURVE",
"584.049 536.983 OFFCURVE",
"579.881 565.507 CURVE SMOOTH",
"575.55 594.091 OFFCURVE",
"550.469 614.044 OFFCURVE",
"520.89 612.183 CURVE SMOOTH",
"502.279 610.906 OFFCURVE",
"343.451 591.823 OFFCURVE",
"220.109 612.183 CURVE SMOOTH",
"188.786 617.353 OFFCURVE",
"161.7 598.663 OFFCURVE",
"156.064 567.815 CURVE SMOOTH",
"148.513 526.485 OFFCURVE",
"197.408 484.159 OFFCURVE",
"246.94 505.247 CURVE",
"121.355 432.067 OFFCURVE",
"44.883 343.842 OFFCURVE",
"18.626 243.791 CURVE SMOOTH",
"0.23 174.313 OFFCURVE",
"11.988 116.034 OFFCURVE",
"51.991 73.156 CURVE SMOOTH",
"95.982 26.277 OFFCURVE",
"174.573 1.973 OFFCURVE",
"280.336 1.973 CURVE SMOOTH"
);
}
);
width = 440;
}
);
unicode = 005A;
},
{
glyphname = a;
lastChange = "2019-04-30 11:56:39 +0000";
layers = (
{
anchors = (
{
name = bottom;
position = "{254.972, 0}";
},
{
name = ogonek;
position = "{461.505, 10}";
},
{
name = top;
position = "{300.731, 450}";
}
);
layerId = "E3FE0EAA-297C-4773-BA15-BC72883F874E";
paths = (
{
closed = 1;
nodes = (
"239.795 15.346 OFFCURVE",
"299.184 33.019 OFFCURVE",
"340.59 73.552 CURVE",
"341.63 72.005 OFFCURVE",
"342.643 70.497 OFFCURVE",
"343.618 69.088 CURVE",
"387.229 23.731 OFFCURVE",
"459.948 9.017 OFFCURVE",
"535.179 24.622 CURVE SMOOTH",
"556.889 29.125 OFFCURVE",
"563.988 51.56 OFFCURVE",
"550.238 77.062 CURVE SMOOTH",
"535.247 104.868 OFFCURVE",
"500.083 124.98 OFFCURVE",
"477.605 119.54 CURVE SMOOTH",
"474.629 118.819 OFFCURVE",
"449.26 113.51 OFFCURVE",
"441.194 112.728 CURVE",
"426.834 113.753 LINE",
"411.682 116.765 OFFCURVE",
"419.391 187.157 OFFCURVE",
"437.125 245.764 CURVE",
"451.172 277.568 OFFCURVE",
"459.263 300.159 OFFCURVE",
"460.194 308.978 CURVE",
"469.334 329.753 OFFCURVE",
"452.794 361.13 OFFCURVE",
"423.976 375.639 CURVE",
"390.028 396.462 OFFCURVE",
"343.618 383.221 OFFCURVE",
"350.688 345.337 CURVE",
"343.053 377.696 OFFCURVE",
"303.19 401.648 OFFCURVE",
"275.47 404.99 CURVE SMOOTH",
"187.307 415.616 OFFCURVE",
"85.985 345.092 OFFCURVE",
"44.367 245.776 CURVE SMOOTH",
"15.399 176.65 OFFCURVE",
"18.513 123.155 OFFCURVE",
"53.303 79.49 CURVE SMOOTH",
"85.867 38.619 OFFCURVE",
"129.197 17.573 OFFCURVE",
"185.763 15.297 CURVE",
"187.69 15.346 OFFCURVE",
"189.314 15.346 OFFCURVE",
"190.854 15.346 CURVE SMOOTH"
);
},
{
closed = 1;
nodes = (
"110.069 143.892 OFFCURVE",
"117.918 189.724 OFFCURVE",
"132.65 214.44 CURVE SMOOTH",
"174.336 284.377 OFFCURVE",
"224.168 350.148 OFFCURVE",
"331.817 278.156 CURVE",
"301.182 127.818 OFFCURVE",
"204.274 86.201 OFFCURVE",
"122.78 117.311 CURVE"
);
}
);
width = 524.03;
}
);
leftKerningGroup = a;
unicode = 0061;
},
{
glyphname = b;
lastChange = "2019-04-30 11:56:39 +0000";
layers = (
{
layerId = "E3FE0EAA-297C-4773-BA15-BC72883F874E";
paths = (
{
closed = 1;
nodes = (
"434.043 9 OFFCURVE",
"517.907 111.426 OFFCURVE",
"520.013 232.092 CURVE SMOOTH",
"520.772 275.566 OFFCURVE",
"510.03 312.599 OFFCURVE",
"488.407 341.476 CURVE SMOOTH",
"462.192 376.321 OFFCURVE",
"423.242 394.645 OFFCURVE",
"375.048 394.645 CURVE SMOOTH",
"294.915 394.645 OFFCURVE",
"220.032 360.383 OFFCURVE",
"148.308 290.903 CURVE",
"167.215 437.321 OFFCURVE",
"167.897 533.984 OFFCURVE",
"151.408 568.155 CURVE SMOOTH",
"139.358 593.332 OFFCURVE",
"108.364 604.43 OFFCURVE",
"84.043 592.438 CURVE SMOOTH",
"57.309 579.151 OFFCURVE",
"47.35 550.052 OFFCURVE",
"60.056 525.908 CURVE",
"72.78 490.953 OFFCURVE",
"52.898 296.034 OFFCURVE",
"17.365 98.328 CURVE SMOOTH",
"12.923 73.562 OFFCURVE",
"27.526 49.708 OFFCURVE",
"51.322 42.765 CURVE SMOOTH",
"78.256 34.687 OFFCURVE",
"108.022 50.454 OFFCURVE",
"115.659 81.471 CURVE",
"170.944 33.437 OFFCURVE",
"245.053 9 OFFCURVE",
"335.706 9 CURVE SMOOTH"
);
},
{
closed = 1;
nodes = (
"267.976 109 OFFCURVE",
"205.288 130.531 OFFCURVE",
"171.534 168.178 CURVE",
"232.963 250.158 OFFCURVE",
"303.125 294.645 OFFCURVE",
"372.43 294.645 CURVE SMOOTH",
"400.695 294.645 OFFCURVE",
"420.579 264.099 OFFCURVE",
"420.005 231.22 CURVE SMOOTH",
"418.933 169.842 OFFCURVE",
"379.912 109 OFFCURVE",
"338.324 109 CURVE SMOOTH"
);
}
);
width = 510;
}
);
unicode = 0062;
},
{
glyphname = c;
lastChange = "2019-04-30 11:56:39 +0000";
layers = (
{
anchors = (
{
name = bottom;
position = "{142.378, 0}";
},
{
name = top;
position = "{205.622, 450}";
}
);
layerId = "E3FE0EAA-297C-4773-BA15-BC72883F874E";
paths = (
{
closed = 1;
nodes = (
"270.714 16 OFFCURVE",
"334.644 50.424 OFFCURVE",
"341.884 54.52 CURVE SMOOTH",
"363.62 66.68 OFFCURVE",
"371.252 93.691 OFFCURVE",
"359.195 115.682 CURVE SMOOTH",
"346.728 138.108 OFFCURVE",
"317.48 146.029 OFFCURVE",
"295.809 132.387 CURVE",
"294.411 131.728 OFFCURVE",
"245.515 106.469 OFFCURVE",
"176.342 106.469 CURVE SMOOTH",
"149.412 106.469 OFFCURVE",
"126.983 116 OFFCURVE",
"111.882 134.043 CURVE SMOOTH",
"95.491 153.503 OFFCURVE",
"87.02 185.321 OFFCURVE",
"91.513 210.629 CURVE SMOOTH",
"97.363 244.356 OFFCURVE",
"140.394 299.422 OFFCURVE",
"179.589 323.983 CURVE SMOOTH",
"205.118 340.01 OFFCURVE",
"231.252 345.616 OFFCURVE",
"253.75 339.565 CURVE SMOOTH",
"277.604 332.358 OFFCURVE",
"302.728 346.306 OFFCURVE",
"309.645 370.614 CURVE SMOOTH",
"316.511 394.514 OFFCURVE",
"302.513 419.662 OFFCURVE",
"278.583 426.47 CURVE SMOOTH",
"230.792 440.413 OFFCURVE",
"181.007 431.712 OFFCURVE",
"131.617 400.652 CURVE SMOOTH",
"68.553 361.134 OFFCURVE",
"12.799 285.74 OFFCURVE",
"2.39 226.244 CURVE SMOOTH",
"-6.919 173.673 OFFCURVE",
"8.316 116.634 OFFCURVE",
"42.541 75.848 CURVE SMOOTH",
"75.249 36.881 OFFCURVE",
"121.862 16 OFFCURVE",
"176.342 16 CURVE SMOOTH"
);
}
);
width = 348;
}
);
leftKerningGroup = a;
unicode = 0063;
},
{
glyphname = d;
lastChange = "2019-04-30 11:56:39 +0000";
layers = (
{
layerId = "E3FE0EAA-297C-4773-BA15-BC72883F874E";
paths = (
{
closed = 1;
nodes = (
"604.608 19.905 OFFCURVE",
"617.442 55.575 OFFCURVE",
"606.322 81.746 CURVE SMOOTH",
"568.794 169.894 OFFCURVE",
"587.984 350.786 OFFCURVE",
"614.208 481.133 CURVE",
"624.15 518.688 OFFCURVE",
"629.714 547.39 OFFCURVE",
"631.268 556.094 CURVE SMOOTH",
"636.618 584.522 OFFCURVE",
"619.077 614.396 OFFCURVE",
"593.907 619.958 CURVE SMOOTH",
"567.963 626.137 OFFCURVE",
"543.887 611.376 OFFCURVE",
"535.781 580.153 CURVE SMOOTH",
"533.704 572.452 OFFCURVE",
"527.219 546.717 OFFCURVE",
"519.399 508.831 CURVE",
"499.072 431.364 OFFCURVE",
"473.777 365.459 OFFCURVE",
"447.369 321.678 CURVE",
"437.84 321.678 LINE",
"387.631 375.618 OFFCURVE",
"340.204 400.586 OFFCURVE",
"278.226 403.834 CURVE SMOOTH",
"228.59 406.436 OFFCURVE",
"165.769 373.442 OFFCURVE",
"106.055 311.721 CURVE SMOOTH",
"79.936 284.819 OFFCURVE",
"17.491 212.472 OFFCURVE",
"13.396 134.334 CURVE SMOOTH",
"9.68 63.42 OFFCURVE",
"55.346 16.133 OFFCURVE",
"133.249 12.051 CURVE SMOOTH",
"263.42 5.229 OFFCURVE",
"369.81 59.826 OFFCURVE",
"477.08 190.664 CURVE",
"487.715 190.664 LINE",
"490.247 128.495 OFFCURVE",
"500.171 76.235 OFFCURVE",
"516.146 38.727 CURVE SMOOTH",
"528.065 10.526 OFFCURVE",
"553.131 -1.811 OFFCURVE",
"580.536 9.663 CURVE SMOOTH"
);
},
{
closed = 1;
nodes = (
"111.118 124.664 LINE",
"107.331 177.013 OFFCURVE",
"217.023 293.264 OFFCURVE",
"271.858 294.026 CURVE",
"312.537 292.17 OFFCURVE",
"344.466 274.112 OFFCURVE",
"377.681 233.482 CURVE",
"299.597 149.104 OFFCURVE",
"218.555 115.926 OFFCURVE",
"116.59 124.664 CURVE"
);
}
);
width = 660;
}
);
leftKerningGroup = a;
unicode = 0064;
},
{
glyphname = e;
lastChange = "2019-04-30 12:03:55 +0000";
layers = (
{
anchors = (
{
name = bottom;
position = "{133.378, 0}";
},
{
name = ogonek;
position = "{274.784, 10}";
},
{
name = top;
position = "{196.622, 450}";
}
);
layerId = "E3FE0EAA-297C-4773-BA15-BC72883F874E";
paths = (
{
closed = 1;
nodes = (
"245.615 7.907 OFFCURVE",
"310.077 36.048 OFFCURVE",
"317.434 39.391 CURVE SMOOTH",
"338.486 48.96 OFFCURVE",
"347.925 74.131 OFFCURVE",
"338.355 95.185 CURVE SMOOTH",
"328.786 116.237 OFFCURVE",
"303.614 125.676 OFFCURVE",
"282.56 116.107 CURVE SMOOTH",
"281.938 115.825 OFFCURVE",
"227.868 92.177 OFFCURVE",
"155.918 92.177 CURVE SMOOTH",
"134.96 92.177 OFFCURVE",
"120.2 101.194 OFFCURVE",
"109.494 120.011 CURVE SMOOTH",
"99.98 136.733 OFFCURVE",
"94.629 159.894 OFFCURVE",
"94.3 185.724 CURVE",
"135.091 200.331 OFFCURVE",
"175.493 220.875 OFFCURVE",
"211.077 244.7 CURVE SMOOTH",
"277.108 288.912 OFFCURVE",
"307.606 330.627 OFFCURVE",
"304.105 369.117 CURVE SMOOTH",
"302.028 391.962 OFFCURVE",
"289.018 410.161 OFFCURVE",
"266.699 421.198 CURVE SMOOTH",
"251.603 428.663 OFFCURVE",
"232.47 432.543 OFFCURVE",
"207.594 433.015 CURVE SMOOTH",
"172.968 433.672 OFFCURVE",
"141.945 424.75 OFFCURVE",
"113.058 405.83 CURVE SMOOTH",
"88.159 389.522 OFFCURVE",
"67.051 366.881 OFFCURVE",
"49.879 337.986 CURVE SMOOTH",
"34.691 312.431 OFFCURVE",
"23.34 283.292 OFFCURVE",
"16.538 251.228 CURVE",
"-5.2 244.465 OFFCURVE",
"-17.144 223.613 OFFCURVE",
"-12.828 202.358 CURVE SMOOTH",
"-10.1 188.926 OFFCURVE",
"-2.822 179.706 OFFCURVE",
"10.48 172.368 CURVE",
"12.626 136.494 OFFCURVE",
"21.523 104.22 OFFCURVE",
"36.249 78.337 CURVE SMOOTH",
"48.638 56.563 OFFCURVE",
"64.417 39.83 OFFCURVE",
"83.943 27.7 CURVE SMOOTH",
"105.332 14.411 OFFCURVE",
"128.937 7.907 OFFCURVE",
"155.918 7.907 CURVE SMOOTH"
);
}
);
width = 320;
}
);
leftKerningGroup = a;
unicode = 0065;
},
{
glyphname = f;
lastChange = "2019-04-30 11:56:39 +0000";
layers = (
{
layerId = "E3FE0EAA-297C-4773-BA15-BC72883F874E";
paths = (
{
closed = 1;
nodes = (
"169.29 -88.453 LINE SMOOTH",
"194.439 -87.904 OFFCURVE",
"216.508 -66.389 OFFCURVE",
"217.74 -40.792 CURVE SMOOTH",
"234.333 310.276 OFFCURVE",
"289.723 570.335 OFFCURVE",
"376.996 655.834 CURVE SMOOTH",
"405.87 683.379 OFFCURVE",
"431.898 682.462 OFFCURVE",
"433.345 682.633 CURVE",
"451.111 681.012 OFFCURVE",
"475.438 644.03 OFFCURVE",
"486.313 613.369 CURVE SMOOTH",
"494.277 591.118 OFFCURVE",
"519.212 580.866 OFFCURVE",
"543.002 590.465 CURVE SMOOTH",
"567.304 600.424 OFFCURVE",
"580.459 627.432 OFFCURVE",
"572.485 650.553 CURVE SMOOTH",
"564.734 672.807 OFFCURVE",
"525.853 772.524 OFFCURVE",
"445.185 772.524 CURVE SMOOTH",
"398.45 772.524 OFFCURVE",
"355.627 754.306 OFFCURVE",
"317.91 718.293 CURVE SMOOTH",
"213.628 618.859 OFFCURVE",
"150.941 369.354 OFFCURVE",
"127.011 -45.834 CURVE SMOOTH",
"125.874 -69.61 OFFCURVE",
"143.833 -88.453 OFFCURVE",
"167.825 -88.453 CURVE SMOOTH"
);
},
{
closed = 1;
nodes = (
"448.642 231.664 OFFCURVE",
"460.189 232.083 OFFCURVE",
"469.074 232.775 CURVE SMOOTH",
"494.743 234.719 OFFCURVE",
"515.742 257.321 OFFCURVE",
"515.577 282.727 CURVE SMOOTH",
"515.438 305.739 OFFCURVE",
"495.089 324.12 OFFCURVE",
"470.721 322.938 CURVE SMOOTH",
"379.639 317.187 OFFCURVE",
"62.874 348.65 OFFCURVE",
"-1.341 365.039 CURVE SMOOTH",
"-24.921 370.969 OFFCURVE",
"-51.834 355.326 OFFCURVE",
"-59.784 330.792 CURVE SMOOTH",
"-67.473 306.856 OFFCURVE",
"-55.044 283.15 OFFCURVE",
"-31.913 277.232 CURVE SMOOTH",
"32.781 260.697 OFFCURVE",
"306.955 231.664 OFFCURVE",
"434.121 231.664 CURVE SMOOTH"
);
}
);
width = 360;
}
);
unicode = 0066;
},
{
glyphname = g;
lastChange = "2019-04-30 12:05:34 +0000";
layers = (
{
layerId = "E3FE0EAA-297C-4773-BA15-BC72883F874E";
paths = (
{
closed = 1;
nodes = (
"210.448 -514.903 OFFCURVE",
"223.798 -513.24 OFFCURVE",
"238.616 -509.988 CURVE SMOOTH",
"344.308 -487.337 OFFCURVE",
"420.745 -388.99 OFFCURVE",
"428.381 -290.311 CURVE SMOOTH",
"468.029 222.099 LINE SMOOTH",
"469.847 243.469 OFFCURVE",
"458.3 266.731 OFFCURVE",
"441.544 274.097 CURVE SMOOTH",
"423.292 282.118 OFFCURVE",
"404.725 280.154 OFFCURVE",
"393.022 268.763 CURVE SMOOTH",
"305.1 183.328 OFFCURVE",
"202.843 124.572 OFFCURVE",
"151.583 131.114 CURVE SMOOTH",
"127.187 134.227 OFFCURVE",
"109.439 162.956 OFFCURVE",
"116.552 185.949 CURVE SMOOTH",
"126.904 219.413 OFFCURVE",
"204.186 285.794 OFFCURVE",
"259.052 272.631 CURVE",
"289.513 252.918 OFFCURVE",
"318.575 251.386 OFFCURVE",
"342.737 269.854 CURVE SMOOTH",
"366.373 294.686 OFFCURVE",
"368.512 336.044 OFFCURVE",
"348.378 355.424 CURVE SMOOTH",
"310.043 392.485 OFFCURVE",
"257.042 398.232 OFFCURVE",
"187.893 371.921 CURVE SMOOTH",
"99.308 337.987 OFFCURVE",
"25.064 262.881 OFFCURVE",
"14.039 192.963 CURVE SMOOTH",
"6.73 146.486 OFFCURVE",
"19.908 95.307 OFFCURVE",
"47.511 62.704 CURVE SMOOTH",
"111.304 -12.765 OFFCURVE",
"263.041 23.369 OFFCURVE",
"408.209 147.103 CURVE",
"364.03 194.877 LINE",
"340.097 -112.009 OFFCURVE",
"324.459 -291.506 OFFCURVE",
"324.658 -299.856 CURVE SMOOTH",
"324.779 -341.173 OFFCURVE",
"280.907 -385.81 OFFCURVE",
"227.725 -397.356 CURVE SMOOTH",
"187.314 -405.679 OFFCURVE",
"158.539 -389.889 OFFCURVE",
"147.522 -354.707 CURVE SMOOTH",
"138.769 -325.707 OFFCURVE",
"113.843 -311.78 OFFCURVE",
"84.704 -322.339 CURVE SMOOTH",
"56.853 -332.505 OFFCURVE",
"39.069 -368.997 OFFCURVE",
"47.904 -397.915 CURVE SMOOTH",
"70.859 -473.438 OFFCURVE",
"124.413 -514.903 OFFCURVE",
"195.435 -514.903 CURVE SMOOTH"
);
}
);
width = 500;
}
);
leftKerningGroup = a;
unicode = 0067;
},
{
glyphname = h;
lastChange = "2019-04-30 11:56:39 +0000";
layers = (
{
layerId = "E3FE0EAA-297C-4773-BA15-BC72883F874E";
paths = (
{
closed = 1;
nodes = (
"69.385 15.676 OFFCURVE",
"84.024 24.082 OFFCURVE",
"92.49 38.531 CURVE SMOOTH",
"126.651 96.979 OFFCURVE",
"251.605 268.703 OFFCURVE",
"363.245 268.703 CURVE SMOOTH",
"386.32 268.703 OFFCURVE",
"403.383 261.994 OFFCURVE",
"415.269 247.811 CURVE SMOOTH",
"440.129 218.063 OFFCURVE",
"448.129 146.955 OFFCURVE",
"436.596 83.445 CURVE SMOOTH",
"432.129 58.616 OFFCURVE",
"448.835 34.407 OFFCURVE",
"473.56 29.885 CURVE SMOOTH",
"498.858 24.971 OFFCURVE",
"522.453 41.233 OFFCURVE",
"527.102 66.655 CURVE SMOOTH",
"530.216 83.196 OFFCURVE",
"554.143 224.799 OFFCURVE",
"486.184 306.515 CURVE SMOOTH",
"422.333 383.443 OFFCURVE",
"269.458 371.273 OFFCURVE",
"164.762 270.082 CURVE",
"203.026 420.087 OFFCURVE",
"212.18 527.575 OFFCURVE",
"192.835 582.934 CURVE SMOOTH",
"184.451 606.907 OFFCURVE",
"158.13 619.61 OFFCURVE",
"134.225 611.228 CURVE SMOOTH",
"110.349 602.879 OFFCURVE",
"97.588 576.428 OFFCURVE",
"105.92 552.6 CURVE SMOOTH",
"131.375 479.763 OFFCURVE",
"63.997 229.783 OFFCURVE",
"9.399 77.26 CURVE SMOOTH",
"1.365 54.853 OFFCURVE",
"11.68 30.121 OFFCURVE",
"33.27 20.025 CURVE SMOOTH",
"39.588 17.053 OFFCURVE",
"45.751 15.676 OFFCURVE",
"52.698 15.676 CURVE SMOOTH"
);
}
);
width = 549;
}
);
unicode = 0068;
},
{
glyphname = i;
lastChange = "2019-04-30 11:56:39 +0000";
layers = (
{
layerId = "E3FE0EAA-297C-4773-BA15-BC72883F874E";
paths = (
{
closed = 1;
nodes = (
"116.233 18.666 OFFCURVE",
"139.017 38 OFFCURVE",
"143.456 64.636 CURVE SMOOTH",
"185.118 314.606 LINE SMOOTH",
"190.193 345.058 OFFCURVE",
"169.709 372.933 OFFCURVE",
"139.908 377.899 CURVE SMOOTH",
"109.454 382.975 OFFCURVE",
"81.581 362.493 OFFCURVE",
"76.614 332.69 CURVE SMOOTH",
"34.953 82.72 LINE SMOOTH",
"29.877 52.267 OFFCURVE",
"50.36 24.393 OFFCURVE",
"80.162 19.426 CURVE SMOOTH",
"82.824 18.983 OFFCURVE",
"85.979 18.666 OFFCURVE",
"89.294 18.666 CURVE SMOOTH"
);
},
{
closed = 1;
nodes = (
"232.157 539.949 OFFCURVE",
"255.04 559.582 OFFCURVE",
"259.229 586.507 CURVE SMOOTH",
"263.973 617.013 OFFCURVE",
"243.189 644.663 OFFCURVE",
"213.335 649.307 CURVE SMOOTH",
"177.373 654.901 LINE SMOOTH",
"146.866 659.646 OFFCURVE",
"119.217 638.862 OFFCURVE",
"114.572 609.007 CURVE SMOOTH",
"109.828 578.501 OFFCURVE",
"130.612 550.851 OFFCURVE",
"160.466 546.207 CURVE SMOOTH",
"196.428 540.613 LINE SMOOTH",
"198.878 540.232 OFFCURVE",
"201.868 539.949 OFFCURVE",
"204.975 539.949 CURVE SMOOTH"
);
}
);
width = 207.63;
}
);
unicode = 0069;
},
{
glyphname = idotless;
lastChange = "2019-04-30 11:56:39 +0000";
layers = (
{
anchors = (
{
name = bottom;
position = "{64.378, 0}";
},
{
name = ogonek;
position = "{142.784, 10}";
},
{
name = top;
position = "{127.622, 450}";
}
);
layerId = "E3FE0EAA-297C-4773-BA15-BC72883F874E";
paths = (
{
closed = 1;
nodes = (
"116.233 18.666 OFFCURVE",
"139.017 38 OFFCURVE",
"143.456 64.636 CURVE SMOOTH",
"185.118 314.606 LINE SMOOTH",
"190.193 345.058 OFFCURVE",
"169.709 372.933 OFFCURVE",
"139.908 377.899 CURVE SMOOTH",
"109.454 382.975 OFFCURVE",
"81.581 362.493 OFFCURVE",
"76.614 332.69 CURVE SMOOTH",
"34.953 82.72 LINE SMOOTH",
"29.877 52.267 OFFCURVE",
"50.36 24.393 OFFCURVE",
"80.162 19.426 CURVE SMOOTH",
"82.824 18.983 OFFCURVE",
"85.979 18.666 OFFCURVE",
"89.294 18.666 CURVE SMOOTH"
);
}
);
width = 207.63;
}
);
leftMetricsKey = i;
widthMetricsKey = i;
unicode = 0131;
},
{
glyphname = j;
lastChange = "2019-04-30 11:56:39 +0000";
layers = (
{
layerId = "E3FE0EAA-297C-4773-BA15-BC72883F874E";
paths = (
{
closed = 1;
nodes = (
"-101.403 -492.313 OFFCURVE",
"-71.202 -490.524 OFFCURVE",
"-41.871 -479.525 CURVE SMOOTH",
"1.215 -463.369 OFFCURVE",
"40.316 -428.221 OFFCURVE",
"76.05 -373.235 CURVE SMOOTH",
"106.608 -326.215 OFFCURVE",
"134.961 -263.94 OFFCURVE",
"160.231 -187.626 CURVE SMOOTH",
"208.668 -42.064 OFFCURVE",
"245.281 155.396 OFFCURVE",
"265.38 380.877 CURVE SMOOTH",
"268.061 410.972 OFFCURVE",
"246.231 437.797 OFFCURVE",
"215.475 440.538 CURVE SMOOTH",
"185.382 443.218 OFFCURVE",
"158.552 421.386 OFFCURVE",
"155.813 390.634 CURVE SMOOTH",
"136.585 174.752 OFFCURVE",
"102.093 -13.268 OFFCURVE",
"55.807 -153.048 CURVE SMOOTH",
"17.312 -269.299 OFFCURVE",
"-33.7 -358.978 OFFCURVE",
"-80.492 -376.528 CURVE SMOOTH",
"-88.802 -379.645 OFFCURVE",
"-98.866 -380.006 OFFCURVE",
"-107.395 -377.504 CURVE SMOOTH",
"-119.968 -373.816 OFFCURVE",
"-134.743 -364.082 OFFCURVE",
"-149.267 -350.153 CURVE SMOOTH",
"-171.55 -328.786 OFFCURVE",
"-206.121 -329.978 OFFCURVE",
"-227.031 -351.785 CURVE SMOOTH",
"-248.4 -374.068 OFFCURVE",
"-247.208 -408.637 OFFCURVE",
"-225.401 -429.549 CURVE SMOOTH",
"-197.335 -456.463 OFFCURVE",
"-168.292 -474.277 OFFCURVE",
"-138.352 -483.057 CURVE SMOOTH",
"-136.069 -483.728 OFFCURVE",
"-134 -484.286 OFFCURVE",
"-131.708 -484.85 CURVE SMOOTH"
);
},
{
closed = 1;
nodes = (
"246.1 617.442 OFFCURVE",
"254.871 617.482 OFFCURVE",
"263.835 619.759 CURVE SMOOTH",
"299.112 628.716 LINE SMOOTH",
"328.395 636.151 OFFCURVE",
"346.481 665.637 OFFCURVE",
"338.883 695.561 CURVE SMOOTH",
"331.447 724.845 OFFCURVE",
"301.961 742.932 OFFCURVE",
"272.039 735.332 CURVE SMOOTH",
"236.763 726.375 LINE SMOOTH",
"206.84 718.776 OFFCURVE",
"189.555 688.814 OFFCURVE",
"196.992 659.531 CURVE SMOOTH",
"202.047 639.62 OFFCURVE",
"217.233 624.552 OFFCURVE",
"237.206 619.633 CURVE SMOOTH"
);
}
);
width = 277.72;
}
);
unicode = 006A;
},
{
glyphname = k;
lastChange = "2019-04-30 12:53:31 +0000";
layers = (
{
layerId = "E3FE0EAA-297C-4773-BA15-BC72883F874E";
paths = (
{
closed = 1;
nodes = (
"51.514 19.84 OFFCURVE",
"52.876 19.901 OFFCURVE",
"54.688 20.066 CURVE SMOOTH",
"86.22 22.933 OFFCURVE",
"119.585 40.604 OFFCURVE",
"165.181 79.028 CURVE SMOOTH",
"194.608 103.826 OFFCURVE",
"228.819 137.462 OFFCURVE",
"266.359 178.364 CURVE SMOOTH",
"329.587 247.252 OFFCURVE",
"381.667 314.071 OFFCURVE",
"383.874 316.909 CURVE SMOOTH",
"402.42 340.754 OFFCURVE",
"398.595 375.125 OFFCURVE",
"374.23 394.082 CURVE SMOOTH",
"350.389 412.631 OFFCURVE",
"316.009 408.81 OFFCURVE",
"297.049 384.448 CURVE SMOOTH",
"296.583 383.849 OFFCURVE",
"249.61 323.61 OFFCURVE",
"192.97 261.133 CURVE SMOOTH",
"190.005 257.862 OFFCURVE",
"186.051 253.62 OFFCURVE",
"181.727 248.843 CURVE SMOOTH",
"110.746 170.437 LINE",
"148.693 315.999 OFFCURVE",
"190.137 485.352 OFFCURVE",
"190.04 562.627 CURVE SMOOTH",
"189.952 634.474 OFFCURVE",
"79.95 635.451 OFFCURVE",
"80.04 562.49 CURVE SMOOTH",
"80.118 500.398 OFFCURVE",
"65.785 399.725 OFFCURVE",
"38.762 270.637 CURVE SMOOTH",
"17.922 171.091 OFFCURVE",
"-3.291 89.546 OFFCURVE",
"-3.5 88.743 CURVE SMOOTH",
"-8.105 71.099 OFFCURVE",
"-4.025 53.18 OFFCURVE",
"7.757 39.281 CURVE SMOOTH",
"18.515 26.588 OFFCURVE",
"33.075 19.84 OFFCURVE",
"49.706 19.84 CURVE SMOOTH"
);
},
{
closed = 1;
nodes = (
"400.428 12.668 OFFCURVE",
"416.473 20.838 OFFCURVE",
"427.016 35.355 CURVE SMOOTH",
"444.769 59.802 OFFCURVE",
"439.812 94.035 OFFCURVE",
"414.831 112.176 CURVE SMOOTH",
"369.154 145.349 OFFCURVE",
"334.831 174.535 OFFCURVE",
"317.327 262.646 CURVE SMOOTH",
"311.311 292.928 OFFCURVE",
"282.295 311.765 OFFCURVE",
"252.666 305.876 CURVE SMOOTH",
"222.383 299.86 OFFCURVE",
"203.549 270.847 OFFCURVE",
"209.436 241.213 CURVE SMOOTH",
"234.363 115.735 OFFCURVE",
"287.627 68.608 OFFCURVE",
"350.195 23.17 CURVE SMOOTH",
"359.958 16.08 OFFCURVE",
"370.441 12.668 OFFCURVE",
"382.452 12.668 CURVE SMOOTH"
);
}
);
width = 422.84;
}
);
unicode = 006B;
},
{
glyphname = l;
lastChange = "2019-04-30 11:56:39 +0000";
layers = (
{
layerId = "E3FE0EAA-297C-4773-BA15-BC72883F874E";
paths = (
{
closed = 1;
nodes = (
"118.271 18.136 OFFCURVE",
"142.165 40.293 OFFCURVE",
"144.368 68.92 CURVE SMOOTH",
"145.678 85.96 OFFCURVE",
"140.162 100.315 OFFCURVE",
"127.476 113.069 CURVE",
"126.636 128.803 OFFCURVE",
"128.741 184.253 OFFCURVE",
"166.036 334.604 CURVE SMOOTH",
"189.921 430.887 OFFCURVE",
"216.288 517.788 OFFCURVE",
"216.626 518.899 CURVE SMOOTH",
"225.615 548.437 OFFCURVE",
"208.928 578.736 OFFCURVE",
"180.024 587.532 CURVE SMOOTH",
"151.12 596.329 OFFCURVE",
"120.381 580.463 OFFCURVE",
"111.393 550.929 CURVE SMOOTH",
"110.121 546.753 OFFCURVE",
"80.138 447.981 OFFCURVE",
"54.263 340.608 CURVE SMOOTH",
"38.653 275.824 OFFCURVE",
"28.079 222.443 OFFCURVE",
"22.462 181.09 CURVE SMOOTH",
"12.979 111.295 OFFCURVE",
"16.424 74.307 OFFCURVE",
"34.194 48.292 CURVE SMOOTH",
"46.458 30.338 OFFCURVE",
"64.233 19.922 OFFCURVE",
"85.312 18.3 CURVE SMOOTH",
"86.881 18.18 OFFCURVE",
"88.059 18.135 OFFCURVE",
"89.61 18.135 CURVE SMOOTH"
);
}
);
width = 216.88;
}
);
unicode = 006C;
},
{
glyphname = m;
lastChange = "2019-04-30 11:56:39 +0000";
layers = (
{
layerId = "E3FE0EAA-297C-4773-BA15-BC72883F874E";
paths = (
{
closed = 1;
nodes = (
"778.755 16.85 OFFCURVE",
"797.434 30.96 OFFCURVE",
"803.463 51.991 CURVE SMOOTH",
"845.225 197.395 OFFCURVE",
"847.7 328.198 OFFCURVE",
"805.514 389.284 CURVE SMOOTH",
"785.871 417.774 OFFCURVE",
"757.538 434.192 OFFCURVE",
"722.976 437.116 CURVE SMOOTH",
"647.689 442.594 OFFCURVE",
"569.459 401.066 OFFCURVE",
"493.679 314.527 CURVE",
"487.314 332.911 LINE SMOOTH",
"482.701 346.236 OFFCURVE",
"476.237 358.604 OFFCURVE",
"468.606 369.797 CURVE SMOOTH",
"441.254 409.723 OFFCURVE",
"397.512 433.035 OFFCURVE",
"340.364 437.095 CURVE SMOOTH",
"268.09 442.702 OFFCURVE",
"191.305 391.259 OFFCURVE",
"119.557 287.12 CURVE",
"128.419 320.985 LINE SMOOTH",
"138.852 357.563 OFFCURVE",
"109.401 386.773 OFFCURVE",
"77.047 383.906 CURVE SMOOTH",
"50.797 381.258 OFFCURVE",
"31.192 357.261 OFFCURVE",
"33.862 330.775 CURVE SMOOTH",
"43.697 233.378 OFFCURVE",
"13.687 81.339 OFFCURVE",
"13.374 79.774 CURVE SMOOTH",
"8.432 55.065 OFFCURVE",
"23.188 30.706 OFFCURVE",
"47.291 23.757 CURVE SMOOTH",
"71.59 16.867 OFFCURVE",
"97.012 29.407 OFFCURVE",
"106.183 52.844 CURVE SMOOTH",
"167.215 210.594 OFFCURVE",
"265.457 340.463 OFFCURVE",
"329.681 340.463 CURVE SMOOTH",
"332.728 340.463 LINE",
"358.772 338.731 OFFCURVE",
"377.904 330.449 OFFCURVE",
"388.577 315.03 CURVE SMOOTH",
"411.023 282.023 OFFCURVE",
"407.39 210.569 OFFCURVE",
"383.914 124.307 CURVE",
"380.096 112.678 OFFCURVE",
"377.108 102.143 OFFCURVE",
"374.627 92.121 CURVE SMOOTH",
"368.546 66.707 OFFCURVE",
"383.709 41.118 OFFCURVE",
"409.084 34.191 CURVE SMOOTH",
"434.621 27.206 OFFCURVE",
"460.502 41.431 OFFCURVE",
"468.268 66.708 CURVE SMOOTH",
"471.868 78.47 OFFCURVE",
"474.579 87.988 OFFCURVE",
"476.75 96.19 CURVE",
"520.248 223.063 OFFCURVE",
"643.911 354.52 OFFCURVE",
"715.689 342.387 CURVE",
"750.973 330.13 OFFCURVE",
"744.501 199.123 OFFCURVE",
"710.266 78.742 CURVE SMOOTH",
"702.968 53.092 OFFCURVE",
"717.962 26.029 OFFCURVE",
"743.479 18.749 CURVE SMOOTH",
"747.68 17.529 OFFCURVE",
"751.853 16.85 OFFCURVE",
"756.961 16.85 CURVE SMOOTH"
);
}
);
width = 860;
}
);
unicode = 006D;
},
{
glyphname = n;
lastChange = "2019-04-30 11:56:39 +0000";
layers = (
{
layerId = "E3FE0EAA-297C-4773-BA15-BC72883F874E";
paths = (
{
closed = 1;
nodes = (
"89.631 4.81 OFFCURVE",
"108.303 16.59 OFFCURVE",
"117.562 35.469 CURVE SMOOTH",
"161.474 125.219 OFFCURVE",
"288.225 318.333 OFFCURVE",
"393.515 318.333 CURVE SMOOTH",
"412.559 318.333 OFFCURVE",
"427.497 311.844 OFFCURVE",
"438.683 298.577 CURVE SMOOTH",
"470.617 261.069 OFFCURVE",
"481.474 161.633 OFFCURVE",
"466.63 68.079 CURVE SMOOTH",
"462.214 40.203 OFFCURVE",
"481.02 14.849 OFFCURVE",
"508.645 11.348 CURVE SMOOTH",
"536.534 7.941 OFFCURVE",
"563.802 28.589 OFFCURVE",
"568.245 56.584 CURVE SMOOTH",
"571.903 79.096 OFFCURVE",
"599.922 271.182 OFFCURVE",
"518.661 367.163 CURVE SMOOTH",
"488.326 402.998 OFFCURVE",
"447.918 421.19 OFFCURVE",
"398.502 421.19 CURVE SMOOTH",
"326.202 421.19 OFFCURVE",
"251.298 379.998 OFFCURVE",
"174.813 297.655 CURVE",
"173.504 333.036 LINE SMOOTH",
"173.075 344.607 OFFCURVE",
"172.003 355.317 OFFCURVE",
"170.126 363.916 CURVE SMOOTH",
"164.328 391.104 OFFCURVE",
"137.353 407.509 OFFCURVE",
"109.587 400.66 CURVE SMOOTH",
"81.408 393.66 OFFCURVE",
"63.445 365.409 OFFCURVE",
"69.426 337.603 CURVE SMOOTH",
"77.018 302.519 OFFCURVE",
"55.61 181.443 OFFCURVE",
"22.246 68.611 CURVE SMOOTH",
"14.6 42.828 OFFCURVE",
"27.533 16.529 OFFCURVE",
"52.046 7.726 CURVE SMOOTH",
"57.353 5.829 OFFCURVE",
"63.273 4.81 OFFCURVE",
"69.047 4.81 CURVE SMOOTH"
);
}
);
width = 610;
}
);
unicode = 006E;
},
{
glyphname = o;
lastChange = "2019-04-30 11:56:39 +0000";
layers = (
{
anchors = (
{
name = bottom;
position = "{216.378, 0}";
},
{
name = center;
position = "{248, 225}";
},
{
name = ogonek;
position = "{416.784, 10}";
},
{
name = top;
position = "{286.33, 471.843}";
},
{
name = topright;
position = "{508.172, 450}";
}
);
layerId = "E3FE0EAA-297C-4773-BA15-BC72883F874E";
paths = (
{
closed = 1;
nodes = (
"241.064 7.57 OFFCURVE",
"283.012 21.674 OFFCURVE",
"325.17 49.416 CURVE SMOOTH",
"365.351 75.859 OFFCURVE",
"404.358 114.227 OFFCURVE",
"435.02 157.514 CURVE SMOOTH",
"458.776 191.052 OFFCURVE",
"476.331 225.91 OFFCURVE",
"485.653 257.908 CURVE SMOOTH",
"497.83 299.708 OFFCURVE",
"496.213 335.736 OFFCURVE",
"481.048 364.974 CURVE SMOOTH",
"461.373 402.91 OFFCURVE",
"422.23 423.489 OFFCURVE",
"368.601 423.488 CURVE SMOOTH",
"352.138 423.447 OFFCURVE",
"333.642 414.696 OFFCURVE",
"321.899 400.21 CURVE",
"313.21 420.898 OFFCURVE",
"295.869 433.044 OFFCURVE",
"277.02 436.361 CURVE SMOOTH",
"241.914 442.536 OFFCURVE",
"206.235 436.934 OFFCURVE",
"171.738 419.783 CURVE SMOOTH",
"143.086 405.538 OFFCURVE",
"115.445 382.911 OFFCURVE",
"92.369 354.746 CURVE SMOOTH",
"65.163 321.543 OFFCURVE",
"44.171 280.431 OFFCURVE",
"33.646 239.759 CURVE SMOOTH",
"21.525 192.921 OFFCURVE",
"22.909 149.31 OFFCURVE",
"37.605 111.651 CURVE SMOOTH",
"59.769 54.851 OFFCURVE",
"108.974 18.98 OFFCURVE",
"178.826 9.117 CURVE SMOOTH",
"186.415 8.046 OFFCURVE",
"193.927 7.57 OFFCURVE",
"201.112 7.57 CURVE SMOOTH"
);
},
{
closed = 1;
nodes = (
"161.408 112.568 OFFCURVE",
"139.629 125.283 OFFCURVE",
"130.763 148.004 CURVE SMOOTH",
"124.052 165.197 OFFCURVE",
"124.007 189.782 OFFCURVE",
"130.456 214.704 CURVE SMOOTH",
"137.51 241.958 OFFCURVE",
"151.319 268.912 OFFCURVE",
"169.718 291.368 CURVE SMOOTH",
"193.763 320.712 OFFCURVE",
"223.819 338.748 OFFCURVE",
"249.538 338.748 CURVE SMOOTH",
"252.593 338.748 OFFCURVE",
"256.746 338.391 OFFCURVE",
"259.703 337.87 CURVE SMOOTH",
"280.171 334.271 OFFCURVE",
"298.686 342.532 OFFCURVE",
"315.487 363.293 CURVE",
"329.668 329.416 OFFCURVE",
"360.328 314.146 OFFCURVE",
"394.674 329.399 CURVE",
"394.942 299.396 OFFCURVE",
"389.181 278.925 OFFCURVE",
"377.229 254.82 CURVE SMOOTH",
"363.031 226.188 OFFCURVE",
"341.67 196.819 OFFCURVE",
"316.76 171.626 CURVE SMOOTH",
"274.216 128.599 OFFCURVE",
"225.902 103.457 OFFCURVE",
"192.803 108.135 CURVE SMOOTH"
);
}
);
width = 496.55;
}
);
leftKerningGroup = a;
unicode = 006F;
},
{
glyphname = odieresis;
lastChange = "2019-04-30 11:56:39 +0000";
layers = (
{
anchors = (
{
name = _top;
position = "{279.622, 450}";
},
{
name = top;
position = "{323.401, 761.509}";
}
);
components = (
{
name = o;
}
);
layerId = "E3FE0EAA-297C-4773-BA15-BC72883F874E";
paths = (
{
closed = 1;
nodes = (
"466.003 530.813 OFFCURVE",
"494.666 551 OFFCURVE",
"500.331 581.386 CURVE SMOOTH",
"505.003 606.724 OFFCURVE",
"521.797 683.44 OFFCURVE",
"519.913 734.819 CURVE SMOOTH",
"518.965 760.717 OFFCURVE",
"499.74 781.475 OFFCURVE",
"474.057 784.346 CURVE SMOOTH",
"471.261 784.658 OFFCURVE",
"468.088 784.708 OFFCURVE",
"464.749 784.605 CURVE SMOOTH",
"435.654 783.029 OFFCURVE",
"412.583 757.946 OFFCURVE",
"413.681 728.65 CURVE SMOOTH",
"414.758 698.291 OFFCURVE",
"406.158 654.004 OFFCURVE",
"395.818 598.402 CURVE SMOOTH",
"390.439 569.55 OFFCURVE",
"409.767 542.076 OFFCURVE",
"438.676 537.646 CURVE"
);
},
{
closed = 1;
nodes = (
"238.209 548.896 OFFCURVE",
"262.793 572.266 OFFCURVE",
"263.808 601.809 CURVE SMOOTH",
"267.825 724.054 LINE SMOOTH",
"268.654 751.141 OFFCURVE",
"248.792 774.109 OFFCURVE",
"221.919 777.114 CURVE SMOOTH",
"220.42 777.281 OFFCURVE",
"218.831 777.326 OFFCURVE",
"216.382 777.403 CURVE SMOOTH",
"187.093 777.82 OFFCURVE",
"162.509 754.45 OFFCURVE",
"161.493 724.905 CURVE SMOOTH",
"157.476 602.661 LINE SMOOTH",
"156.614 573.432 OFFCURVE",
"179.616 549.312 OFFCURVE",
"208.284 549.322 CURVE SMOOTH"
);
}
);
width = 496.55;
}
);
unicode = 00F6;
},
{
glyphname = p;
lastChange = "2019-04-30 11:56:39 +0000";
layers = (
{
layerId = "E3FE0EAA-297C-4773-BA15-BC72883F874E";
paths = (
{
closed = 1;
nodes = (
"278.339 0.125 OFFCURVE",
"301.556 1.991 OFFCURVE",
"323.856 5.485 CURVE SMOOTH",
"416.061 19.932 OFFCURVE",
"486.966 58.894 OFFCURVE",
"520.201 112.884 CURVE SMOOTH",
"533.202 134.003 OFFCURVE",
"540.396 159.144 OFFCURVE",
"541.268 186.687 CURVE SMOOTH",
"542.033 210.918 OFFCURVE",
"537.72 236.866 OFFCURVE",
"528.816 261.429 CURVE SMOOTH",
"519.541 287.016 OFFCURVE",
"505.272 311.19 OFFCURVE",
"487.726 331.06 CURVE SMOOTH",
"467.868 353.549 OFFCURVE",
"443.928 370.595 OFFCURVE",
"417.975 380.764 CURVE SMOOTH",
"370.78 399.254 OFFCURVE",
"317.556 397.509 OFFCURVE",
"251.452 375.084 CURVE SMOOTH",
"200.506 357.8 OFFCURVE",
"141.361 327.957 OFFCURVE",
"65.195 280.775 CURVE SMOOTH",
"40.521 265.49 OFFCURVE",
"34.059 231.891 OFFCURVE",
"51.077 205.806 CURVE SMOOTH",
"59.978 192.161 OFFCURVE",
"72.613 183.513 OFFCURVE",
"89.687 179.225 CURVE",
"86.205 151.105 LINE",
"72.971 147.797 OFFCURVE",
"63.321 141.72 OFFCURVE",
"55.941 131.824 CURVE SMOOTH",
"38.327 108.203 OFFCURVE",
"44.224 73.563 OFFCURVE",
"69.429 54.254 CURVE SMOOTH",
"101.874 29.398 OFFCURVE",
"142.682 12.953 OFFCURVE",
"191.766 5.052 CURVE SMOOTH",
"212.331 1.741 OFFCURVE",
"233.829 0.125 OFFCURVE",
"255.291 0.125 CURVE SMOOTH"
);
},
{
closed = 1;
nodes = (
"3.853 -272.13 OFFCURVE",
"21.361 -260.988 OFFCURVE",
"29.644 -242.485 CURVE SMOOTH",
"41.897 -215.112 OFFCURVE",
"78.831 -85.702 OFFCURVE",
"107.642 31.534 CURVE SMOOTH",
"125.435 103.936 OFFCURVE",
"138.774 165.603 OFFCURVE",
"147.544 215.39 CURVE SMOOTH",
"159.565 283.619 OFFCURVE",
"162.584 326.386 OFFCURVE",
"157.525 353.699 CURVE SMOOTH",
"151.847 384.358 OFFCURVE",
"122.486 406.032 OFFCURVE",
"92.241 401.988 CURVE SMOOTH",
"62.309 397.984 OFFCURVE",
"42.877 369.873 OFFCURVE",
"49.576 339.359 CURVE",
"47.799 345.981 OFFCURVE",
"55.008 331.391 OFFCURVE",
"38.198 237.592 CURVE SMOOTH",
"29.679 190.048 OFFCURVE",
"16.463 129.746 OFFCURVE",
"0.21 63.685 CURVE SMOOTH",
"-30.322 -60.406 OFFCURVE",
"-63.782 -173.192 OFFCURVE",
"-71.413 -191.482 CURVE SMOOTH",
"-83.655 -219.079 OFFCURVE",
"-70.592 -252.386 OFFCURVE",
"-42.208 -266.217 CURVE SMOOTH",
"-34.097 -270.168 OFFCURVE",
"-25.73 -272.131 OFFCURVE",
"-17.069 -272.131 CURVE SMOOTH"
);
},
{
closed = 1;
nodes = (
"173.222 118.205 OFFCURVE",
"148.574 127.45 OFFCURVE",
"132.53 139.74 CURVE SMOOTH",
"127.256 143.781 OFFCURVE",
"122.109 146.428 OFFCURVE",
"117.145 148.332 CURVE",
"119.024 181.76 LINE",
"122.313 182.905 OFFCURVE",
"125.762 184.745 OFFCURVE",
"128.043 186.157 CURVE SMOOTH",
"195.826 228.145 OFFCURVE",
"249.911 255.878 OFFCURVE",
"293.488 270.661 CURVE SMOOTH",
"331.562 283.577 OFFCURVE",
"364.054 286.61 OFFCURVE",
"384.151 278.736 CURVE SMOOTH",
"401.131 272.084 OFFCURVE",
"417.366 253.014 OFFCURVE",
"425.479 230.633 CURVE SMOOTH",
"432.549 211.126 OFFCURVE",
"433.26 188.378 OFFCURVE",
"425.168 175.232 CURVE SMOOTH",
"408.255 147.757 OFFCURVE",
"356.887 123.218 OFFCURVE",
"299.253 114.188 CURVE SMOOTH",
"265.603 108.917 OFFCURVE",
"232.191 108.712 OFFCURVE",
"201.692 113.622 CURVE SMOOTH"
);
}
);
width = 560;
}
);
unicode = 0070;
},
{
glyphname = q;
lastChange = "2019-04-30 11:56:39 +0000";
layers = (
{
layerId = "E3FE0EAA-297C-4773-BA15-BC72883F874E";
paths = (
{
closed = 1;
nodes = (
"350.187 -345.022 OFFCURVE",
"350.355 -345.022 OFFCURVE",
"351.224 -344.942 CURVE",
"380.799 -343.569 OFFCURVE",
"401.654 -318.633 OFFCURVE",
"398.156 -288.733 CURVE SMOOTH",
"386.48 -189.354 OFFCURVE",
"447.921 125.612 OFFCURVE",
"488.906 299.717 CURVE SMOOTH",
"495.289 326.596 OFFCURVE",
"479.842 355.624 OFFCURVE",
"452.739 367.291 CURVE SMOOTH",
"429.081 377.43 OFFCURVE",
"404.079 371.764 OFFCURVE",
"388.939 351.626 CURVE",
"333.047 402.885 OFFCURVE",
"278.52 426.306 OFFCURVE",
"214.323 426.306 CURVE SMOOTH",
"106.372 426.306 OFFCURVE",
"-29.456 262.522 OFFCURVE",
"-21.208 144.379 CURVE SMOOTH",
"-16.242 73.266 OFFCURVE",
"38.191 27.439 OFFCURVE",
"120.063 27.439 CURVE SMOOTH",
"193.759 27.439 OFFCURVE",
"265.029 54.08 OFFCURVE",
"332.924 107.182 CURVE",
"295.973 -85.98 OFFCURVE",
"280.558 -223.236 OFFCURVE",
"288.583 -291.294 CURVE SMOOTH",
"292.041 -321.089 OFFCURVE",
"318.768 -345.022 OFFCURVE",
"348.509 -345.022 CURVE SMOOTH"
);
},
{
closed = 1;
nodes = (
"80.891 194.515 OFFCURVE",
"174.527 312.958 OFFCURVE",
"223.94 316.303 CURVE",
"261.319 316.547 OFFCURVE",
"291.935 300.901 OFFCURVE",
"328.184 264.635 CURVE",
"256.163 180.342 OFFCURVE",
"171.898 135.743 OFFCURVE",
"88.865 139.066 CURVE"
);
}
);
width = 480;
}
);
leftKerningGroup = a;
unicode = 0071;
},
{
glyphname = r;
lastChange = "2019-04-30 11:56:39 +0000";
layers = (
{
layerId = "E3FE0EAA-297C-4773-BA15-BC72883F874E";
paths = (
{
closed = 1;
nodes = (
"72.185 10.94 OFFCURVE",
"87.537 22.521 OFFCURVE",
"92.191 40.376 CURVE SMOOTH",
"104.85 90.256 LINE SMOOTH",
"148.013 262.24 OFFCURVE",
"174.356 332.71 OFFCURVE",
"267.595 332.71 CURVE SMOOTH",
"349.863 332.71 OFFCURVE",
"415.259 288.958 OFFCURVE",
"399.523 299.21 CURVE",
"422.752 287.287 OFFCURVE",
"449.245 293.574 OFFCURVE",
"459.953 313.801 CURVE SMOOTH",
"471.464 335.362 OFFCURVE",
"461.622 364.748 OFFCURVE",
"437.64 379.067 CURVE SMOOTH",
"429.328 384.074 OFFCURVE",
"355.927 426.115 OFFCURVE",
"254.671 426.115 CURVE SMOOTH",
"89.055 426.115 OFFCURVE",
"55.45 292.287 OFFCURVE",
"13.277 124.212 CURVE SMOOTH",
"0.824 75.012 LINE SMOOTH",
"-5.515 50.59 OFFCURVE",
"10.479 22.892 OFFCURVE",
"36.443 13.791 CURVE SMOOTH",
"41.667 11.986 OFFCURVE",
"47.739 10.94 OFFCURVE",
"52.956 10.94 CURVE SMOOTH"
);
}
);
width = 350;
}
);
leftKerningGroup = a;
unicode = 0072;
},
{
glyphname = s;
lastChange = "2019-04-30 11:56:39 +0000";
layers = (
{
layerId = "E3FE0EAA-297C-4773-BA15-BC72883F874E";
paths = (
{
closed = 1;
nodes = (
"230.11 -5.234 OFFCURVE",
"283.488 13.832 OFFCURVE",
"310.507 48.818 CURVE SMOOTH",
"357.896 110.264 OFFCURVE",
"292.161 168.396 OFFCURVE",
"233.98 219.948 CURVE SMOOTH",
"169.637 276.798 OFFCURVE",
"140.785 308.09 OFFCURVE",
"142.134 328.518 CURVE",
"144.265 341.839 OFFCURVE",
"152.027 351.529 OFFCURVE",
"164.476 357.764 CURVE SMOOTH",
"191.151 371.07 OFFCURVE",
"247.92 371.415 OFFCURVE",
"274.756 358.978 CURVE SMOOTH",
"298.588 346.942 OFFCURVE",
"327.528 356.532 OFFCURVE",
"340.027 380.624 CURVE SMOOTH",
"352.26 404.206 OFFCURVE",
"343.187 433.145 OFFCURVE",
"319.966 444.89 CURVE SMOOTH",
"269.723 470.232 OFFCURVE",
"180.963 470.81 OFFCURVE",
"126.222 444.844 CURVE SMOOTH",
"85.622 425.618 OFFCURVE",
"58.989 393.167 OFFCURVE",
"49.058 350.896 CURVE SMOOTH",
"30.239 270.331 OFFCURVE",
"103.376 205.614 OFFCURVE",
"169.323 147.331 CURVE SMOOTH",
"179.268 138.48 OFFCURVE",
"192.116 127.045 OFFCURVE",
"202.81 116.905 CURVE",
"226.975 98.177 LINE",
"178.055 83.597 OFFCURVE",
"87.736 91.911 OFFCURVE",
"60.489 108.787 CURVE SMOOTH",
"38.017 123.033 OFFCURVE",
"8.454 116.112 OFFCURVE",
"-6.24 93.202 CURVE SMOOTH",
"-20.587 70.775 OFFCURVE",
"-14.259 41.108 OFFCURVE",
"7.763 27.192 CURVE SMOOTH",
"37.622 8.324 OFFCURVE",
"100.034 -5.234 OFFCURVE",
"158.023 -5.234 CURVE SMOOTH"
);
}
);
width = 350;
}
);
leftKerningGroup = a;
unicode = 0073;
},
{
glyphname = t;
lastChange = "2019-04-30 11:56:39 +0000";
layers = (
{
layerId = "E3FE0EAA-297C-4773-BA15-BC72883F874E";
paths = (
{
closed = 1;
nodes = (
"223.54 24.97 OFFCURVE",
"244.177 46.667 OFFCURVE",
"246.853 74.76 CURVE SMOOTH",
"261.654 230.178 OFFCURVE",
"337.794 505.613 OFFCURVE",
"338.619 508.589 CURVE SMOOTH",
"346.471 536.853 OFFCURVE",
"330.138 569.195 OFFCURVE",
"304.524 576.31 CURVE SMOOTH",
"278.392 583.57 OFFCURVE",
"252.98 569.656 OFFCURVE",
"244.196 538.037 CURVE SMOOTH",
"241.365 527.843 OFFCURVE",
"165.228 252.484 OFFCURVE",
"149.295 85.189 CURVE SMOOTH",
"146.391 54.694 OFFCURVE",
"166.828 27.755 OFFCURVE",
"193.428 25.222 CURVE SMOOTH",
"194.921 25.08 OFFCURVE",
"195.812 24.969 OFFCURVE",
"198.163 24.969 CURVE SMOOTH"
);
},
{
closed = 1;
nodes = (
"323.66 247.997 OFFCURVE",
"382.435 250.198 OFFCURVE",
"415.338 253.967 CURVE SMOOTH",
"441.859 257.006 OFFCURVE",
"461.846 285.158 OFFCURVE",
"458.442 314.871 CURVE SMOOTH",
"454.818 346.5 OFFCURVE",
"431.163 366.345 OFFCURVE",
"404.183 363.253 CURVE SMOOTH",
"335.141 355.341 OFFCURVE",
"123.936 355.369 OFFCURVE",
"38.452 369.36 CURVE SMOOTH",
"11.476 373.774 OFFCURVE",
"-12.658 355.503 OFFCURVE",
"-17.819 323.965 CURVE SMOOTH",
"-22.617 294.648 OFFCURVE",
"-3.64 265.103 OFFCURVE",
"22.623 260.804 CURVE SMOOTH",
"77.53 251.818 OFFCURVE",
"171.615 247.997 OFFCURVE",
"258.357 247.997 CURVE SMOOTH"
);
}
);
width = 432.19001;
}
);
unicode = 0074;
},
{
glyphname = u;
lastChange = "2019-04-30 12:01:32 +0000";
layers = (
{
anchors = (
{
name = bottom;
position = "{217.378, 0}";
},
{
name = ogonek;
position = "{417.784, 10}";
},
{
name = top;
position = "{280.622, 450}";
},
{
name = topright;
position = "{508.972, 450}";
}
);
layerId = "E3FE0EAA-297C-4773-BA15-BC72883F874E";
paths = (
{
closed = 1;
nodes = (
"500.278 28.585 OFFCURVE",
"491.692 67.348 CURVE SMOOTH",
"485.362 95.92 OFFCURVE",
"460.466 113.428 OFFCURVE",
"440.256 108.999 CURVE SMOOTH",
"395.903 99.279 OFFCURVE",
"396.357 144.756 OFFCURVE",
"415.885 188.552 CURVE SMOOTH",
"426.186 211.654 OFFCURVE",
"451.96 263.69 OFFCURVE",
"456.4 284.967 CURVE SMOOTH",
"462.787 315.51 OFFCURVE",
"456.259 336.43 OFFCURVE",
"425.618 351.505 CURVE SMOOTH",
"397.202 365.484 OFFCURVE",
"375.342 343.377 OFFCURVE",
"366.054 320.08 CURVE SMOOTH",
"348.679 276.501 OFFCURVE",
"333.5 234.197 OFFCURVE",
"316.607 207.931 CURVE SMOOTH",
"276.18 145.072 OFFCURVE",
"205.932 84.274 OFFCURVE",
"152.965 131.257 CURVE SMOOTH",
"138.529 144.062 OFFCURVE",
"125.271 168.483 OFFCURVE",
"145.947 225.059 CURVE SMOOTH",
"160.615 265.195 OFFCURVE",
"182.495 313.596 OFFCURVE",
"182.687 313.95 CURVE SMOOTH",
"192.53 331.935 OFFCURVE",
"205.407 370.649 OFFCURVE",
"182.5 387.959 CURVE SMOOTH",
"157.035 407.202 OFFCURVE",
"128.538 398.715 OFFCURVE",
"116.521 381.006 CURVE SMOOTH",
"115.232 379.099 OFFCURVE",
"94.803 348.824 OFFCURVE",
"68.706 290.397 CURVE SMOOTH",
"55.444 260.706 OFFCURVE",
"45.622 229.639 OFFCURVE",
"41.008 200.943 CURVE SMOOTH",
"38.401 184.72 OFFCURVE",
"37.771 165.648 OFFCURVE",
"39.574 150.737 CURVE SMOOTH",
"42.489 126.65 OFFCURVE",
"50.459 104.114 OFFCURVE",
"60.412 89.308 CURVE SMOOTH",
"89.37 46.222 OFFCURVE",
"127.832 23.485 OFFCURVE",
"180.421 20.473 CURVE SMOOTH",
"185.691 20.167 OFFCURVE",
"190.23 19.996 OFFCURVE",
"196.068 19.996 CURVE SMOOTH",
"251.741 20 OFFCURVE",
"295.416 36.412 OFFCURVE",
"340.765 72.823 CURVE",
"349.364 43.239 OFFCURVE",
"377.728 10.078 OFFCURVE",
"415.862 10.078 CURVE SMOOTH",
"463.843 10.078 OFFCURVE"
);
}
);
width = 497.34999;
}
);
leftKerningGroup = a;
unicode = 0075;
},
{
glyphname = udieresis;
lastChange = "2019-04-30 11:56:39 +0000";
layers = (
{
anchors = (
{
name = _top;
position = "{280.622, 450}";
},
{
name = top;
position = "{324.401, 761.509}";
}
);
components = (
{
name = u;
}
);
layerId = "E3FE0EAA-297C-4773-BA15-BC72883F874E";
paths = (
{
closed = 1;
nodes = (
"461.383 483.956 OFFCURVE",
"487.38 506.897 OFFCURVE",
"489.495 536.954 CURVE SMOOTH",
"495.909 628.088 LINE SMOOTH",
"497.995 657.727 OFFCURVE",
"474.983 683.632 OFFCURVE",
"445.171 685.176 CURVE SMOOTH",
"414.976 686.739 OFFCURVE",
"388.979 663.798 OFFCURVE",
"386.864 633.741 CURVE SMOOTH",
"380.452 542.629 LINE SMOOTH",
"378.485 514.677 OFFCURVE",
"398.147 490.176 OFFCURVE",
"425.883 486.019 CURVE SMOOTH",
"426.882 485.87 OFFCURVE",
"428.367 485.665 OFFCURVE",
"431.189 485.519 CURVE SMOOTH"
);
},
{
closed = 1;
nodes = (
"248.996 505.492 OFFCURVE",
"250.483 505.641 OFFCURVE",
"251.484 505.753 CURVE SMOOTH",
"279.359 508.869 OFFCURVE",
"299.923 532.618 OFFCURVE",
"299.003 560.624 CURVE SMOOTH",
"296.003 651.912 LINE SMOOTH",
"295.013 682.027 OFFCURVE",
"269.892 705.924 OFFCURVE",
"239.659 705.491 CURVE SMOOTH",
"209.811 705.064 OFFCURVE",
"185.847 680.038 OFFCURVE",
"186.822 650.341 CURVE SMOOTH",
"189.823 559.031 LINE SMOOTH",
"190.813 528.916 OFFCURVE",
"215.934 505.019 OFFCURVE",
"246.167 505.452 CURVE SMOOTH"
);
}
);
width = 497.34999;
}
);
unicode = 00FC;
},
{
glyphname = udieresisgrave;
lastChange = "2019-04-30 11:56:39 +0000";
layers = (
{
anchors = (
{
name = _top;
position = "{280.622, 450}";
},
{
name = top;
position = "{281.408, 761.509}";
}
);
components = (
{
name = u;
},
{
name = gravecomb;
transform = "{0.99339, -0.11483, 0.11483, 0.99339, 82.615, 237.916}";
}
);
layerId = "E3FE0EAA-297C-4773-BA15-BC72883F874E";
paths = (
{
closed = 1;
nodes = (
"253.278 472.896 OFFCURVE",
"279.417 494.514 OFFCURVE",
"282.468 523.917 CURVE SMOOTH",
"293.428 624.057 LINE SMOOTH",
"296.291 653.016 OFFCURVE",
"275.009 678.666 OFFCURVE",
"246.409 680.634 CURVE SMOOTH",
"216.585 683.126 OFFCURVE",
"190.445 661.508 OFFCURVE",
"187.393 632.104 CURVE SMOOTH",
"176.434 531.965 LINE SMOOTH",
"173.753 505.141 OFFCURVE",
"191.983 480.856 OFFCURVE",
"218.584 476.004 CURVE SMOOTH",
"220.066 475.734 OFFCURVE",
"221.657 475.579 OFFCURVE",
"224.096 475.332 CURVE SMOOTH"
);
},
{
closed = 1;
nodes = (
"452.224 464.449 OFFCURVE",
"475.558 481.778 OFFCURVE",
"482.131 506.417 CURVE",
"494.519 580.128 LINE",
"496.463 609.008 OFFCURVE",
"474.882 633.858 OFFCURVE",
"446.507 635.33 CURVE SMOOTH",
"419.863 637.101 OFFCURVE",
"396.528 619.773 OFFCURVE",
"389.956 595.135 CURVE",
"377.565 521.411 LINE",
"375.735 494.675 OFFCURVE",
"394.272 471.114 OFFCURVE",
"420.698 466.755 CURVE SMOOTH",
"422.188 466.51 OFFCURVE",
"423.773 466.382 OFFCURVE",
"426.215 466.177 CURVE SMOOTH"
);
}
);
width = 497.34999;
}
);
unicode = 01DC;
},
{
glyphname = v;
lastChange = "2019-04-30 11:57:18 +0000";
layers = (
{
layerId = "E3FE0EAA-297C-4773-BA15-BC72883F874E";
paths = (
{
closed = 1;
nodes = (
"172.087 -14.602 OFFCURVE",
"187.299 -4.927 OFFCURVE",
"197.029 15.757 CURVE SMOOTH",
"266.673 163.82 OFFCURVE",
"355.364 342.279 OFFCURVE",
"379.897 375.307 CURVE",
"380.865 375.307 LINE",
"396.084 388.032 OFFCURVE",
"402.334 415.694 OFFCURVE",
"394.41 435.533 CURVE SMOOTH",
"383.626 462.539 OFFCURVE",
"359.831 474.995 OFFCURVE",
"333.405 464.831 CURVE SMOOTH",
"308.959 455.428 OFFCURVE",
"271.751 392.186 OFFCURVE",
"170.845 183.723 CURVE",
"159.71 183.723 LINE",
"130.072 280.028 OFFCURVE",
"105.154 357.455 OFFCURVE",
"90.11 400.149 CURVE SMOOTH",
"80.328 427.911 OFFCURVE",
"56.539 441.919 OFFCURVE",
"30.889 432.357 CURVE SMOOTH",
"7.123 423.497 OFFCURVE",
"-7.228 391.343 OFFCURVE",
"1.998 365.115 CURVE SMOOTH",
"36.877 265.96 OFFCURVE",
"101.737 50.44 OFFCURVE",
"109.463 24.746 CURVE SMOOTH",
"116.061 0.486 OFFCURVE",
"132.403 -13.032 OFFCURVE",
"151.36 -14.467 CURVE SMOOTH",
"152.138 -14.526 OFFCURVE",
"152.786 -14.602 OFFCURVE",
"154.736 -14.602 CURVE SMOOTH"
);
}
);
width = 340;
}
);
unicode = 0076;
},
{
glyphname = w;
lastChange = "2019-04-30 11:56:39 +0000";
layers = (
{
layerId = "E3FE0EAA-297C-4773-BA15-BC72883F874E";
paths = (
{
closed = 1;
nodes = (
"533.319 10 OFFCURVE",
"581.883 34.339 OFFCURVE",
"622.917 82.046 CURVE SMOOTH",
"686.392 156.07 OFFCURVE",
"723.357 284.161 OFFCURVE",
"708.741 379.448 CURVE SMOOTH",
"704.655 405.324 OFFCURVE",
"679.278 423.427 OFFCURVE",
"654.224 419.551 CURVE SMOOTH",
"628.196 415.578 OFFCURVE",
"610.123 390.985 OFFCURVE",
"614.1 364.998 CURVE SMOOTH",
"624.472 297.16 OFFCURVE",
"595.51 197.136 OFFCURVE",
"550.232 144.36 CURVE SMOOTH",
"528.731 119.373 OFFCURVE",
"504.05 105.742 OFFCURVE",
"479.584 105.742 CURVE SMOOTH",
"430.467 105.742 OFFCURVE",
"396.338 227.121 OFFCURVE",
"394.158 335.888 CURVE SMOOTH",
"393.676 357.839 OFFCURVE",
"378.401 376.702 OFFCURVE",
"357.091 381.651 CURVE SMOOTH",
"335.789 386.599 OFFCURVE",
"313.846 376.453 OFFCURVE",
"303.667 356.927 CURVE SMOOTH",
"248.465 249.923 OFFCURVE",
"156.313 114.642 OFFCURVE",
"136.814 119.898 CURVE",
"110.106 148.881 OFFCURVE",
"107.373 295.245 OFFCURVE",
"127.088 355.229 CURVE SMOOTH",
"135.314 380.182 OFFCURVE",
"121.553 407.419 OFFCURVE",
"96.58 415.629 CURVE SMOOTH",
"71.731 424.161 OFFCURVE",
"44.472 410.338 OFFCURVE",
"36.182 385.121 CURVE SMOOTH",
"12.715 313.968 OFFCURVE",
"4.48 138.627 OFFCURVE",
"58.976 63.24 CURVE SMOOTH",
"78.1 36.862 OFFCURVE",
"103.737 22.988 OFFCURVE",
"133.002 22.988 CURVE SMOOTH",
"183.564 22.988 OFFCURVE",
"246.541 78.695 OFFCURVE",
"317.529 188.508 CURVE",
"347.522 69.659 OFFCURVE",
"402.142 10 OFFCURVE",
"479.584 10 CURVE SMOOTH"
);
}
);
width = 710;
}
);
unicode = 0077;
},
{
glyphname = x;
lastChange = "2019-04-30 11:56:39 +0000";
layers = (
{
layerId = "E3FE0EAA-297C-4773-BA15-BC72883F874E";
paths = (
{
closed = 1;
nodes = (
"43.463 20 OFFCURVE",
"49.484 21.277 OFFCURVE",
"55.352 23.872 CURVE SMOOTH",
"113.034 49.281 OFFCURVE",
"173.399 97.063 OFFCURVE",
"223.159 157.265 CURVE",
"276.362 93.841 OFFCURVE",
"340.144 47.95 OFFCURVE",
"397.639 30.893 CURVE SMOOTH",
"421.181 24.152 OFFCURVE",
"446.398 37.809 OFFCURVE",
"453.911 61.557 CURVE SMOOTH",
"461.178 84.929 OFFCURVE",
"448.124 109.696 OFFCURVE",
"424.868 116.621 CURVE SMOOTH",
"375.978 131.102 OFFCURVE",
"321.038 175.231 OFFCURVE",
"276.735 235.743 CURVE",
"304.114 286.76 OFFCURVE",
"314.844 330.73 OFFCURVE",
"308.407 363.522 CURVE SMOOTH",
"300.758 402.878 OFFCURVE",
"269.456 427.545 OFFCURVE",
"226.847 427.545 CURVE SMOOTH",
"180.243 427.545 OFFCURVE",
"146.969 400.399 OFFCURVE",
"139.97 356.939 CURVE SMOOTH",
"134.588 324.119 OFFCURVE",
"145.078 281.693 OFFCURVE",
"170.887 233.596 CURVE",
"127.969 175.019 OFFCURVE",
"73.648 128.575 OFFCURVE",
"21.12 105.4 CURVE SMOOTH",
"-1.918 95.24 OFFCURVE",
"-12.557 68.93 OFFCURVE",
"-2.879 46.265 CURVE SMOOTH",
"4.079 29.952 OFFCURVE",
"19.222 20 OFFCURVE",
"37.115 20 CURVE SMOOTH"
);
}
);
width = 430;
}
);
leftKerningGroup = a;
unicode = 0078;
},
{
glyphname = y;
lastChange = "2019-04-30 11:56:39 +0000";
layers = (
{
layerId = "E3FE0EAA-297C-4773-BA15-BC72883F874E";
paths = (
{
closed = 1;
nodes = (
"92.544 -215.352 OFFCURVE",
"110.664 -204.691 OFFCURVE",
"120.5 -186.973 CURVE SMOOTH",
"159.483 -116.743 OFFCURVE",
"408.793 224.376 OFFCURVE",
"490.365 314.225 CURVE SMOOTH",
"510.646 336.569 OFFCURVE",
"508.937 371.588 OFFCURVE",
"486.582 391.807 CURVE SMOOTH",
"463.918 412.462 OFFCURVE",
"429.192 410.817 OFFCURVE",
"408.935 388.214 CURVE SMOOTH",
"326.347 297.076 OFFCURVE",
"70.446 -50.261 OFFCURVE",
"24.232 -133.713 CURVE SMOOTH",
"9.626 -160.076 OFFCURVE",
"18.754 -193.507 OFFCURVE",
"45.742 -208.492 CURVE SMOOTH",
"54.032 -213.129 OFFCURVE",
"62.636 -215.352 OFFCURVE",
"72.263 -215.352 CURVE SMOOTH"
);
},
{
closed = 1;
nodes = (
"194.963 -30.782 OFFCURVE",
"200.608 -29.934 OFFCURVE",
"205.498 -28.39 CURVE SMOOTH",
"234.515 -19.505 OFFCURVE",
"251.109 10.869 OFFCURVE",
"242.015 40.404 CURVE SMOOTH",
"207.428 152.959 OFFCURVE",
"75.337 364.768 OFFCURVE",
"60.225 388.752 CURVE SMOOTH",
"43.953 414.642 OFFCURVE",
"10.326 422.317 OFFCURVE",
"-15.681 406.082 CURVE SMOOTH",
"-41.747 389.671 OFFCURVE",
"-48.975 355.874 OFFCURVE",
"-32.895 330.402 CURVE SMOOTH",
"5.344 269.416 OFFCURVE",
"111.084 91.963 OFFCURVE",
"136.888 8.025 CURVE SMOOTH",
"144.01 -15.246 OFFCURVE",
"165.057 -30.782 OFFCURVE",
"189.451 -30.782 CURVE SMOOTH"
);
}
);
width = 450;
}
);
unicode = 0079;
},
{
glyphname = z;
lastChange = "2019-04-30 13:16:55 +0000";
layers = (
{
layerId = "E3FE0EAA-297C-4773-BA15-BC72883F874E";
paths = (
{
closed = 1;
nodes = (
"313.952 -8.979 OFFCURVE",
"392.983 3.299 OFFCURVE",
"436.361 23.141 CURVE SMOOTH",
"461.378 34.523 OFFCURVE",
"476.378 63.072 OFFCURVE",
"468.348 86.268 CURVE SMOOTH",
"460.664 108.65 OFFCURVE",
"435.221 116.748 OFFCURVE",
"411.336 105.644 CURVE SMOOTH",
"334.831 71.027 OFFCURVE",
"155.9 79.073 OFFCURVE",
"112.37 98.557 CURVE",
"140.677 112.693 LINE SMOOTH",
"156.828 120.853 OFFCURVE",
"174.438 129.123 OFFCURVE",
"190.156 136.504 CURVE SMOOTH",
"194.805 138.687 OFFCURVE",
"199.264 140.781 OFFCURVE",
"203.54 142.804 CURVE SMOOTH",
"335.992 204.667 OFFCURVE",
"472.411 268.312 OFFCURVE",
"442.489 361.579 CURVE SMOOTH",
"432.694 392.045 OFFCURVE",
"402.293 413.342 OFFCURVE",
"350.484 425.133 CURVE SMOOTH",
"262.616 445.006 OFFCURVE",
"98.855 438.573 OFFCURVE",
"15.498 375.041 CURVE SMOOTH",
"-6.565 358.337 OFFCURVE",
"-14.323 328.843 OFFCURVE",
"-0.608 309.445 CURVE SMOOTH",
"12.815 290.7 OFFCURVE",
"41.674 289.692 OFFCURVE",
"63.145 306.064 CURVE SMOOTH",
"125.224 352.871 OFFCURVE",
"339.7 347.977 OFFCURVE",
"351.729 327.923 CURVE SMOOTH",
"358.114 317.277 OFFCURVE",
"299.948 282.069 OFFCURVE",
"177.331 224.877 CURVE SMOOTH",
"77.083 177.942 OFFCURVE",
"22.501 152.507 OFFCURVE",
"3.757 108.703 CURVE SMOOTH",
"-1.929 95.357 OFFCURVE",
"-2.045 71.949 OFFCURVE",
"3.012 61.102 CURVE SMOOTH",
"23.294 17.862 OFFCURVE",
"114.234 -8.979 OFFCURVE",
"234.296 -8.979 CURVE SMOOTH"
);
}
);
width = 440;
}
);
unicode = 007A;
},
{
export = 0;
glyphname = s.001;
lastChange = "2019-04-30 11:56:39 +0000";
layers = (
{
layerId = "E3FE0EAA-297C-4773-BA15-BC72883F874E";
paths = (
{
closed = 1;
nodes = (
"248.379 3.222 OFFCURVE",
"269.824 5.881 OFFCURVE",
"287.24 11.167 CURVE SMOOTH",
"313.147 19.03 OFFCURVE",
"331.568 33.392 OFFCURVE",
"341.686 53.44 CURVE SMOOTH",
"355.693 81.19 OFFCURVE",
"353.179 113.912 OFFCURVE",
"333.389 154.934 CURVE SMOOTH",
"319.622 183.468 OFFCURVE",
"296.089 217.919 OFFCURVE",
"261.051 260.291 CURVE SMOOTH",
"247.818 276.292 OFFCURVE",
"241.721 293.609 OFFCURVE",
"249.47 309.222 CURVE SMOOTH",
"263.606 337.7 OFFCURVE",
"310.735 349.336 OFFCURVE",
"360.901 342.517 CURVE SMOOTH",
"390.876 338.438 OFFCURVE",
"415.086 358.234 OFFCURVE",
"416.055 387.411 CURVE SMOOTH",
"417.074 418.109 OFFCURVE",
"391.893 447.198 OFFCURVE",
"360.446 451.474 CURVE SMOOTH",
"261.141 464.974 OFFCURVE",
"180.602 433.108 OFFCURVE",
"148.642 368.714 CURVE SMOOTH",
"135.848 342.934 OFFCURVE",
"132.053 314.665 OFFCURVE",
"137.383 284.571 CURVE SMOOTH",
"142.671 254.712 OFFCURVE",
"157.044 225.08 OFFCURVE",
"179.472 197.959 CURVE SMOOTH",
"203.256 169.196 OFFCURVE",
"238.839 141.275 OFFCURVE",
"231.677 120.467 CURVE SMOOTH",
"228.166 110.266 OFFCURVE",
"190.209 113.41 OFFCURVE",
"178.917 114.085 CURVE SMOOTH",
"139.404 116.444 OFFCURVE",
"88.58 123.506 OFFCURVE",
"44.907 129.979 CURVE SMOOTH",
"14.924 134.418 OFFCURVE",
"-9.58 114.948 OFFCURVE",
"-10.913 85.848 CURVE SMOOTH",
"-12.316 55.224 OFFCURVE",
"12.533 25.878 OFFCURVE",
"43.977 21.217 CURVE SMOOTH",
"107.4 11.818 OFFCURVE",
"171.66 3.283 OFFCURVE",
"220.257 3.223 CURVE SMOOTH"
);
}
);
width = 413.73;
}
);
},
{
glyphname = f_f;
lastChange = "2019-05-07 08:59:06 +0000";
layers = (
{
layerId = "E3FE0EAA-297C-4773-BA15-BC72883F874E";
paths = (
{
closed = 1;
nodes = (
"184.469 -81.182 LINE SMOOTH",
"207.585 -80.612 OFFCURVE",
"228.655 -59.855 OFFCURVE",
"229.923 -33.52 CURVE SMOOTH",
"247.071 332.466 OFFCURVE",
"303.984 580.855 OFFCURVE",
"390.284 663.281 CURVE SMOOTH",
"418.94 690.614 OFFCURVE",
"441.484 689.901 OFFCURVE",
"448.083 689.901 CURVE SMOOTH",
"466.683 689.901 OFFCURVE",
"491.351 656.93 OFFCURVE",
"504.222 620.64 CURVE SMOOTH",
"512.617 597.179 OFFCURVE",
"534.578 588.67 OFFCURVE",
"556.931 597.726 CURVE SMOOTH",
"579.714 607.066 OFFCURVE",
"592.403 635.577 OFFCURVE",
"584.73 657.825 CURVE SMOOTH",
"576.665 680.992 OFFCURVE",
"538.139 779.795 OFFCURVE",
"460.364 779.795 CURVE SMOOTH",
"413.756 779.795 OFFCURVE",
"372.799 761.502 OFFCURVE",
"335.056 725.466 CURVE SMOOTH",
"229.02 624.178 OFFCURVE",
"164.096 364.45 OFFCURVE",
"145.198 -38.349 CURVE SMOOTH",
"144.074 -61.822 OFFCURVE",
"160.549 -81.182 OFFCURVE",
"183.004 -81.182 CURVE SMOOTH"
);
},
{
closed = 1;
nodes = (
"892.674 232.783 OFFCURVE",
"914.178 252.918 OFFCURVE",
"916.028 279.411 CURVE SMOOTH",
"917.698 303.324 OFFCURVE",
"901.158 323.252 OFFCURVE",
"878.293 323.252 CURVE SMOOTH",
"680.559 323.252 OFFCURVE",
"164.919 345.713 OFFCURVE",
"10.08 372.969 CURVE SMOOTH",
"-12.463 377.347 OFFCURVE",
"-36.264 361.244 OFFCURVE",
"-42.683 334.82 CURVE SMOOTH",
"-48.376 311.427 OFFCURVE",
"-35.18 287.7 OFFCURVE",
"-13.203 283.85 CURVE SMOOTH",
"151.184 254.855 OFFCURVE",
"671.395 232.783 OFFCURVE",
"869.183 232.783 CURVE SMOOTH"
);
},
{
closed = 1;
nodes = (
"627.92 -49.932 OFFCURVE",
"629.755 -49.76 OFFCURVE",
"632.668 -49.348 CURVE SMOOTH",
"659.33 -45.734 OFFCURVE",
"681.587 -16.85 OFFCURVE",
"679.496 13.048 CURVE SMOOTH",
"663.275 249.565 OFFCURVE",
"693.506 421.592 OFFCURVE",
"765.821 498.371 CURVE SMOOTH",
"792.655 527.005 OFFCURVE",
"833.502 543.525 OFFCURVE",
"881.407 543.525 CURVE SMOOTH",
"910.073 543.525 OFFCURVE",
"940.644 531.82 OFFCURVE",
"952.783 518.413 CURVE",
"971.498 495.841 OFFCURVE",
"996.213 495.119 OFFCURVE",
"1019.755 513.948 CURVE SMOOTH",
"1041.032 531.083 OFFCURVE",
"1046.919 570.501 OFFCURVE",
"1031.264 590.648 CURVE SMOOTH",
"1024.168 599.656 OFFCURVE",
"980.949 651.963 OFFCURVE",
"891.771 651.963 CURVE SMOOTH",
"814.011 651.963 OFFCURVE",
"750.959 624.126 OFFCURVE",
"698.581 568.419 CURVE SMOOTH",
"603.971 467.811 OFFCURVE",
"564.057 271.595 OFFCURVE",
"583.079 -4.494 CURVE SMOOTH",
"584.827 -30.573 OFFCURVE",
"602.538 -49.932 OFFCURVE",
"626.007 -49.932 CURVE SMOOTH"
);
}
);
width = 890;
}
);
},
{
glyphname = A_l.liga;
lastChange = "2019-05-07 14:15:18 +0000";
layers = (
{
layerId = "E3FE0EAA-297C-4773-BA15-BC72883F874E";
paths = (
{
closed = 1;
nodes = (
"190.548 264.446 OFFCURVE",
"197.468 265.824 OFFCURVE",
"206.019 268.877 CURVE SMOOTH",
"272.71 292.685 OFFCURVE",
"427.951 277.86 OFFCURVE",
"502.89 265.066 CURVE SMOOTH",
"524.21 261.426 OFFCURVE",
"548.203 279.068 OFFCURVE",
"556.332 305.249 CURVE SMOOTH",
"563.676 328.902 OFFCURVE",
"550.22 353.806 OFFCURVE",
"526.975 360.653 CURVE SMOOTH",
"454.128 382.111 OFFCURVE",
"233.504 392.326 OFFCURVE",
"157.816 365.343 CURVE SMOOTH",
"128.422 354.864 OFFCURVE",
"113.213 321.669 OFFCURVE",
"127.113 295.891 CURVE SMOOTH",
"137.989 275.72 OFFCURVE",
"157.917 264.446 OFFCURVE",
"181.921 264.446 CURVE SMOOTH"
);
},
{
closed = 1;
nodes = (
"64.142 7.17 OFFCURVE",
"86.472 27.346 OFFCURVE",
"89.396 55.996 CURVE SMOOTH",
"92.256 85.039 OFFCURVE",
"125.192 144.363 OFFCURVE",
"157.614 202.567 CURVE SMOOTH",
"176.104 236.163 OFFCURVE",
"197.641 274.969 OFFCURVE",
"220.703 320.099 CURVE SMOOTH",
"247.034 371.615 OFFCURVE",
"272.926 424.374 OFFCURVE",
"296.667 473.251 CURVE SMOOTH",
"303.336 486.982 OFFCURVE",
"306.902 494.19 OFFCURVE",
"311.406 502.958 CURVE SMOOTH",
"361.206 604.974 LINE",
"330.394 584.733 LINE",
"331.674 584.733 LINE",
"350.882 498.998 OFFCURVE",
"374.767 341.878 OFFCURVE",
"389.114 248.205 CURVE SMOOTH",
"401.289 169.259 OFFCURVE",
"411.571 102.331 OFFCURVE",
"418.383 69.782 CURVE SMOOTH",
"424.754 39.555 OFFCURVE",
"450.402 22.832 OFFCURVE",
"479.425 27.898 CURVE",
"506.396 33.727 OFFCURVE",
"524.781 62.787 OFFCURVE",
"518.669 92.067 CURVE SMOOTH",
"512.987 119.47 OFFCURVE",
"505.359 166.35 OFFCURVE",
"490.512 264.651 CURVE SMOOTH",
"425.272 689.979 OFFCURVE",
"412.142 731.427 OFFCURVE",
"351.145 731.427 CURVE SMOOTH",
"311.113 731.427 OFFCURVE",
"300.278 716.975 OFFCURVE",
"204.631 520.788 CURVE SMOOTH",
"181.797 473.747 OFFCURVE",
"156.824 422.463 OFFCURVE",
"129.615 369.444 CURVE SMOOTH",
"108.155 327.677 OFFCURVE",
"86.484 288.589 OFFCURVE",
"67.929 255.191 CURVE SMOOTH",
"23.632 175.064 OFFCURVE",
"-7.165 119.741 OFFCURVE",
"-12.495 66.806 CURVE SMOOTH",
"-15.448 37.408 OFFCURVE",
"4.896 10.317 OFFCURVE",
"33.327 7.46 CURVE SMOOTH",
"35.32 7.306 OFFCURVE",
"37.103 7.17 OFFCURVE",
"38.449 7.17 CURVE SMOOTH"
);
},
{
closed = 1;
nodes = (
"682.69 18.136 OFFCURVE",
"706.584 40.293 OFFCURVE",
"708.787 68.92 CURVE SMOOTH",
"710.097 85.96 OFFCURVE",
"704.581 100.315 OFFCURVE",
"691.895 113.069 CURVE",
"691.055 128.803 OFFCURVE",
"693.16 184.253 OFFCURVE",
"730.455 334.604 CURVE SMOOTH",
"754.34 430.887 OFFCURVE",
"780.707 517.788 OFFCURVE",
"781.045 518.899 CURVE SMOOTH",
"790.034 548.437 OFFCURVE",
"773.347 578.736 OFFCURVE",
"744.443 587.532 CURVE SMOOTH",
"715.539 596.329 OFFCURVE",
"684.8 580.463 OFFCURVE",
"675.812 550.929 CURVE SMOOTH",
"674.54 546.753 OFFCURVE",
"644.557 447.981 OFFCURVE",
"618.682 340.608 CURVE SMOOTH",
"603.072 275.824 OFFCURVE",
"592.498 222.443 OFFCURVE",
"586.881 181.09 CURVE SMOOTH",
"577.398 111.295 OFFCURVE",
"580.843 74.307 OFFCURVE",
"598.613 48.292 CURVE SMOOTH",
"610.877 30.338 OFFCURVE",
"628.652 19.922 OFFCURVE",
"649.731 18.3 CURVE SMOOTH",
"651.3 18.18 OFFCURVE",
"652.478 18.135 OFFCURVE",
"654.029 18.135 CURVE SMOOTH"
);
}
);
width = 800;
}
);
rightKerningGroup = l;
},
{
glyphname = P_h_i_p_i.liga;
lastChange = "2019-04-30 11:56:39 +0000";
layers = (
{
layerId = "E3FE0EAA-297C-4773-BA15-BC72883F874E";
paths = (
{
closed = 1;
nodes = (
"346.921 -12.416 OFFCURVE",
"349.593 -12.103 OFFCURVE",
"351.707 -11.68 CURVE SMOOTH",
"374.161 -7.147 OFFCURVE",
"388.965 15.004 OFFCURVE",
"384.537 37.47 CURVE SMOOTH",
"377.585 71.663 OFFCURVE",
"376.822 123.97 OFFCURVE",
"382.188 180.876 CURVE",
"543.414 253.435 OFFCURVE",
"700.867 451.044 OFFCURVE",
"700.867 574.487 CURVE SMOOTH",
"700.867 601.445 OFFCURVE",
"692.965 624.082 OFFCURVE",
"678.025 640.327 CURVE SMOOTH",
"661.19 658.676 OFFCURVE",
"637.836 668.091 OFFCURVE",
"608.87 668.091 CURVE SMOOTH",
"542.519 668.091 OFFCURVE",
"482.899 637.022 OFFCURVE",
"433.127 576.274 CURVE SMOOTH",
"373.537 503.662 OFFCURVE",
"326.949 381.767 OFFCURVE",
"305.956 241.181 CURVE",
"278.312 232.483 OFFCURVE",
"250.174 227.817 OFFCURVE",
"222.907 227.817 CURVE SMOOTH",
"172.24 227.817 OFFCURVE",
"131.948 244.039 OFFCURVE",
"111.86 273.727 CURVE SMOOTH",
"84.812 313.728 OFFCURVE",
"89.173 381.47 OFFCURVE",
"122.86 466.035 CURVE SMOOTH",
"200.798 660.382 OFFCURVE",
"366.207 765.455 OFFCURVE",
"434.046 765.455 CURVE SMOOTH",
"467.883 765.455 OFFCURVE",
"517.372 747.786 OFFCURVE",
"528.95 728.89 CURVE",
"539.319 707.747 OFFCURVE",
"564.36 699.234 OFFCURVE",
"585.219 709.553 CURVE SMOOTH",
"605.662 719.774 OFFCURVE",
"614.125 744.962 OFFCURVE",
"603.96 765.509 CURVE SMOOTH",
"580.621 812.433 OFFCURVE",
"506.89 848.861 OFFCURVE",
"434.046 848.861 CURVE SMOOTH",
"299.841 848.861 OFFCURVE",
"123.001 690.347 OFFCURVE",
"45.435 496.983 CURVE SMOOTH",
"-0.562 381.686 OFFCURVE",
"-1.172 291.805 OFFCURVE",
"42.789 226.895 CURVE SMOOTH",
"88.759 159.093 OFFCURVE",
"189.339 128.535 OFFCURVE",
"296.783 152.522 CURVE",
"293.842 99.547 OFFCURVE",
"296.047 53.997 OFFCURVE",
"302.615 21.157 CURVE SMOOTH",
"306.586 1.515 OFFCURVE",
"323.574 -12.416 OFFCURVE",
"343.581 -12.416 CURVE SMOOTH"
);
},
{
closed = 1;
nodes = (
"418.941 386.986 OFFCURVE",
"453.693 469.855 OFFCURVE",
"497.646 523.387 CURVE SMOOTH",
"525.519 557.533 OFFCURVE",
"583.113 596.917 OFFCURVE",
"615.265 577.26 CURVE SMOOTH",
"627.802 569.596 OFFCURVE",
"612.084 504.982 OFFCURVE",
"536.093 410.285 CURVE SMOOTH",
"498.131 363.016 OFFCURVE",
"449.732 318.363 OFFCURVE",
"399.06 285.72 CURVE"
);
},
{
closed = 1;
nodes = (
"971.043 -6.471 OFFCURVE",
"975.329 -5.473 OFFCURVE",
"979.464 -3.359 CURVE SMOOTH",
"1002.988 8.28 OFFCURVE",
"1010.525 27.392 OFFCURVE",
"1000.21 47.1 CURVE",
"991.868 48.446 OFFCURVE",
"1010.142 350.95 OFFCURVE",
"1030.326 617.135 CURVE SMOOTH",
"1032.068 640.101 OFFCURVE",
"1014.493 660.404 OFFCURVE",
"991.465 661.91 CURVE",
"967.464 664.962 OFFCURVE",
"948.949 649.042 OFFCURVE",
"947.135 623.523 CURVE SMOOTH",
"914.932 199.277 OFFCURVE",
"908.952 47.943 OFFCURVE",
"921.357 22.675 CURVE SMOOTH",
"929.808 5.655 OFFCURVE",
"948.437 -6.471 OFFCURVE",
"965.91 -6.471 CURVE SMOOTH"
);
},
{
closed = 1;
nodes = (
"1318.623 -6.31 OFFCURVE",
"1321.986 -5.787 OFFCURVE",
"1325.381 -4.888 CURVE SMOOTH",
"1347.41 1.022 OFFCURVE",
"1360.681 24.102 OFFCURVE",
"1354.731 46.279 CURVE SMOOTH",
"1314.271 196.535 OFFCURVE",
"1301.996 641.006 OFFCURVE",
"1301.839 645.25 CURVE SMOOTH",
"1301.265 665.503 OFFCURVE",
"1283.133 682.52 OFFCURVE",
"1257.689 686.033 CURVE",
"1235.378 684.661 OFFCURVE",
"1217.78 665.676 OFFCURVE",
"1218.412 643.344 CURVE SMOOTH",
"1218.895 624.51 OFFCURVE",
"1231.041 184.373 OFFCURVE",
"1274.131 24.53 CURVE SMOOTH",
"1279.017 6.366 OFFCURVE",
"1295.581 -6.31 OFFCURVE",
"1314.434 -6.31 CURVE SMOOTH"
);
},
{
closed = 1;
nodes = (
"684.513 554.477 OFFCURVE",
"687.189 554.79 OFFCURVE",
"689.309 555.214 CURVE SMOOTH",
"899.624 597.309 OFFCURVE",
"1297.656 644.165 OFFCURVE",
"1440.349 621.393 CURVE SMOOTH",
"1463.692 617.753 OFFCURVE",
"1484.495 632.757 OFFCURVE",
"1488.143 655.86 CURVE SMOOTH",
"1491.818 678.56 OFFCURVE",
"1476.241 700.124 OFFCURVE",
"1453.681 703.687 CURVE SMOOTH",
"1288.415 730.23 OFFCURVE",
"864.391 675.414 OFFCURVE",
"673.049 637.146 CURVE SMOOTH",
"650.599 632.613 OFFCURVE",
"635.794 610.462 OFFCURVE",
"640.222 587.997 CURVE SMOOTH",
"644.183 568.408 OFFCURVE",
"661.171 554.477 OFFCURVE",
"681.178 554.477 CURVE SMOOTH"
);
}
);
width = 1510;
}
);
},
{
glyphname = n_n.liga;
lastChange = "2019-04-30 12:54:36 +0000";
layers = (
{
layerId = "E3FE0EAA-297C-4773-BA15-BC72883F874E";
paths = (
{
closed = 1;
nodes = (
"83.157 15.028 OFFCURVE",
"102.108 27.677 OFFCURVE",
"110.485 50.268 CURVE SMOOTH",
"141.637 134.461 OFFCURVE",
"243.322 320.769 OFFCURVE",
"352.475 322.372 CURVE SMOOTH",
"438.602 320.787 OFFCURVE",
"489.502 147.876 OFFCURVE",
"496.315 73.178 CURVE SMOOTH",
"499.189 42.567 OFFCURVE",
"523.541 22.194 OFFCURVE",
"550.589 24.98 CURVE SMOOTH",
"578.685 27.484 OFFCURVE",
"598.962 53.724 OFFCURVE",
"596.398 82.56 CURVE SMOOTH",
"584.484 218.183 OFFCURVE",
"520.284 432.049 OFFCURVE",
"350.065 428.782 CURVE SMOOTH",
"275.321 427.416 OFFCURVE",
"199.105 376.82 OFFCURVE",
"129.337 293.872 CURVE",
"177.693 267.906 LINE",
"160.11 374.009 LINE SMOOTH",
"159.941 375.017 OFFCURVE",
"159.89 375.224 OFFCURVE",
"159.645 376.63 CURVE SMOOTH",
"159.312 378.542 OFFCURVE",
"158.98 380.448 OFFCURVE",
"158.823 381.11 CURVE SMOOTH",
"152.089 410.858 OFFCURVE",
"125.511 427.697 OFFCURVE",
"98.772 421.619 CURVE SMOOTH",
"72.162 415.65 OFFCURVE",
"54.271 386.659 OFFCURVE",
"60.707 357.967 CURVE SMOOTH",
"68.798 322.014 OFFCURVE",
"48.622 200.244 OFFCURVE",
"15.058 83.508 CURVE SMOOTH",
"7.21 56.136 OFFCURVE",
"22.561 26.469 OFFCURVE",
"47.682 18.234 CURVE SMOOTH",
"52.114 16.73 OFFCURVE",
"56.596 15.689 OFFCURVE",
"62.084 15.552 CURVE SMOOTH"
);
},
{
closed = 1;
nodes = (
"672.397 19.747 OFFCURVE",
"687.67 28.821 OFFCURVE",
"696.676 46.882 CURVE SMOOTH",
"729.818 113.024 OFFCURVE",
"856.797 313.337 OFFCURVE",
"980.712 310.258 CURVE SMOOTH",
"1006.283 309.623 OFFCURVE",
"1026.327 300.706 OFFCURVE",
"1038.894 286.06 CURVE SMOOTH",
"1079.42 239.037 OFFCURVE",
"1079.558 130.929 OFFCURVE",
"1073.933 87.138 CURVE SMOOTH",
"1070.303 58.785 OFFCURVE",
"1090.183 31.701 OFFCURVE",
"1116.537 27.366 CURVE SMOOTH",
"1142.161 22.638 OFFCURVE",
"1166.211 40.266 OFFCURVE",
"1170.007 68.794 CURVE SMOOTH",
"1172.572 88.016 OFFCURVE",
"1192.17 256.48 OFFCURVE",
"1111.13 350.739 CURVE SMOOTH",
"1076.041 391.535 OFFCURVE",
"1031.775 411.667 OFFCURVE",
"978.137 413 CURVE SMOOTH",
"890.201 415.185 OFFCURVE",
"792.901 352.49 OFFCURVE",
"703.228 244.212 CURVE",
"741.254 219.563 LINE",
"741.493 333.366 LINE SMOOTH",
"741.512 342.432 OFFCURVE",
"741.015 347.192 OFFCURVE",
"740.684 350.068 CURVE SMOOTH",
"737.791 379.811 OFFCURVE",
"714.143 399.977 OFFCURVE",
"686.536 399.03 CURVE",
"660.467 397.206 OFFCURVE",
"641.568 372.442 OFFCURVE",
"644.28 345.177 CURVE SMOOTH",
"648.788 299.246 OFFCURVE",
"624.494 165.605 OFFCURVE",
"605.897 85.464 CURVE SMOOTH",
"600 60.112 OFFCURVE",
"614.536 32.841 OFFCURVE",
"637.633 23.836 CURVE SMOOTH",
"643.095 21.711 OFFCURVE",
"648.319 20.346 OFFCURVE",
"654.421 20.194 CURVE SMOOTH"
);
}
);
width = 1200;
}
);
},
{
glyphname = s_s.liga;
lastChange = "2019-04-30 11:56:39 +0000";
layers = (
{
layerId = "E3FE0EAA-297C-4773-BA15-BC72883F874E";
paths = (
{
closed = 1;
nodes = (
"532.635 8.026 OFFCURVE",
"580.854 29.697 OFFCURVE",
"605.539 74.008 CURVE SMOOTH",
"643.901 143.259 OFFCURVE",
"582.906 195.144 OFFCURVE",
"543.378 228.719 CURVE SMOOTH",
"488.83 275.143 OFFCURVE",
"469.392 299.663 OFFCURVE",
"480.371 333.742 CURVE",
"490.492 359.42 OFFCURVE",
"575.84 376.758 OFFCURVE",
"612.244 364.412 CURVE",
"637.826 351.619 OFFCURVE",
"668.386 361.978 OFFCURVE",
"680.968 387.483 CURVE SMOOTH",
"693.644 412.837 OFFCURVE",
"683.26 443.929 OFFCURVE",
"657.985 456.533 CURVE SMOOTH",
"614.446 478.386 OFFCURVE",
"527.929 474.963 OFFCURVE",
"466.331 448.688 CURVE SMOOTH",
"422.657 429.998 OFFCURVE",
"393.852 401.022 OFFCURVE",
"382.633 364.729 CURVE SMOOTH",
"349.869 258.374 OFFCURVE",
"429.713 192.153 OFFCURVE",
"476.725 150.488 CURVE SMOOTH",
"491.96 136.985 OFFCURVE",
"511.857 127.829 OFFCURVE",
"502.565 114.778 CURVE SMOOTH",
"491.646 99.441 OFFCURVE",
"426.777 104.792 OFFCURVE",
"353.905 122.419 CURVE SMOOTH",
"327.195 127.959 OFFCURVE",
"306.15 110.704 OFFCURVE",
"301.269 78.4 CURVE SMOOTH",
"297.372 52.607 OFFCURVE",
"321.84 23.433 OFFCURVE",
"352.196 18.545 CURVE SMOOTH",
"379.996 14.081 OFFCURVE",
"417.965 7.917 OFFCURVE",
"457.554 7.917 CURVE SMOOTH"
);
},
{
closed = 1;
nodes = (
"194.823 0.849 OFFCURVE",
"223.754 5.116 OFFCURVE",
"246.143 13.084 CURVE SMOOTH",
"281.875 25.825 OFFCURVE",
"306.324 49.699 OFFCURVE",
"314.194 80.645 CURVE SMOOTH",
"333.258 155.183 OFFCURVE",
"269.3 194.864 OFFCURVE",
"218.612 226.207 CURVE SMOOTH",
"157.944 263.89 OFFCURVE",
"130.118 286.322 OFFCURVE",
"132.012 316.514 CURVE",
"132.354 343.038 OFFCURVE",
"229.722 371.842 OFFCURVE",
"267.949 361.895 CURVE",
"292.04 351.189 OFFCURVE",
"320.467 362.149 OFFCURVE",
"331.374 386.089 CURVE SMOOTH",
"342.539 410.39 OFFCURVE",
"331.783 439.453 OFFCURVE",
"307.556 450.584 CURVE SMOOTH",
"262.841 471.198 OFFCURVE",
"165.755 458.178 OFFCURVE",
"104.02 422.847 CURVE SMOOTH",
"64.09 400.001 OFFCURVE",
"41.687 369.697 OFFCURVE",
"38.191 334.172 CURVE SMOOTH",
"27.72 230.296 OFFCURVE",
"111.227 178.558 OFFCURVE",
"167.495 143.681 CURVE SMOOTH",
"187.447 131.478 OFFCURVE",
"231.826 113.538 OFFCURVE",
"210.251 97.518 CURVE SMOOTH",
"183.53 77.676 OFFCURVE",
"74.042 102.667 OFFCURVE",
"46.048 122.308 CURVE SMOOTH",
"23.953 138.469 OFFCURVE",
"-6.336 133.931 OFFCURVE",
"-22.271 112.375 CURVE SMOOTH",
"-38.096 90.927 OFFCURVE",
"-33.494 60.328 OFFCURVE",
"-12.041 44.451 CURVE SMOOTH",
"22.34 19.091 OFFCURVE",
"94.982 0.849 OFFCURVE",
"162.539 0.849 CURVE SMOOTH"
);
}
);
width = 660;
}
);
},
{
glyphname = period;
lastChange = "2019-04-30 11:56:39 +0000";
layers = (
{
layerId = "E3FE0EAA-297C-4773-BA15-BC72883F874E";
paths = (
{
closed = 1;
nodes = (
"136.793 20 OFFCURVE",
"164.72 47.267 OFFCURVE",
"164.72 81.998 CURVE SMOOTH",
"164.72 116.729 OFFCURVE",
"136.793 143.997 OFFCURVE",
"102.722 143.997 CURVE SMOOTH",
"68.65 143.997 OFFCURVE",
"40.723 116.73 OFFCURVE",
"40.723 81.998 CURVE SMOOTH",
"40.723 47.267 OFFCURVE",
"68.65 20 OFFCURVE",
"102.722 20 CURVE SMOOTH"
);
}
);
width = 240;
}
);
unicode = 002E;
},
{
glyphname = comma;
lastChange = "2019-04-30 11:56:39 +0000";
layers = (
{
layerId = "E3FE0EAA-297C-4773-BA15-BC72883F874E";
paths = (
{
closed = 1;
nodes = (
"73.543 -195.451 OFFCURVE",
"88.996 -188.098 OFFCURVE",
"98.964 -173.926 CURVE SMOOTH",
"139.63 -115.881 OFFCURVE",
"159.674 3.579 OFFCURVE",
"163.402 27.666 CURVE SMOOTH",
"167.343 53.633 OFFCURVE",
"149.322 78.216 OFFCURVE",
"123.36 82.23 CURVE SMOOTH",
"98.093 86.688 OFFCURVE",
"72.739 68.047 OFFCURVE",
"68.695 42.25 CURVE SMOOTH",
"61.445 -4.506 OFFCURVE",
"41.242 -89.411 OFFCURVE",
"20.451 -119.046 CURVE SMOOTH",
"5.428 -140.572 OFFCURVE",
"10.735 -170.657 OFFCURVE",
"32.248 -185.743 CURVE SMOOTH",
"39.589 -190.862 OFFCURVE",
"47.377 -193.622 OFFCURVE",
"56.266 -194.244 CURVE SMOOTH"
);
}
);
width = 200;
}
);
unicode = 002C;
},
{
glyphname = colon;
lastChange = "2019-04-30 11:56:39 +0000";
layers = (
{
layerId = "E3FE0EAA-297C-4773-BA15-BC72883F874E";
paths = (
{
closed = 1;
nodes = (
"166.958 299.863 OFFCURVE",
"188.36 321.265 OFFCURVE",
"188.36 347.323 CURVE",
"188.36 373.382 OFFCURVE",
"166.959 394.784 OFFCURVE",
"140.9 394.784 CURVE SMOOTH",
"114.841 394.784 OFFCURVE",
"93.439 373.382 OFFCURVE",
"93.439 347.323 CURVE SMOOTH",
"93.439 321.265 OFFCURVE",
"114.841 299.863 OFFCURVE",
"140.9 299.863 CURVE SMOOTH"
);
},
{
closed = 1;
nodes = (
"147.284 29.074 OFFCURVE",
"168.686 50.476 OFFCURVE",
"168.686 76.534 CURVE",
"168.686 102.593 OFFCURVE",
"147.285 123.995 OFFCURVE",
"121.226 123.995 CURVE SMOOTH",
"95.167 123.995 OFFCURVE",
"73.765 102.593 OFFCURVE",
"73.765 76.534 CURVE SMOOTH",
"73.765 50.476 OFFCURVE",
"95.167 29.074 OFFCURVE",
"121.226 29.074 CURVE SMOOTH"
);
}
);
width = 210.22;
}
);
unicode = 003A;
},
{
glyphname = semicolon;
lastChange = "2019-04-30 11:56:39 +0000";
layers = (
{
layerId = "E3FE0EAA-297C-4773-BA15-BC72883F874E";
paths = (
{
closed = 1;
nodes = (
"59.103 -172.509 OFFCURVE",
"75.277 -166.915 OFFCURVE",
"86.754 -153.934 CURVE SMOOTH",
"133.605 -100.755 OFFCURVE",
"166.768 15.746 OFFCURVE",
"173.143 39.271 CURVE SMOOTH",
"179.938 64.641 OFFCURVE",
"164.753 91.07 OFFCURVE",
"139.397 97.937 CURVE SMOOTH",
"114.78 105.17 OFFCURVE",
"87.516 89.454 OFFCURVE",
"80.636 64.265 CURVE SMOOTH",
"68.247 18.6 OFFCURVE",
"38.757 -63.541 OFFCURVE",
"14.808 -90.69 CURVE SMOOTH",
"-2.508 -110.417 OFFCURVE",
"-0.569 -140.905 OFFCURVE",
"19.14 -158.283 CURVE SMOOTH",
"25.868 -164.184 OFFCURVE",
"33.302 -167.79 OFFCURVE",
"42.066 -169.394 CURVE SMOOTH"
);
},
{
closed = 1;
nodes = (
"166.767 288.776 OFFCURVE",
"188.169 310.178 OFFCURVE",
"188.169 336.236 CURVE",
"188.169 362.295 OFFCURVE",
"166.768 383.697 OFFCURVE",
"140.709 383.697 CURVE SMOOTH",
"114.65 383.697 OFFCURVE",
"93.248 362.295 OFFCURVE",
"93.248 336.236 CURVE SMOOTH",
"93.248 310.178 OFFCURVE",
"114.65 288.776 OFFCURVE",
"140.709 288.776 CURVE SMOOTH"
);
}
);
width = 219.8;
}
);
unicode = 003B;
},
{
glyphname = exclam;
lastChange = "2019-04-30 11:56:39 +0000";
layers = (
{
layerId = "E3FE0EAA-297C-4773-BA15-BC72883F874E";
paths = (
{
closed = 1;
nodes = (
"166.557 274.147 OFFCURVE",
"190.052 294.717 OFFCURVE",
"193.721 321.954 CURVE SMOOTH",
"216.184 491.631 OFFCURVE",
"251.923 713.572 OFFCURVE",
"257.51 715.866 CURVE",
"279.518 740.215 OFFCURVE",
"276.182 776.603 OFFCURVE",
"251.864 796.472 CURVE SMOOTH",
"228.126 815.723 OFFCURVE",
"193.795 812.261 OFFCURVE",
"174.287 788.594 CURVE SMOOTH",
"149.06 757.421 OFFCURVE",
"122.091 619.611 OFFCURVE",
"84.541 336.382 CURVE SMOOTH",
"80.684 306.319 OFFCURVE",
"101.323 278.654 OFFCURVE",
"131.947 274.663 CURVE SMOOTH",
"134.614 274.274 OFFCURVE",
"137.121 274.147 OFFCURVE",
"139.128 274.147 CURVE SMOOTH"
);
},
{
closed = 1;
nodes = (
"155.465 -11.473 OFFCURVE",
"183.392 15.794 OFFCURVE",
"183.392 50.526 CURVE SMOOTH",
"183.392 85.257 OFFCURVE",
"155.465 112.524 OFFCURVE",
"121.393 112.524 CURVE SMOOTH",
"87.322 112.524 OFFCURVE",
"59.395 85.257 OFFCURVE",
"59.395 50.526 CURVE SMOOTH",
"59.395 15.794 OFFCURVE",
"87.322 -11.473 OFFCURVE",
"121.393 -11.473 CURVE SMOOTH"
);
}
);
width = 250;
}
);
unicode = 0021;
},
{
glyphname = question;
lastChange = "2019-04-30 12:06:50 +0000";
layers = (
{
layerId = "E3FE0EAA-297C-4773-BA15-BC72883F874E";
paths = (
{
closed = 1;
nodes = (
"262.413 70.086 OFFCURVE",
"279.81 80.035 OFFCURVE",
"289.069 96.7 CURVE SMOOTH",
"303.32 122.379 OFFCURVE",
"295.738 149.243 OFFCURVE",
"268.585 168.482 CURVE SMOOTH",
"249.388 182.084 OFFCURVE",
"240.198 206.593 OFFCURVE",
"243.786 234.175 CURVE SMOOTH",
"249.648 282.79 OFFCURVE",
"307.476 337.715 OFFCURVE",
"352.007 380.293 CURVE SMOOTH",
"414.572 439.73 OFFCURVE",
"470.942 493.538 OFFCURVE",
"474.842 566.625 CURVE SMOOTH",
"478.058 628.076 OFFCURVE",
"448.629 682.898 OFFCURVE",
"392.481 719.873 CURVE SMOOTH",
"324.931 764.675 OFFCURVE",
"227.051 776.79 OFFCURVE",
"168.079 747.815 CURVE SMOOTH",
"142.851 735.515 OFFCURVE",
"133.051 706.354 OFFCURVE",
"145.251 679.725 CURVE SMOOTH",
"156.807 653.947 OFFCURVE",
"188.212 642.406 OFFCURVE",
"216.063 653.758 CURVE SMOOTH",
"266.9 673.932 OFFCURVE",
"371.65 633.949 OFFCURVE",
"369.456 572.724 CURVE SMOOTH",
"368.291 548.665 OFFCURVE",
"345.81 520.221 OFFCURVE",
"279.362 456.793 CURVE SMOOTH",
"215.07 395.629 OFFCURVE",
"149.501 333.047 OFFCURVE",
"138.995 246.9 CURVE SMOOTH",
"130.232 176.164 OFFCURVE",
"161.368 107.457 OFFCURVE",
"215.916 76.858 CURVE SMOOTH",
"223.804 72.49 OFFCURVE",
"232.533 70.086 OFFCURVE",
"242.451 70.086 CURVE SMOOTH"
);
},
{
closed = 1;
nodes = (
"255.18 -77.374 OFFCURVE",
"267.238 -72.6 OFFCURVE",
"277.401 -63.072 CURVE SMOOTH",
"298.896 -42.995 OFFCURVE",
"299.956 -9.931 OFFCURVE",
"279.802 11.644 CURVE SMOOTH",
"256.399 36.608 LINE SMOOTH",
"236.2 58.093 OFFCURVE",
"203.25 59.155 OFFCURVE",
"181.682 39.008 CURVE SMOOTH",
"160.219 18.958 OFFCURVE",
"159.169 -14.105 OFFCURVE",
"179.319 -35.676 CURVE SMOOTH",
"202.722 -60.638 LINE SMOOTH",
"213.245 -71.803 OFFCURVE",
"226.079 -77.374 OFFCURVE",
"241.279 -77.374 CURVE SMOOTH"
);
}
);
width = 510;
}
);
unicode = 003F;
},
{
glyphname = parenleft;
lastChange = "2019-04-30 11:56:39 +0000";
layers = (
{
layerId = "E3FE0EAA-297C-4773-BA15-BC72883F874E";
paths = (
{
closed = 1;
nodes = (
"323.853 -75.627 OFFCURVE",
"343.678 -57.138 OFFCURVE",
"345.6 -33.008 CURVE SMOOTH",
"347.722 -6.996 OFFCURVE",
"327.846 15.788 OFFCURVE",
"301.517 16.956 CURVE",
"324.713 15.626 OFFCURVE",
"241.425 16.943 OFFCURVE",
"193.469 69.116 CURVE SMOOTH",
"159.807 107.111 OFFCURVE",
"158.505 245.536 OFFCURVE",
"188.334 366.769 CURVE SMOOTH",
"228.57 530.634 OFFCURVE",
"360.868 716.458 OFFCURVE",
"465.056 754.265 CURVE SMOOTH",
"488.964 762.874 OFFCURVE",
"501.416 789.551 OFFCURVE",
"492.724 813.502 CURVE SMOOTH",
"484.096 837.461 OFFCURVE",
"457.423 849.923 OFFCURVE",
"433.54 841.19 CURVE SMOOTH",
"298.113 792.134 OFFCURVE",
"147.271 587.729 OFFCURVE",
"98.461 388.878 CURVE SMOOTH",
"56.911 220.142 OFFCURVE",
"68.233 68.304 OFFCURVE",
"125.666 6.162 CURVE SMOOTH",
"192.373 -66.151 OFFCURVE",
"285.396 -74.683 OFFCURVE",
"296.566 -75.482 CURVE SMOOTH",
"298.051 -75.567 OFFCURVE",
"299.011 -75.627 OFFCURVE",
"299.974 -75.627 CURVE SMOOTH"
);
}
);
width = 330;
}
);
unicode = 0028;
},
{
glyphname = parenright;
lastChange = "2019-04-30 11:56:39 +0000";
layers = (
{
layerId = "E3FE0EAA-297C-4773-BA15-BC72883F874E";
paths = (
{
closed = 1;
nodes = (
"326.696 -106.408 OFFCURVE",
"336.272 -103.02 OFFCURVE",
"345.101 -95.846 CURVE SMOOTH",
"422.235 -34.026 OFFCURVE",
"500.344 119.835 OFFCURVE",
"515.309 239.55 CURVE SMOOTH",
"531.336 368.723 OFFCURVE",
"486.617 802.763 OFFCURVE",
"280.125 841.235 CURVE SMOOTH",
"253.772 845.823 OFFCURVE",
"229.173 828.991 OFFCURVE",
"224.352 802.958 CURVE SMOOTH",
"219.486 777.057 OFFCURVE",
"236.727 751.902 OFFCURVE",
"262.726 746.95 CURVE SMOOTH",
"365.625 727.755 OFFCURVE",
"439.125 402.912 OFFCURVE",
"420.235 251.392 CURVE SMOOTH",
"408.572 157.909 OFFCURVE",
"342.046 24.365 OFFCURVE",
"285.255 -21.119 CURVE SMOOTH",
"264.812 -37.529 OFFCURVE",
"261.474 -67.907 OFFCURVE",
"277.88 -88.277 CURVE SMOOTH",
"287.381 -100.204 OFFCURVE",
"300.205 -106.408 OFFCURVE",
"315.233 -106.408 CURVE SMOOTH"
);
}
);
width = 600;
}
);
unicode = 0029;
},
{
glyphname = hyphen;
lastChange = "2019-05-07 08:59:15 +0000";
layers = (
{
layerId = "E3FE0EAA-297C-4773-BA15-BC72883F874E";
paths = (
{
closed = 1;
nodes = (
"154.804 185.236 OFFCURVE",
"167.548 190.563 OFFCURVE",
"178.945 201.553 CURVE",
"202.516 204.103 OFFCURVE",
"258.658 200.714 OFFCURVE",
"300.734 194.703 CURVE SMOOTH",
"330.293 190.327 OFFCURVE",
"358.744 211.657 OFFCURVE",
"362.968 241.3 CURVE SMOOTH",
"367.341 271.905 OFFCURVE",
"346.261 299.271 OFFCURVE",
"316.366 303.542 CURVE SMOOTH",
"210.218 318.794 OFFCURVE",
"141.809 315.237 OFFCURVE",
"111.025 291.412 CURVE SMOOTH",
"98.404 281.714 OFFCURVE",
"86.882 261.849 OFFCURVE",
"85.044 246.713 CURVE SMOOTH",
"81.491 216.792 OFFCURVE",
"102.541 189.296 OFFCURVE",
"133.22 185.579 CURVE SMOOTH",
"136.383 185.279 OFFCURVE",
"138.283 185.236 OFFCURVE",
"139.8 185.236 CURVE SMOOTH"
);
}
);
width = 420;
}
);
unicode = 002D;
},
{
glyphname = endash;
lastChange = "2019-04-30 11:56:39 +0000";
layers = (
{
layerId = "E3FE0EAA-297C-4773-BA15-BC72883F874E";
paths = (
{
closed = 1;
nodes = (
"102.308 192.85 OFFCURVE",
"111.759 195.52 OFFCURVE",
"120.738 200.939 CURVE",
"163.677 207.621 OFFCURVE",
"339.113 202.846 OFFCURVE",
"482.307 194.477 CURVE SMOOTH",
"512.05 192.273 OFFCURVE",
"538.69 216.041 OFFCURVE",
"540.472 246.198 CURVE SMOOTH",
"542.254 276.35 OFFCURVE",
"519.595 302.531 OFFCURVE",
"488.752 304.35 CURVE SMOOTH",
"84.825 328.275 OFFCURVE",
"50.896 317.279 OFFCURVE",
"38.274 259.683 CURVE SMOOTH",
"31.647 229.535 OFFCURVE",
"50.686 200.621 OFFCURVE",
"80.161 194.142 CURVE SMOOTH",
"84.522 193.207 OFFCURVE",
"88.451 192.85 OFFCURVE",
"92.078 192.85 CURVE SMOOTH"
);
}
);
width = 600;
}
);
unicode = 2013;
},
{
glyphname = quotesinglbase;
lastChange = "2019-04-30 11:56:39 +0000";
layers = (
{
layerId = "E3FE0EAA-297C-4773-BA15-BC72883F874E";
paths = (
{
closed = 1;
nodes = (
"101.455 -294.934 OFFCURVE",
"105.838 -294.561 OFFCURVE",
"110.678 -293.447 CURVE SMOOTH",
"135.218 -287.799 OFFCURVE",
"152.891 -266.03 OFFCURVE",
"153.415 -240.795 CURVE SMOOTH",
"158.328 26.044 LINE SMOOTH",
"158.827 56.269 OFFCURVE",
"135.183 81.435 OFFCURVE",
"104.265 82.016 CURVE SMOOTH",
"73.286 82.667 OFFCURVE",
"48.859 58.471 OFFCURVE",
"48.181 27.955 CURVE SMOOTH",
"43.268 -238.854 LINE SMOOTH",
"42.77 -269.08 OFFCURVE",
"66.415 -294.246 OFFCURVE",
"97.333 -294.826 CURVE SMOOTH"
);
}
);
width = 300;
}
);
unicode = 201A;
},
{
glyphname = quotedblbase;
lastChange = "2019-04-30 11:56:39 +0000";
layers = (
{
layerId = "E3FE0EAA-297C-4773-BA15-BC72883F874E";
paths = (
{
closed = 1;
nodes = (
"67.222 -310.795 OFFCURVE",
"89.328 -293.544 OFFCURVE",
"95.5 -269.069 CURVE SMOOTH",
"160.136 -10.13 LINE SMOOTH",
"167.401 19.212 OFFCURVE",
"150.004 49.041 OFFCURVE",
"120.003 56.541 CURVE SMOOTH",
"89.961 64.124 OFFCURVE",
"60.729 46.023 OFFCURVE",
"53.224 16.437 CURVE SMOOTH",
"-11.406 -242.474 LINE SMOOTH",
"-18.67 -271.817 OFFCURVE",
"-1.273 -301.645 OFFCURVE",
"28.727 -309.145 CURVE SMOOTH",
"32.72 -310.175 OFFCURVE",
"37.075 -310.795 OFFCURVE",
"42.041 -310.795 CURVE SMOOTH"
);
},
{
closed = 1;
nodes = (
"291.225 -256.986 OFFCURVE",
"315.218 -234.665 OFFCURVE",
"317.206 -205.974 CURVE SMOOTH",
"333.42 20.73 LINE SMOOTH",
"335.553 50.809 OFFCURVE",
"313.391 77.179 OFFCURVE",
"282.721 79.507 CURVE",
"251.936 80.619 OFFCURVE",
"225.653 57.914 OFFCURVE",
"223.716 28.721 CURVE SMOOTH",
"207.498 -198.042 LINE SMOOTH",
"205.358 -228.217 OFFCURVE",
"227.669 -254.66 OFFCURVE",
"258.492 -256.841 CURVE SMOOTH",
"259.94 -256.918 OFFCURVE",
"261.153 -256.986 OFFCURVE",
"262.354 -256.986 CURVE SMOOTH"
);
}
);
width = 400;
}
);
unicode = 201E;
},
{
glyphname = quotedblleft;
lastChange = "2019-04-30 11:56:39 +0000";
layers = (
{
layerId = "E3FE0EAA-297C-4773-BA15-BC72883F874E";
paths = (
{
closed = 1;
nodes = (
"186.979 480.097 OFFCURVE",
"189.922 480.289 OFFCURVE",
"193 480.849 CURVE SMOOTH",
"223.025 485.879 OFFCURVE",
"243.47 513.766 OFFCURVE",
"238.374 544.196 CURVE SMOOTH",
"188.962 837.833 LINE SMOOTH",
"183.798 868.668 OFFCURVE",
"155.908 888.559 OFFCURVE",
"125.788 883.006 CURVE SMOOTH",
"95.712 877.967 OFFCURVE",
"75.267 850.08 OFFCURVE",
"80.363 819.65 CURVE SMOOTH",
"129.775 526.014 LINE SMOOTH",
"134.32 499.308 OFFCURVE",
"157.03 480.097 OFFCURVE",
"184.076 480.097 CURVE SMOOTH"
);
},
{
closed = 1;
nodes = (
"346.187 506.562 OFFCURVE",
"347.299 506.567 OFFCURVE",
"350.15 506.726 CURVE SMOOTH",
"380.002 508.911 OFFCURVE",
"402.936 535.487 OFFCURVE",
"400.656 565.619 CURVE SMOOTH",
"383.856 792.998 LINE SMOOTH",
"381.545 823.409 OFFCURVE",
"355.657 845.697 OFFCURVE",
"324.788 843.75 CURVE SMOOTH",
"294.789 841.556 OFFCURVE",
"271.856 814.981 OFFCURVE",
"274.136 784.848 CURVE SMOOTH",
"290.936 557.469 LINE SMOOTH",
"293.072 528.76 OFFCURVE",
"316.988 506.562 OFFCURVE",
"345.794 506.562 CURVE SMOOTH"
);
}
);
width = 430;
}
);
unicode = 201C;
},
{
glyphname = quotedblright;
lastChange = "2019-04-30 11:56:39 +0000";
layers = (
{
layerId = "E3FE0EAA-297C-4773-BA15-BC72883F874E";
paths = (
{
closed = 1;
nodes = (
"327.022 480.097 OFFCURVE",
"349.763 499.322 OFFCURVE",
"354.214 525.988 CURVE SMOOTH",
"395.516 773.412 LINE SMOOTH",
"400.599 803.859 OFFCURVE",
"380.16 831.741 OFFCURVE",
"350.416 836.722 CURVE SMOOTH",
"319.091 841.968 OFFCURVE",
"292.02 822.16 OFFCURVE",
"286.923 791.631 CURVE SMOOTH",
"245.621 544.206 LINE SMOOTH",
"240.539 513.759 OFFCURVE",
"260.977 485.877 OFFCURVE",
"290.72 480.896 CURVE SMOOTH",
"294.071 480.289 OFFCURVE",
"297.014 480.097 OFFCURVE",
"299.917 480.097 CURVE SMOOTH"
);
},
{
closed = 1;
nodes = (
"167.005 506.562 OFFCURVE",
"190.921 528.76 OFFCURVE",
"193.058 557.479 CURVE SMOOTH",
"209.854 784.813 LINE SMOOTH",
"212.137 814.981 OFFCURVE",
"189.204 841.556 OFFCURVE",
"159.006 843.763 CURVE SMOOTH",
"128.336 845.697 OFFCURVE",
"102.448 823.409 OFFCURVE",
"100.133 792.956 CURVE SMOOTH",
"83.34 565.654 LINE SMOOTH",
"81.057 535.487 OFFCURVE",
"103.991 508.911 OFFCURVE",
"134.188 506.704 CURVE SMOOTH",
"136.694 506.567 OFFCURVE",
"137.806 506.562 OFFCURVE",
"138.199 506.562 CURVE SMOOTH"
);
}
);
width = 340.27;
}
);
unicode = 201D;
},
{
glyphname = quoteleft;
lastChange = "2019-04-30 11:56:39 +0000";
layers = (
{
layerId = "E3FE0EAA-297C-4773-BA15-BC72883F874E";
paths = (
{
closed = 1;
nodes = (
"89.914 495.52 OFFCURVE",
"91.247 495.698 OFFCURVE",
"92.99 495.939 CURVE SMOOTH",
"122.341 500.007 OFFCURVE",
"143.008 528.529 OFFCURVE",
"138.46 558.957 CURVE SMOOTH",
"100.953 809.915 LINE SMOOTH",
"96.479 839.85 OFFCURVE",
"68.708 859.998 OFFCURVE",
"37.944 855.502 CURVE SMOOTH",
"8.414 851.186 OFFCURVE",
"-12.209 822.773 OFFCURVE",
"-7.679 792.462 CURVE SMOOTH",
"29.828 541.505 LINE SMOOTH",
"34.051 513.249 OFFCURVE",
"59.808 493.043 OFFCURVE",
"88.653 495.418 CURVE SMOOTH"
);
}
);
width = 134.1;
}
);
unicode = 2018;
},
{
glyphname = quoteright;
lastChange = "2019-04-30 11:56:39 +0000";
layers = (
{
layerId = "E3FE0EAA-297C-4773-BA15-BC72883F874E";
paths = (
{
closed = 1;
nodes = (
"174.348 469.025 OFFCURVE",
"204.391 487.41 OFFCURVE",
"211.89 517.25 CURVE SMOOTH",
"273.736 763.342 LINE SMOOTH",
"281.114 792.696 OFFCURVE",
"263.222 821.972 OFFCURVE",
"233.094 829.647 CURVE SMOOTH",
"204.173 837.014 OFFCURVE",
"174.213 818.713 OFFCURVE",
"166.743 788.988 CURVE SMOOTH",
"104.896 542.897 LINE SMOOTH",
"97.932 515.189 OFFCURVE",
"113.942 486.635 OFFCURVE",
"141.485 477.738 CURVE SMOOTH",
"142.687 477.349 OFFCURVE",
"143.979 477 OFFCURVE",
"145.681 476.554 CURVE SMOOTH"
);
}
);
width = 218.59;
}
);
unicode = 2019;
},
{
glyphname = quotedbl;
lastChange = "2019-04-30 11:56:39 +0000";
layers = (
{
layerId = "E3FE0EAA-297C-4773-BA15-BC72883F874E";
paths = (
{
closed = 1;
nodes = (
"197.667 464.193 OFFCURVE",
"220.986 489.725 OFFCURVE",
"219.184 520.526 CURVE SMOOTH",
"203.604 802.184 LINE SMOOTH",
"201.783 833.317 OFFCURVE",
"176.189 856.085 OFFCURVE",
"145.646 853.796 CURVE SMOOTH",
"115.202 852.013 OFFCURVE",
"91.884 826.481 OFFCURVE",
"93.686 795.68 CURVE SMOOTH",
"109.265 514.023 LINE SMOOTH",
"110.915 487.063 OFFCURVE",
"131.432 465.526 OFFCURVE",
"158.322 462.624 CURVE SMOOTH",
"161.21 462.312 OFFCURVE",
"164.155 462.187 OFFCURVE",
"167.272 462.414 CURVE SMOOTH"
);
},
{
closed = 1;
nodes = (
"415.19 461.351 OFFCURVE",
"441.07 485.067 OFFCURVE",
"442.324 515.259 CURVE SMOOTH",
"455.215 768.861 LINE SMOOTH",
"456.463 799.184 OFFCURVE",
"433.354 824.342 OFFCURVE",
"402.47 826.012 CURVE SMOOTH",
"372.419 827.336 OFFCURVE",
"346.54 803.622 OFFCURVE",
"345.286 773.429 CURVE SMOOTH",
"332.395 519.827 LINE SMOOTH",
"331.172 491.214 OFFCURVE",
"352.332 466.376 OFFCURVE",
"380.941 463.012 CURVE SMOOTH",
"381.333 462.966 OFFCURVE",
"382.442 462.841 OFFCURVE",
"385.287 462.666 CURVE SMOOTH"
);
}
);
width = 470;
}
);
unicode = 0022;
},
{
glyphname = quotesingle;
lastChange = "2019-04-30 11:56:39 +0000";
layers = (
{
layerId = "E3FE0EAA-297C-4773-BA15-BC72883F874E";
paths = (
{
closed = 1;
nodes = (
"183.618 495.352 OFFCURVE",
"208.887 519.888 OFFCURVE",
"209.647 550.646 CURVE SMOOTH",
"215.913 804.313 LINE SMOOTH",
"216.661 834.571 OFFCURVE",
"192.774 859.2 OFFCURVE",
"161.695 860.069 CURVE SMOOTH",
"131.863 860.902 OFFCURVE",
"106.656 836.465 OFFCURVE",
"105.899 805.825 CURVE SMOOTH",
"99.632 552.159 LINE SMOOTH",
"98.926 523.598 OFFCURVE",
"120.819 499.259 OFFCURVE",
"149.643 496.63 CURVE SMOOTH",
"150.898 496.516 OFFCURVE",
"152.248 496.46 OFFCURVE",
"154.007 496.397 CURVE SMOOTH"
);
}
);
width = 184.46;
}
);
unicode = 0027;
},
{
glyphname = dieresiscomb;
lastChange = "2019-04-30 11:56:39 +0000";
layers = (
{
anchors = (
{
name = _top;
position = "{340.715, 450}";
},
{
name = top;
position = "{447.531, 793.601}";
}
);
layerId = "E3FE0EAA-297C-4773-BA15-BC72883F874E";
paths = (
{
closed = 1;
nodes = (
"303.727 505.905 OFFCURVE",
"330.366 530.686 OFFCURVE",
"332.38 560.586 CURVE SMOOTH",
"334.174 587.205 OFFCURVE",
"345.122 634.627 OFFCURVE",
"364.388 700.068 CURVE SMOOTH",
"372.734 728.416 OFFCURVE",
"356.862 755.968 OFFCURVE",
"328.865 761.795 CURVE",
"301.882 770.167 OFFCURVE",
"270.71 751.2 OFFCURVE",
"261.665 720.529 CURVE SMOOTH",
"254.382 695.834 OFFCURVE",
"229.002 609.526 OFFCURVE",
"225.483 557.914 CURVE SMOOTH",
"223.761 532.668 OFFCURVE",
"240.468 511.361 OFFCURVE",
"265.114 507.291 CURVE SMOOTH",
"267.89 506.833 OFFCURVE",
"271.053 506.617 OFFCURVE",
"274.396 506.544 CURVE SMOOTH"
);
},
{
closed = 1;
nodes = (
"532.609 510.149 OFFCURVE",
"560.565 533.013 OFFCURVE",
"564.709 562.981 CURVE SMOOTH",
"581.514 684.541 LINE SMOOTH",
"585.491 713.305 OFFCURVE",
"565.682 737.75 OFFCURVE",
"537.321 739.226 CURVE SMOOTH",
"507.002 740.804 OFFCURVE",
"479.325 718.318 OFFCURVE",
"475.259 688.906 CURVE SMOOTH",
"458.453 567.345 LINE SMOOTH",
"454.766 540.683 OFFCURVE",
"471.613 517.534 OFFCURVE",
"497.799 513.191 CURVE SMOOTH",
"499.269 512.948 OFFCURVE",
"500.843 512.821 OFFCURVE",
"503.281 512.616 CURVE SMOOTH"
);
}
);
width = 600;
}
);
unicode = 0308;
},
{
glyphname = gravecomb;
lastChange = "2019-04-30 11:56:39 +0000";
layers = (
{
anchors = (
{
name = _top;
position = "{171.039, 463.433}";
},
{
name = top;
position = "{226.561, 858.489}";
}
);
layerId = "E3FE0EAA-297C-4773-BA15-BC72883F874E";
paths = (
{
closed = 1;
nodes = (
"316.283 522.995 OFFCURVE",
"331.826 531.968 OFFCURVE",
"342.447 550.481 CURVE SMOOTH",
"355.834 573.814 OFFCURVE",
"347.644 604.143 OFFCURVE",
"324.329 617.574 CURVE SMOOTH",
"312.814 624.208 OFFCURVE",
"301.422 625.858 OFFCURVE",
"289.075 622.815 CURVE",
"267.92 629.594 OFFCURVE",
"215.661 655.411 OFFCURVE",
"172.254 680.439 CURVE SMOOTH",
"148.781 693.973 OFFCURVE",
"118.607 685.803 OFFCURVE",
"105.113 662.252 CURVE SMOOTH",
"91.735 638.903 OFFCURVE",
"99.352 608.909 OFFCURVE",
"123.23 595.153 CURVE",
"123.043 595.259 OFFCURVE",
"159.997 574.056 OFFCURVE",
"198.156 555.245 CURVE SMOOTH",
"227.473 540.933 OFFCURVE",
"263.713 522.995 OFFCURVE",
"294.807 522.995 CURVE SMOOTH"
);
}
);
width = 430;
}
);
unicode = 0300;
},
{
glyphname = acutecomb;
lastChange = "2019-04-30 11:56:39 +0000";
layers = (
{
anchors = (
{
name = _top;
position = "{331.611, 450}";
},
{
name = top;
position = "{368.807, 714.661}";
}
);
layerId = "E3FE0EAA-297C-4773-BA15-BC72883F874E";
paths = (
{
closed = 1;
nodes = (
"243.192 466.394 OFFCURVE",
"301.897 496.602 OFFCURVE",
"419.645 573.243 CURVE SMOOTH",
"438.954 585.765 OFFCURVE",
"444.514 611.999 OFFCURVE",
"431.966 631.291 CURVE SMOOTH",
"419.257 650.829 OFFCURVE",
"393.097 656.394 OFFCURVE",
"373.881 643.695 CURVE SMOOTH",
"309.979 602.114 OFFCURVE",
"238.603 560.474 OFFCURVE",
"218.302 553.383 CURVE",
"202.134 553.578 OFFCURVE",
"188.562 545.697 OFFCURVE",
"180.779 531.708 CURVE SMOOTH",
"169.622 511.557 OFFCURVE",
"177.031 485.822 OFFCURVE",
"197.28 474.555 CURVE SMOOTH",
"206.98 469.204 OFFCURVE",
"210.404 467.841 OFFCURVE",
"216.318 467.581 CURVE SMOOTH"
);
}
);
width = 600;
}
);
unicode = 0301;
},
{
glyphname = circumflexcomb;
lastChange = "2019-04-30 11:56:39 +0000";
layers = (
{
anchors = (
{
name = _top;
position = "{315.182, 450}";
},
{
name = top;
position = "{360.092, 702.456}";
}
);
layerId = "E3FE0EAA-297C-4773-BA15-BC72883F874E";
paths = (
{
closed = 1;
nodes = (
"524.132 470.229 OFFCURVE",
"535.106 474.461 OFFCURVE",
"544.733 483.236 CURVE SMOOTH",
"565.002 501.756 OFFCURVE",
"566.874 533.123 OFFCURVE",
"547.877 553.98 CURVE SMOOTH",
"427.683 685.597 LINE SMOOTH",
"410.808 704.019 OFFCURVE",
"382.013 707.012 OFFCURVE",
"361.512 692.433 CURVE SMOOTH",
"297.046 646.15 OFFCURVE",
"225.586 600.293 OFFCURVE",
"201.251 590.09 CURVE",
"191.347 591.12 OFFCURVE",
"181.476 589.067 OFFCURVE",
"172.127 583.996 CURVE SMOOTH",
"148.261 570.742 OFFCURVE",
"139.188 540.795 OFFCURVE",
"152.805 516.084 CURVE SMOOTH",
"159.827 503.366 OFFCURVE",
"173.78 493.005 OFFCURVE",
"188.335 489.74 CURVE SMOOTH",
"220.732 482.195 OFFCURVE",
"263.129 502.112 OFFCURVE",
"383.721 585.603 CURVE",
"474.091 486.487 LINE SMOOTH",
"484.061 475.526 OFFCURVE",
"496.086 470.229 OFFCURVE",
"510.988 470.229 CURVE SMOOTH"
);
}
);
width = 600;
}
);
unicode = 0302;
},
{
glyphname = cedillacomb;
lastChange = "2019-04-30 11:56:39 +0000";
layers = (
{
anchors = (
{
name = _bottom;
position = "{43.574, 0}";
},
{
name = bottom;
position = "{-11.987, -395.336}";
}
);
layerId = "E3FE0EAA-297C-4773-BA15-BC72883F874E";
paths = (
{
closed = 1;
nodes = (
"91.923 -328.602 OFFCURVE",
"112.23 -324.252 OFFCURVE",
"131.725 -315.654 CURVE SMOOTH",
"181.415 -293.811 OFFCURVE",
"216.712 -248.346 OFFCURVE",
"222.571 -198.885 CURVE SMOOTH",
"228.439 -149.593 OFFCURVE",
"202.721 -102.967 OFFCURVE",
"154.735 -76.46 CURVE SMOOTH",
"130.639 -63.06 OFFCURVE",
"103.239 -56.279 OFFCURVE",
"76.088 -57.258 CURVE",
"81.503 -36.22 LINE",
"82.976 -31.697 OFFCURVE",
"84.513 -26.888 OFFCURVE",
"86.056 -22.259 CURVE SMOOTH",
"94.017 1.355 OFFCURVE",
"81.217 27.237 OFFCURVE",
"57.706 35.187 CURVE SMOOTH",
"34.104 43.322 OFFCURVE",
"8.275 30.535 OFFCURVE",
"0.365 6.874 CURVE SMOOTH",
"-33.453 -93.139 OFFCURVE",
"-32.54 -136.255 OFFCURVE",
"-1.29 -158.085 CURVE SMOOTH",
"14.807 -169.405 OFFCURVE",
"52.701 -165.814 OFFCURVE",
"68.569 -150.442 CURVE",
"87.252 -141.761 OFFCURVE",
"113.818 -155.126 OFFCURVE",
"132.246 -177.464 CURVE",
"137.141 -198.021 OFFCURVE",
"118.521 -222.46 OFFCURVE",
"95.414 -232.781 CURVE SMOOTH",
"75.667 -241.287 OFFCURVE",
"54.536 -239.011 OFFCURVE",
"37.754 -226.465 CURVE SMOOTH",
"17.574 -212.187 OFFCURVE",
"-10.832 -216.861 OFFCURVE",
"-25.223 -236.85 CURVE SMOOTH",
"-39.774 -256.991 OFFCURVE",
"-35.13 -285.469 OFFCURVE",
"-14.96 -299.924 CURVE SMOOTH",
"11.472 -319.013 OFFCURVE",
"40.381 -328.602 OFFCURVE",
"71.339 -328.602 CURVE SMOOTH"
);
}
);
width = 302.33;
}
);
unicode = 0327;
},
